<svg id="Layer_1" data-name="Layer 1" xmlns="http://www.w3.org/2000/svg" viewBox="0 0 1138.239 1031.127">
  <circle cx="569.12" cy="515.564" r="515.564" style="fill: #f93"/>
  <g>
    <rect x="158.863" y="320.252" width="820.516" height="354.923" style="fill: #fdfcf8"/>
    <g>
      <circle cx="598.258" cy="622.8" r="84.276" transform="translate(-208.594 159.339) rotate(-20.118)" style="fill: #43aa8b"/>
      <path d="M609.784,642.7a10.319,10.319,0,0,0-2.565-7.354q-2.565-2.731-8.709-5.044a103.413,103.413,0,0,1-10.6-4.593,33.749,33.749,0,0,1-7.636-5.243,21.091,21.091,0,0,1-4.96-6.961,23.373,23.373,0,0,1-1.775-9.522q0-9.525,6.09-15.613t16.174-7.1V569.2h9.018v12.23q9.975,1.407,15.61,8.313t5.637,17.895H609.784q0-6.765-2.791-10.116a9.221,9.221,0,0,0-7.466-3.356,9.507,9.507,0,0,0-7.159,2.622,9.981,9.981,0,0,0-2.538,7.243,9.531,9.531,0,0,0,2.481,6.876q2.481,2.59,9.217,5.3a103.054,103.054,0,0,1,11.074,5.1,32.152,32.152,0,0,1,7.327,5.41,21.058,21.058,0,0,1,4.566,6.876,23.649,23.649,0,0,1,1.577,8.988q0,9.587-5.973,15.558t-16.458,7.042V676.4H594.68V665.243q-11.554-1.242-17.895-8.2t-6.342-18.513h16.29q0,6.7,3.183,10.284t9.16,3.58a11.182,11.182,0,0,0,7.832-2.622A9.094,9.094,0,0,0,609.784,642.7Z" transform="translate(-30.88 -84.436)" style="fill: #fdfcf8"/>
    </g>
    <polygon points="676.652 904.491 461.59 904.491 494.873 797.265 643.367 797.265 676.652 904.491" style="fill: #c9c9c9"/>
    <path d="M30.88,405.343v50.284A62.213,62.213,0,0,0,93.1,517.846H110.94a62.215,62.215,0,0,0,62.219-62.219V405.343Z" transform="translate(-30.88 -84.436)" style="fill: #46b1c9"/>
    <path d="M173.159,405.343v50.284a62.22,62.22,0,0,0,62.225,62.219h17.833a62.222,62.222,0,0,0,62.225-62.219V405.343Z" transform="translate(-30.88 -84.436)" style="fill: #e3e0d1"/>
    <path d="M315.442,405.343v50.284c0,34.367,28.5,62.219,63.678,62.219h18.261c35.171,0,63.678-27.852,63.678-62.219V405.343Z" transform="translate(-30.88 -84.436)" style="fill: #46b1c9"/>
    <path d="M461.059,405.343v50.284c0,34.367,27.2,62.219,60.762,62.219H539.24c33.555,0,60.761-27.852,60.761-62.219V405.343Z" transform="translate(-30.88 -84.436)" style="fill: #e3e0d1"/>
    <path d="M600,405.343v50.284a62.218,62.218,0,0,0,62.22,62.219h17.838a62.217,62.217,0,0,0,62.22-62.219V405.343Z" transform="translate(-30.88 -84.436)" style="fill: #46b1c9"/>
    <path d="M742.279,405.343v50.284A62.218,62.218,0,0,0,804.5,517.846h17.835a62.215,62.215,0,0,0,62.219-62.219V405.343Z" transform="translate(-30.88 -84.436)" style="fill: #e3e0d1"/>
    <path d="M884.557,405.343v50.284a62.222,62.222,0,0,0,62.225,62.219h17.837a62.213,62.213,0,0,0,62.218-62.219V405.343Z" transform="translate(-30.88 -84.436)" style="fill: #46b1c9"/>
    <path d="M1026.837,405.343v50.284a62.22,62.22,0,0,0,62.228,62.219H1106.9a62.217,62.217,0,0,0,62.221-62.219V405.343Z" transform="translate(-30.88 -84.436)" style="fill: #e3e0d1"/>
    <polygon points="493.925 123.564 430.246 320.907 569.12 320.907 577.25 123.564 493.925 123.564" style="fill: #fdfcf8"/>
    <polygon points="918.721 123.564 833.356 123.564 995.956 320.907 1138.239 320.907 918.721 123.564" style="fill: #fdfcf8"/>
    <polygon points="319.101 123.564 138.871 320.907 284.562 320.907 406.512 123.564 319.101 123.564" style="fill: #fdfcf8"/>
    <polygon points="235.779 123.564 0 320.907 138.871 320.907 319.101 123.564 235.779 123.564" style="fill: #46b1c9"/>
    <polygon points="406.512 123.564 284.562 320.907 430.246 320.907 493.925 123.564 406.512 123.564" style="fill: #46b1c9"/>
    <polygon points="577.25 123.564 569.12 320.907 711.399 320.907 662.62 123.564 577.25 123.564" style="fill: #46b1c9"/>
    <polygon points="747.989 123.564 853.677 320.907 995.956 320.907 833.356 123.564 747.989 123.564" style="fill: #46b1c9"/>
    <polygon points="662.62 123.564 711.399 320.907 853.677 320.907 747.989 123.564 662.62 123.564" style="fill: #fdfcf8"/>
    <path d="M189.743,852.945a57.886,57.886,0,0,0,57.888,57.892H952.372a57.889,57.889,0,0,0,57.887-57.892V759.612H189.743Z" transform="translate(-30.88 -84.436)" style="fill: #e5e5e5"/>
    <path d="M618.233,835.221A18.232,18.232,0,1,1,600,816.992,18.234,18.234,0,0,1,618.233,835.221Z" transform="translate(-30.88 -84.436)" style="fill: #707078"/>
    <rect x="216.514" y="455.675" width="224.601" height="152.924" style="fill: #f3f3ff"/>
    <path d="M722.619,983c0,4.969-3.583,9-8,9H481.9c-4.419,0-8-4.027-8-9h0c0-4.97,3.583-9,8-9H714.616c4.42,0,8,4.027,8,9Z" transform="translate(-30.88 -84.436)" style="fill: #fdfcf8"/>
    <g>
      <g>
        <path d="M952.025,625.8H723.156a4.294,4.294,0,0,1,0-8.588H952.025a4.294,4.294,0,0,1,0,8.588Z" transform="translate(-30.88 -84.436)" style="fill: #707078"/>
        <path d="M952.025,582.45H723.156a4.294,4.294,0,1,1,0-8.588H952.025a4.294,4.294,0,0,1,0,8.588Z" transform="translate(-30.88 -84.436)" style="fill: #707078"/>
        <path d="M807.165,646.97H723.156a4.294,4.294,0,0,1,0-8.588h84.009a4.294,4.294,0,0,1,0,8.588Z" transform="translate(-30.88 -84.436)" style="fill: #707078"/>
        <path d="M952.025,646.97H835.312a4.294,4.294,0,0,1,0-8.588H952.025a4.294,4.294,0,0,1,0,8.588Z" transform="translate(-30.88 -84.436)" style="fill: #707078"/>
        <path d="M952.025,717.6H868.019a4.294,4.294,0,0,1,0-8.588h84.006a4.294,4.294,0,1,1,0,8.588Z" transform="translate(-30.88 -84.436)" style="fill: #707078"/>
        <path d="M839.87,717.6H723.156a4.294,4.294,0,0,1,0-8.588H839.87a4.294,4.294,0,1,1,0,8.588Z" transform="translate(-30.88 -84.436)" style="fill: #707078"/>
        <path d="M952.025,669.936H881.6a4.294,4.294,0,0,1,0-8.588h70.421a4.294,4.294,0,0,1,0,8.588Z" transform="translate(-30.88 -84.436)" style="fill: #707078"/>
        <path d="M851.733,669.936H723.156a4.294,4.294,0,0,1,0-8.588H851.733a4.294,4.294,0,0,1,0,8.588Z" transform="translate(-30.88 -84.436)" style="fill: #707078"/>
        <path d="M952.025,693.119H896.308a4.294,4.294,0,0,1,0-8.588h55.717a4.294,4.294,0,0,1,0,8.588Z" transform="translate(-30.88 -84.436)" style="fill: #707078"/>
        <path d="M869.237,693.119H813.519a4.294,4.294,0,0,1,0-8.588h55.718a4.294,4.294,0,0,1,0,8.588Z" transform="translate(-30.88 -84.436)" style="fill: #707078"/>
        <path d="M785,693.119H723.156a4.294,4.294,0,0,1,0-8.588H785a4.294,4.294,0,0,1,0,8.588Z" transform="translate(-30.88 -84.436)" style="fill: #707078"/>
        <path d="M952.025,604.29H896.308a4.294,4.294,0,0,1,0-8.588h55.717a4.294,4.294,0,0,1,0,8.588Z" transform="translate(-30.88 -84.436)" style="fill: #707078"/>
        <path d="M869.237,604.29H813.519a4.294,4.294,0,0,1,0-8.588h55.718a4.294,4.294,0,0,1,0,8.588Z" transform="translate(-30.88 -84.436)" style="fill: #707078"/>
        <path d="M785,604.29H723.156a4.294,4.294,0,0,1,0-8.588H785a4.294,4.294,0,0,1,0,8.588Z" transform="translate(-30.88 -84.436)" style="fill: #707078"/>
      </g>
      <rect x="689.019" y="448.569" width="232.126" height="22.671" style="fill: #707078"/>
      <rect x="216.448" y="622.61" width="64.925" height="11.39" style="fill: #707078"/>
      <rect x="296.204" y="622.61" width="64.927" height="11.39" style="fill: #707078"/>
      <rect x="375.96" y="622.61" width="64.925" height="11.39" style="fill: #707078"/>
    </g>
    <path d="M298.43,657.046a8.5,8.5,0,0,0,8.536,8.456l71.385-.353a8.5,8.5,0,0,0,8.459-8.54L375.4,581.9l-10.682.048c.011-.3.015-.6.015-.9a22.483,22.483,0,1,0-44.966.224c0,.3.011.595.025.9l-11.813.052Zm26.357-74.9c-.013-.3-.03-.6-.031-.9a17.488,17.488,0,0,1,34.976-.172c0,.3-.007.6-.023.9Z" transform="translate(-30.88 -84.436)" style="fill: #43aa8b"/>
    <path d="M335.814,668.667a6.314,6.314,0,0,0,6.339,6.28l53-.263a6.315,6.315,0,0,0,6.28-6.341l-8.475-55.47-7.931.035c.007-.223.01-.447.01-.668a16.693,16.693,0,1,0-33.386.166c0,.219.008.442.018.668l-8.77.04Zm19.571-55.614c-.01-.221-.022-.445-.023-.668a12.985,12.985,0,0,1,25.97-.126c0,.221-.006.449-.018.67Z" transform="translate(-30.88 -84.436)" style="fill: #f93"/>
  </g>
</svg>
