<svg id="Layer_1" data-name="Layer 1" xmlns="http://www.w3.org/2000/svg" viewBox="0 0 1274.162 1299.99">
  <g style="opacity: 0.699999988079071">
    <path d="M732.93,28.71h0A134.1,134.1,0,0,0,844.85,54.25h0a134.123,134.123,0,0,1,149.44,71.97h0a134.119,134.119,0,0,0,89.75,71.57h0a134.1,134.1,0,0,1,103.41,129.68h0a134.092,134.092,0,0,0,49.81,103.43h0a134.13,134.13,0,0,1,36.91,161.7h0a134.132,134.132,0,0,0,0,114.79h0a134.113,134.113,0,0,1-36.91,161.7h0a134.155,134.155,0,0,0-49.81,103.43h0a134.133,134.133,0,0,1-103.41,129.68h0a134.119,134.119,0,0,0-89.75,71.57h0a134.123,134.123,0,0,1-149.44,71.97h0a134.143,134.143,0,0,0-111.92,25.54h0a134.128,134.128,0,0,1-165.86,0h0a134.1,134.1,0,0,0-111.92-25.54h0a134.123,134.123,0,0,1-149.44-71.97h0a134.119,134.119,0,0,0-89.75-71.57h0A134.1,134.1,0,0,1,112.55,972.52h0A134.092,134.092,0,0,0,62.74,869.09h0a134.13,134.13,0,0,1-36.91-161.7h0a134.132,134.132,0,0,0,0-114.79h0A134.113,134.113,0,0,1,62.74,430.9h0a134.155,134.155,0,0,0,49.81-103.43h0A134.133,134.133,0,0,1,215.96,197.79h0a134.119,134.119,0,0,0,89.75-71.57h0A134.123,134.123,0,0,1,455.15,54.25h0A134.143,134.143,0,0,0,567.07,28.71h0A134.128,134.128,0,0,1,732.93,28.71Z" transform="translate(-12.919 0)" style="fill: #43aa8b"/>
  </g>
  <circle cx="637.081" cy="650" r="569.67" style="fill: #fff"/>
  <g style="opacity: 0.699999988079071">
    <circle cx="637.081" cy="650" r="424.84" style="fill: #43aa8b"/>
  </g>
  <g>
    <path d="M120.17,717.08q5.4-8.52,18.51-11.19,2.79-.585,8.21-1.52,5.52-.96,8.35-1.35,12.945-1.845,21.13,4.52t10.4,19.14q2.22,12.78-3.34,21.58t-18.37,11.41c-3.72.78-6.49,1.32-8.29,1.64-1.74.3-4.5.71-8.26,1.23q-13.26,1.8-21.21-4.4t-10.24-19.37Q114.75,725.585,120.17,717.08Zm13.72,29.44q4.59,3.195,12.68,2.09c3.9-.54,6.52-.93,7.88-1.17,1.48-.26,4.09-.77,7.81-1.55q7.98-1.68,11.24-6.24t2.13-11.04a14.013,14.013,0,0,0-5.7-9.59q-4.59-3.195-12.68-2.09-2.835.39-7.86,1.26-4.935.855-7.83,1.46c-5.33,1.12-9.07,3.18-11.25,6.19s-2.88,6.67-2.13,10.99S130.83,744.39,133.89,746.52Z" transform="translate(-12.919 0)" style="fill: #43aa8b"/>
    <path d="M136.72,795.34q4.08-9.15,17.11-13.54l37.91-12.76a2.483,2.483,0,0,1,1.88.04,2.248,2.248,0,0,1,1.2,1.41l2.85,8.48a2.269,2.269,0,0,1-.1,1.85,2.5,2.5,0,0,1-1.47,1.17l-37.91,12.76q-7.455,2.5-10.03,7.32-2.58,4.8-.39,11.33t7.14,8.74q4.95,2.22,12.4-.28l37.91-12.76a2.366,2.366,0,0,1,3.12,1.55l2.82,8.38a2.231,2.231,0,0,1-.1,1.85,2.5,2.5,0,0,1-1.47,1.17l-37.91,12.76q-13.035,4.4-21.8-.38t-13-17.35Q132.635,804.48,136.72,795.34Z" transform="translate(-12.919 0)" style="fill: #43aa8b"/>
    <path d="M176.14,900.67a22.546,22.546,0,0,1,1.21-11.75,16.37,16.37,0,0,1,6.32-7.68,2,2,0,0,1,2.82.74l4.41,7.55a3.16,3.16,0,0,1,.54,1.79,4.484,4.484,0,0,1-.61,1.78,10.022,10.022,0,0,0-2.55,6.73q-.165,4.2,2.91,9.46,3.525,6.03,7.3,7.91a7.271,7.271,0,0,0,7.34-.19,6.078,6.078,0,0,0,2.99-3.85,14.8,14.8,0,0,0-.1-6.2q-.705-3.735-2.67-10.79-3.48-11.4-2.23-18.33t8.54-11.2a17.222,17.222,0,0,1,10.3-2.44,20.619,20.619,0,0,1,10.54,4.2,33.706,33.706,0,0,1,9.07,10.46,31.72,31.72,0,0,1,4.58,13.49,23.365,23.365,0,0,1-1.61,11.36,15.706,15.706,0,0,1-5.68,7.13,1.951,1.951,0,0,1-1.57.23,1.971,1.971,0,0,1-1.25-.98l-4.61-7.89a2.851,2.851,0,0,1,.17-3.4,8,8,0,0,0,2.56-6.05,15.176,15.176,0,0,0-2.34-8.19q-2.775-4.755-6.15-6.42a6.72,6.72,0,0,0-6.76.31,6.586,6.586,0,0,0-3.11,3.64,13.19,13.19,0,0,0-.21,5.87,86.135,86.135,0,0,0,2.3,9.98,67.836,67.836,0,0,1,3.15,14.15,18.167,18.167,0,0,1-1.5,9.7,16.986,16.986,0,0,1-6.99,6.93,17.819,17.819,0,0,1-11.22,2.52,21.685,21.685,0,0,1-11.11-4.89,40.193,40.193,0,0,1-9.49-11.36A38.489,38.489,0,0,1,176.14,900.67Z" transform="translate(-12.919 0)" style="fill: #43aa8b"/>
    <path d="M210.08,956.81a2.26,2.26,0,0,1,.89-1.57l50.3-39.54a2.488,2.488,0,0,1,1.79-.59,2.212,2.212,0,0,1,1.6.93l26.73,33.99a2.363,2.363,0,0,1-.41,3.45l-5.1,4.01a2.213,2.213,0,0,1-1.78.52,2.516,2.516,0,0,1-1.6-1l-19.98-25.42-13.68,10.75,18.65,23.72a2.488,2.488,0,0,1,.59,1.79,2.212,2.212,0,0,1-.93,1.6l-4.79,3.77a2.213,2.213,0,0,1-1.78.52,2.471,2.471,0,0,1-1.59-1l-18.65-23.72L226.2,960.13l20.47,26.04a2.353,2.353,0,0,1-.41,3.44l-5.1,4.01a2.213,2.213,0,0,1-1.78.52,2.516,2.516,0,0,1-1.6-1l-27.21-34.61A2.166,2.166,0,0,1,210.08,956.81Z" transform="translate(-12.919 0)" style="fill: #43aa8b"/>
    <path d="M263.87,1012.94q-.66-9.99,8.82-19.96l27.58-28.97a2.521,2.521,0,0,1,1.68-.84,2.224,2.224,0,0,1,1.72.69l6.48,6.17a2.236,2.236,0,0,1,.77,1.68,2.482,2.482,0,0,1-.76,1.72l-27.58,28.97q-5.415,5.7-5.46,11.15t4.94,10.2q4.98,4.74,10.4,4.4t10.83-6.04l27.58-28.97a2.429,2.429,0,0,1,1.72-.81,2.385,2.385,0,0,1,1.76.72l6.41,6.1a2.241,2.241,0,0,1,.77,1.69,2.5,2.5,0,0,1-.76,1.72l-27.58,28.97q-9.48,9.975-19.46,9.83t-19.59-9.28Q264.54,1022.93,263.87,1012.94Z" transform="translate(-12.919 0)" style="fill: #43aa8b"/>
    <path d="M340.43,1084.51a2.277,2.277,0,0,1,.29-1.78l33.57-54.46a2.531,2.531,0,0,1,1.47-1.17,2.234,2.234,0,0,1,1.83.32L398,1040q24.6,15.165,11.07,38.23-2.82,4.95-3.86,6.63-.975,1.59-4.14,6.34-7.56,11.5-16.92,13.41t-21.83-5.78l-20.83-12.84A2.38,2.38,0,0,1,340.43,1084.51Zm27.41,4.42c4.69,2.89,8.7,3.92,12.06,3.1s6.56-3.59,9.63-8.32c2.17-3.28,3.52-5.33,4.04-6.17q.825-1.335,3.65-6.29,4.065-6.96,2.77-12.26t-8.32-9.63l-10.37-6.39-24.24,39.32Z" transform="translate(-12.919 0)" style="fill: #43aa8b"/>
    <path d="M408.7,1123.57a2.258,2.258,0,0,1,.09-1.8l27.35-57.95a2.24,2.24,0,0,1,1.36-1.26,2.352,2.352,0,0,1,1.78.14l8.35,3.94a2.2,2.2,0,0,1,1.12,3.14l-27.35,57.95a2.37,2.37,0,0,1-1.29,1.24,2.237,2.237,0,0,1-1.85-.11l-8.35-3.94A2.332,2.332,0,0,1,408.7,1123.57Z" transform="translate(-12.919 0)" style="fill: #43aa8b"/>
    <path d="M444.14,1139.91a2.256,2.256,0,0,1-.11-1.8l20.65-60.55a2.482,2.482,0,0,1,1.18-1.47,2.231,2.231,0,0,1,1.85-.1l7.16,2.44a2.972,2.972,0,0,1,1.53.99,5.021,5.021,0,0,1,.66,1.42l12.58,50.81,13.92-40.83a2.482,2.482,0,0,1,1.18-1.47,2.231,2.231,0,0,1,1.85-.1l7.81,2.66a2.375,2.375,0,0,1,1.45,1.22,2.438,2.438,0,0,1,.08,1.9l-20.62,60.46a2.375,2.375,0,0,1-1.22,1.45,2.256,2.256,0,0,1-1.8.11l-7.26-2.47a3.49,3.49,0,0,1-2.19-2.41l-12.8-49.84-13.64,40a2.217,2.217,0,0,1-1.21,1.4,2.439,2.439,0,0,1-1.88.03l-7.81-2.67A2.246,2.246,0,0,1,444.14,1139.91Z" transform="translate(-12.919 0)" style="fill: #43aa8b"/>
    <path d="M521.47,1164.03a2.292,2.292,0,0,1-.39-1.76l10.98-63.03a2.467,2.467,0,0,1,.93-1.63,2.2,2.2,0,0,1,1.81-.38l8.81,1.53a2.261,2.261,0,0,1,1.58.97,2.517,2.517,0,0,1,.33,1.85l-4.35,24.98,28.56,4.97,4.35-24.98a2.467,2.467,0,0,1,.93-1.63,2.2,2.2,0,0,1,1.81-.38l8.71,1.52a2.409,2.409,0,0,1,1.63.98,2.378,2.378,0,0,1,.37,1.86l-10.98,63.03a2.24,2.24,0,0,1-.97,1.58,2.517,2.517,0,0,1-1.85.33l-8.71-1.52a2.25,2.25,0,0,1-1.53-.96,2.292,2.292,0,0,1-.39-1.76l4.52-25.95-28.56-4.97-4.52,25.95a2.355,2.355,0,0,1-.92,1.54,2.2,2.2,0,0,1-1.81.38l-8.81-1.53A2.4,2.4,0,0,1,521.47,1164.03Z" transform="translate(-12.919 0)" style="fill: #43aa8b"/>
    <path d="M603.26,1175.82a2.243,2.243,0,0,1-.64-1.69l1.72-63.95a2.5,2.5,0,0,1,.69-1.75,2.228,2.228,0,0,1,1.74-.64l43.23,1.16a2.411,2.411,0,0,1,1.75.74,2.384,2.384,0,0,1,.64,1.79l-.17,6.48a2.261,2.261,0,0,1-.73,1.7,2.521,2.521,0,0,1-1.79.59l-32.32-.87-.47,17.39,30.16.81a2.5,2.5,0,0,1,1.75.69,2.228,2.228,0,0,1,.64,1.74l-.16,6.09a2.234,2.234,0,0,1-.74,1.7,2.5,2.5,0,0,1-1.79.59l-30.16-.81-.48,17.98,33.11.89a2.364,2.364,0,0,1,2.39,2.53l-.17,6.48a2.226,2.226,0,0,1-.73,1.7,2.5,2.5,0,0,1-1.79.59l-44.01-1.18A2.329,2.329,0,0,1,603.26,1175.82Z" transform="translate(-12.919 0)" style="fill: #43aa8b"/>
    <path d="M673.54,1175.6a2.277,2.277,0,0,1-.81-1.62l-4.77-63.9a2.24,2.24,0,0,1,.56-1.77,2.344,2.344,0,0,1,1.62-.76l9.21-.69a2.348,2.348,0,0,1,1.76.51,2.4,2.4,0,0,1,.77,1.67l4.77,63.9a2.345,2.345,0,0,1-.51,1.71,2.22,2.22,0,0,1-1.66.81l-9.21.69A2.241,2.241,0,0,1,673.54,1175.6Z" transform="translate(-12.919 0)" style="fill: #43aa8b"/>
    <path d="M712.23,1172.3a2.255,2.255,0,0,1-.98-1.52l-11.61-62.92a2.492,2.492,0,0,1,.31-1.86,2.241,2.241,0,0,1,1.57-.99l25.03-4.62q11.79-2.175,19.52,2.1t9.61,14.42a20.093,20.093,0,0,1-1.25,12.47,19.451,19.451,0,0,1-8.25,8.67l18.66,22.04a2.535,2.535,0,0,1,.49,1.01,1.917,1.917,0,0,1-.36,1.57,2.1,2.1,0,0,1-1.29.84l-8.79,1.62a3.693,3.693,0,0,1-2.49-.24,6.358,6.358,0,0,1-1.85-1.66l-16.69-20.6-13.43,2.48,4.28,23.19a2.342,2.342,0,0,1-.33,1.76,2.241,2.241,0,0,1-1.57.99l-8.79,1.62A2.327,2.327,0,0,1,712.23,1172.3Zm19.79-40.63q5.805-1.065,8.26-4.22c1.64-2.1,2.16-4.8,1.56-8.08s-2.06-5.65-4.36-7.09-5.38-1.81-9.24-1.09l-13.63,2.51,3.78,20.49Z" transform="translate(-12.919 0)" style="fill: #43aa8b"/>
    <path d="M790.7,1149.93q-9.27-3.99-13.99-16.49c-.68-1.77-1.62-4.4-2.81-7.87-1.22-3.53-2.1-6.21-2.66-8.02q-3.885-12.48,1.1-21.58t17.25-13.31q12.27-4.215,21.83-.13t14.19,16.32q2.04,5.325,2.94,7.93c.57,1.67,1.42,4.33,2.53,7.96q3.885,12.795-.97,21.64t-17.5,13.19Q799.965,1153.905,790.7,1149.93Zm26.88-18.24q2.415-5.04.05-12.85-1.74-5.64-2.4-7.59-.735-2.13-2.78-7.46-2.94-7.62-7.94-10.1t-11.24-.34a14.017,14.017,0,0,0-8.56,7.15q-2.43,5.04-.05,12.85.84,2.73,2.5,7.56,1.635,4.74,2.68,7.5,2.94,7.62,7.9,10.12t11.19.36C813.08,1137.44,815.96,1135.05,817.58,1131.69Z" transform="translate(-12.919 0)" style="fill: #43aa8b"/>
    <path d="M888.98,1115.18a2.3,2.3,0,0,1-1.45-1.08l-32.88-54.88a2.5,2.5,0,0,1-.36-1.85,2.224,2.224,0,0,1,1.12-1.47l20.57-12.32q24.78-14.85,39.03,7.78,3.105,4.785,4.11,6.47.96,1.605,3.72,6.59,6.735,12,4.11,21.2t-15.19,16.72l-20.99,12.58A2.3,2.3,0,0,1,888.98,1115.18Zm16.55-22.28q7.08-4.245,8.31-9.27t-2.95-12.38c-1.91-3.44-3.11-5.58-3.62-6.42-.54-.9-1.84-2.94-3.91-6.14q-4.3-6.81-9.61-8.11t-12.38,2.95l-10.45,6.26,23.74,39.62Z" transform="translate(-12.919 0)" style="fill: #43aa8b"/>
    <path d="M956.39,1072.15a2.267,2.267,0,0,1-1.59-.86l-40.38-49.62a2.526,2.526,0,0,1-.62-1.78,2.247,2.247,0,0,1,.9-1.62l33.54-27.29a2.361,2.361,0,0,1,3.46.36l4.09,5.03a2.207,2.207,0,0,1,.55,1.77,2.49,2.49,0,0,1-.97,1.61l-25.08,20.41,10.98,13.49,23.4-19.04a2.526,2.526,0,0,1,1.78-.62,2.247,2.247,0,0,1,1.62.9l3.85,4.73a2.207,2.207,0,0,1,.55,1.77,2.49,2.49,0,0,1-.97,1.61l-23.4,19.04,11.35,13.95,25.69-20.9a2.4,2.4,0,0,1,1.81-.58,2.429,2.429,0,0,1,1.65.94l4.09,5.03a2.207,2.207,0,0,1,.55,1.77,2.49,2.49,0,0,1-.97,1.61l-34.15,27.79A2.308,2.308,0,0,1,956.39,1072.15Z" transform="translate(-12.919 0)" style="fill: #43aa8b"/>
    <path d="M1038.31,992.67l-61.88-24.38-.8-.42a2.023,2.023,0,0,1-.75-1.4,1.992,1.992,0,0,1,.49-1.51l5.55-6.63a2.971,2.971,0,0,1,1.78-1.13,3.436,3.436,0,0,1,1.83.19L1034,977.15l-28.15-45.23a2.952,2.952,0,0,1-.5-1.7,3.03,3.03,0,0,1,.8-2.02l5.55-6.63a2.041,2.041,0,0,1,1.37-.71,1.937,1.937,0,0,1,1.54.46l.55.72,34.87,56.63a3.6,3.6,0,0,1-.29,4.63l-6.94,8.29A3.59,3.59,0,0,1,1038.31,992.67Z" transform="translate(-12.919 0)" style="fill: #43aa8b"/>
    <path d="M1074.97,940.38q-9.69,2.79-21.27-3.9-2.475-1.41-7.16-4.31-4.77-2.94-7.14-4.53-10.9-7.2-12.82-17.39t4.91-21.22q6.825-11.04,16.81-13.93t21.32,3.64c3.3,1.89,5.73,3.31,7.29,4.28,1.5.93,3.84,2.45,7,4.56q11.115,7.44,12.95,17.36t-5.18,21.29Q1084.675,937.585,1074.97,940.38Zm9.25-31.14q-1.32-5.43-8.1-9.98c-3.27-2.18-5.5-3.63-6.67-4.35q-1.92-1.185-6.88-4.02-7.1-4.035-12.55-2.79-5.46,1.26-8.91,6.85a14.007,14.007,0,0,0-2.09,10.96q1.32,5.43,8.1,9.98c1.58,1.05,3.82,2.48,6.72,4.27,2.84,1.76,5.12,3.12,6.82,4.1q7.1,4.035,12.52,2.83t8.89-6.81Q1085.55,914.685,1084.22,909.24Z" transform="translate(-12.919 0)" style="fill: #43aa8b"/>
    <path d="M1116.3,878.87a2.279,2.279,0,0,1-1.81-.04l-58.65-25.8a2.25,2.25,0,0,1-1.3-1.32,2.371,2.371,0,0,1,.09-1.79l3.68-8.36a2.341,2.341,0,0,1,1.28-1.32,2.315,2.315,0,0,1,1.83.11l50.1,22.04,12.55-28.52a2.383,2.383,0,0,1,1.34-1.34,2.426,2.426,0,0,1,1.9.08l6.3,2.77a2.25,2.25,0,0,1,1.3,1.32,2.485,2.485,0,0,1-.13,1.88l-17.18,39.04A2.282,2.282,0,0,1,1116.3,878.87Z" transform="translate(-12.919 0)" style="fill: #43aa8b"/>
    <path d="M1142.48,813.46a2.259,2.259,0,0,1-1.8.15l-51.81-16.41-5.49,17.33a2.348,2.348,0,0,1-2.96,1.53l-6.93-2.2a2.506,2.506,0,0,1-1.49-1.14,2.261,2.261,0,0,1-.14-1.85L1087,763.09a2.419,2.419,0,0,1,1.19-1.48,2.373,2.373,0,0,1,1.89-.12l6.93,2.2a2.325,2.325,0,0,1,1.39,1.16,2.373,2.373,0,0,1,.12,1.89l-5.46,17.24,51.81,16.41a2.325,2.325,0,0,1,1.39,1.16,2.373,2.373,0,0,1,.12,1.89l-2.73,8.62A2.278,2.278,0,0,1,1142.48,813.46Z" transform="translate(-12.919 0)" style="fill: #43aa8b"/>
    <path d="M1154.83,774.19a1.928,1.928,0,0,1-1.56.37l-.84-.35-58.14-34.62a3.183,3.183,0,0,1-1.8-3.82l1.91-10.54a3.382,3.382,0,0,1,3.03-2.95l66.6-11.99a2.969,2.969,0,0,1,.89.06,2.057,2.057,0,0,1,1.35.84,1.845,1.845,0,0,1,.33,1.46l-1.53,8.41a2.913,2.913,0,0,1-.93,1.83,2.624,2.624,0,0,1-1.42.64l-12.62,2.4-5.21,28.72,10.97,6.68a2.86,2.86,0,0,1,1.33,3.14l-1.53,8.41A2.036,2.036,0,0,1,1154.83,774.19Zm-16.46-46.88-31.88,5.6,27.9,16.35Z" transform="translate(-12.919 0)" style="fill: #43aa8b"/>
  </g>
  <g>
    <path d="M185.38,518.93a22.435,22.435,0,0,1-9.81,6.58,16.41,16.41,0,0,1-9.95.05,1.97,1.97,0,0,1-1.18-1.06,1.992,1.992,0,0,1-.05-1.59l2.99-8.22a3.141,3.141,0,0,1,1.04-1.56,4.591,4.591,0,0,1,1.76-.67,9.958,9.958,0,0,0,6.81-2.34q3.33-2.55,5.41-8.28,2.385-6.555,1.42-10.67a7.287,7.287,0,0,0-4.84-5.52,6.007,6.007,0,0,0-4.87.17,14.909,14.909,0,0,0-4.71,4.04c-1.62,1.96-3.81,4.94-6.6,8.95q-6.54,9.96-12.67,13.43t-14.07.59a17.249,17.249,0,0,1-8.46-6.37,20.748,20.748,0,0,1-3.51-10.79A33.756,33.756,0,0,1,126.34,482a31.619,31.619,0,0,1,7.44-12.14,23.3,23.3,0,0,1,9.77-6.02,15.7,15.7,0,0,1,9.11-.19,1.97,1.97,0,0,1,1.18,1.06,1.992,1.992,0,0,1,.05,1.59l-3.12,8.59a2.856,2.856,0,0,1-2.73,2.04,7.951,7.951,0,0,0-6.28,1.9,15.107,15.107,0,0,0-4.8,7.04q-1.875,5.175-1.01,8.83a6.728,6.728,0,0,0,4.56,5,6.558,6.558,0,0,0,4.79.07,13.138,13.138,0,0,0,4.65-3.59,84.917,84.917,0,0,0,6.2-8.15,68.531,68.531,0,0,1,8.87-11.47,18.242,18.242,0,0,1,8.42-5.05,17.1,17.1,0,0,1,9.8.94,17.785,17.785,0,0,1,9.11,7.02,21.629,21.629,0,0,1,3.34,11.67,40.15,40.15,0,0,1-2.67,14.56A38.688,38.688,0,0,1,185.38,518.93Z" transform="translate(-12.919 0)" style="fill: #43aa8b"/>
    <path d="M203.77,472.13a1.912,1.912,0,0,1-1.6-.13l-.69-.59-44.82-50.69a3.191,3.191,0,0,1-.55-4.19l5.03-9.46a3.383,3.383,0,0,1,3.79-1.88l67.08,8.88a3.1,3.1,0,0,1,.83.33,1.994,1.994,0,0,1,1.02,1.21,1.876,1.876,0,0,1-.13,1.49l-4.02,7.55a2.949,2.949,0,0,1-1.44,1.46,2.663,2.663,0,0,1-1.54.18l-12.75-1.56-13.72,25.76,8.41,9.71a2.844,2.844,0,0,1,.31,3.39l-4.02,7.55A1.974,1.974,0,0,1,203.77,472.13Zm-1.39-49.67-32.07-4.38,21.59,24.07Z" transform="translate(-12.919 0)" style="fill: #43aa8b"/>
    <path d="M246.31,398.23a2.256,2.256,0,0,1-1.76-.4l-44.44-31.28-10.46,14.87a2.34,2.34,0,0,1-3.28.57l-5.95-4.19a2.488,2.488,0,0,1-1.08-1.54,2.213,2.213,0,0,1,.43-1.8l28.85-40.99a2.348,2.348,0,0,1,3.42-.59l5.95,4.19a2.274,2.274,0,0,1,.97,1.52,2.409,2.409,0,0,1-.45,1.84L208.1,355.22l44.44,31.28a2.274,2.274,0,0,1,.97,1.52,2.375,2.375,0,0,1-.46,1.84l-5.2,7.39A2.292,2.292,0,0,1,246.31,398.23Z" transform="translate(-12.919 0)" style="fill: #43aa8b"/>
    <path d="M275.12,360.32a2.235,2.235,0,0,1-1.71-.57l-48.5-41.88a2.239,2.239,0,0,1-.85-1.64,2.366,2.366,0,0,1,.61-1.68l6.04-6.99a2.291,2.291,0,0,1,1.61-.88,2.353,2.353,0,0,1,1.72.64l48.5,41.88a2.355,2.355,0,0,1,.85,1.58,2.223,2.223,0,0,1-.6,1.75l-6.04,6.99A2.345,2.345,0,0,1,275.12,360.32Z" transform="translate(-12.919 0)" style="fill: #43aa8b"/>
    <path d="M301.86,329.38a22.409,22.409,0,0,1-11.72,1.46,16.36,16.36,0,0,1-8.91-4.43,2.019,2.019,0,0,1,.09-2.92l6.37-6a3.168,3.168,0,0,1,1.63-.93,4.6,4.6,0,0,1,1.87.19,10.027,10.027,0,0,0,7.13.98q4.125-.78,8.56-4.96,5.07-4.785,6.07-8.89a7.271,7.271,0,0,0-1.84-7.11,6.021,6.021,0,0,0-4.42-2.04,14.777,14.777,0,0,0-6.02,1.49q-3.48,1.53-9.92,5.03-10.32,5.955-17.36,6.3t-12.83-5.8a17.178,17.178,0,0,1-4.69-9.49,20.661,20.661,0,0,1,1.72-11.21,33.86,33.86,0,0,1,8.15-11.2,31.944,31.944,0,0,1,12.11-7.5,23.346,23.346,0,0,1,11.43-.98,15.777,15.777,0,0,1,8.23,3.93,1.964,1.964,0,0,1,.58,1.48,2,2,0,0,1-.67,1.44l-6.65,6.27a2.859,2.859,0,0,1-3.35.6,7.96,7.96,0,0,0-6.47-1.13,15.143,15.143,0,0,0-7.46,4.13q-4,3.78-4.88,7.43a6.752,6.752,0,0,0,1.82,6.52,6.571,6.571,0,0,0,4.25,2.21,13.146,13.146,0,0,0,5.77-1.12,84.786,84.786,0,0,0,9.21-4.49,68.222,68.222,0,0,1,13.08-6.25,18.093,18.093,0,0,1,9.79-.72,17.055,17.055,0,0,1,8.33,5.25,17.769,17.769,0,0,1,4.98,10.37,21.714,21.714,0,0,1-2.26,11.93,40.311,40.311,0,0,1-8.93,11.8A38.958,38.958,0,0,1,301.86,329.38Z" transform="translate(-12.919 0)" style="fill: #43aa8b"/>
    <path d="M345.51,291.55a2.224,2.224,0,0,1-1.53-.96l-37.35-51.94a2.484,2.484,0,0,1-.51-1.81,2.246,2.246,0,0,1,.99-1.56l34.63-24.9a2.373,2.373,0,0,1,1.84-.47,2.422,2.422,0,0,1,1.59,1.03l4.02,5.59a2.221,2.221,0,0,1,.44,1.8,2.5,2.5,0,0,1-1.06,1.55L322.96,238.3l10.9,15.16,24.02-17.27a2.373,2.373,0,0,1,1.84-.47,2.422,2.422,0,0,1,1.59,1.03l4.02,5.59a2.265,2.265,0,0,1,.45,1.8,2.5,2.5,0,0,1-1.06,1.55L340.7,262.96l14.23,19.79a2.221,2.221,0,0,1,.44,1.8,2.5,2.5,0,0,1-1.06,1.55l-7.02,5.05A2.419,2.419,0,0,1,345.51,291.55Z" transform="translate(-12.919 0)" style="fill: #43aa8b"/>
    <path d="M387.38,261.43a1.917,1.917,0,0,1-1.26-1l-.25-.87-9.17-67.05a3.188,3.188,0,0,1,1.87-3.79l9.43-5.07a3.373,3.373,0,0,1,4.19.53l50.88,44.61a3.169,3.169,0,0,1,.51.73,2,2,0,0,1,.18,1.58,1.9,1.9,0,0,1-.93,1.17l-7.53,4.05a2.945,2.945,0,0,1-2.01.41,2.6,2.6,0,0,1-1.38-.71l-9.75-8.37-25.71,13.83,1.61,12.75a2.828,2.828,0,0,1-1.63,2.99l-7.53,4.05A2.023,2.023,0,0,1,387.38,261.43Zm26.4-42.1-24.25-21.44,4.6,32Z" transform="translate(-12.919 0)" style="fill: #43aa8b"/>
    <path d="M480.27,239.6c-1.91-.28-3.03-.85-3.34-1.71a1.229,1.229,0,0,1,.07-.97l1.07-1.96a1.413,1.413,0,0,1,.75-.8,5.34,5.34,0,0,1,2.15.16,6.8,6.8,0,0,0,3.32-.37,3.785,3.785,0,0,0,2.13-1.77,3.143,3.143,0,0,0,.15-2.62,2.832,2.832,0,0,0-1.74-1.77,3.847,3.847,0,0,0-2.75.06,8.565,8.565,0,0,0-2.08,1.18,8.266,8.266,0,0,1-1.62,1.01,1.713,1.713,0,0,1-1.49-.08l-2.27-1.06a1.713,1.713,0,0,1-.74-.88,4.635,4.635,0,0,1-.12-2.05l.27-5.01q-10.725,2.445-18.58-1.92-7.86-4.35-12.19-14.81c-.67-1.64-1.68-4.34-3.05-8.09q-2.085-5.73-2.93-8.35-3.84-11.985.82-21.16t17.22-13.75a36.047,36.047,0,0,1,15.34-2.39,23.972,23.972,0,0,1,12.21,4.24,21.323,21.323,0,0,1,7.49,9.67l.07.18a1.675,1.675,0,0,1-.15,1.47,2.132,2.132,0,0,1-1.15.99l-8.77,3.19a2.663,2.663,0,0,1-1.83.14,3.779,3.779,0,0,1-1.56-1.42q-3.6-5.28-7.87-6.39t-10,.97q-13.29,4.845-8.44,19.91c.54,1.69,1.44,4.25,2.7,7.7s2.24,6.05,2.95,7.82q5.97,14.67,19.26,9.83,5.73-2.085,8.32-5.75t1.89-9.89a3.084,3.084,0,0,1,.24-2.07,2.952,2.952,0,0,1,1.54-1.08l8.77-3.19a2.187,2.187,0,0,1,1.63.03,1.646,1.646,0,0,1,1.01,1.2,21.342,21.342,0,0,1,.47,12.22,23.969,23.969,0,0,1-6.63,11.09,36.043,36.043,0,0,1-13.29,8.03l-.49,4.68a6.422,6.422,0,0,1,1.31-1,8.995,8.995,0,0,1,1.59-.79,7.211,7.211,0,0,1,6.01.27,9.425,9.425,0,0,1,3.88,11.66,9.059,9.059,0,0,1-5.51,4.67A12.418,12.418,0,0,1,480.27,239.6Z" transform="translate(-12.919 0)" style="fill: #43aa8b"/>
    <path d="M513.77,205.66a1.92,1.92,0,0,1-.92-1.31l.01-.91,10.4-66.86a3.192,3.192,0,0,1,2.87-3.1l10.49-2.16a3.377,3.377,0,0,1,3.86,1.71l35.99,57.3a3.086,3.086,0,0,1,.28.85,1.967,1.967,0,0,1-.28,1.56,1.945,1.945,0,0,1-1.23.86l-8.37,1.73a2.938,2.938,0,0,1-2.04-.18,2.643,2.643,0,0,1-1.12-1.07l-6.94-10.81-28.59,5.89-2.1,12.68a2.832,2.832,0,0,1-2.41,2.4l-8.37,1.73A2.217,2.217,0,0,1,513.77,205.66Zm18.83-78.59a20.207,20.207,0,0,1-3.34-.87q-.21-.06-1.59-.42a5.563,5.563,0,0,0-2.54-.13,2.173,2.173,0,0,0-1.27.66,6.477,6.477,0,0,0-.82,1.37,4.19,4.19,0,0,1-.65,1.24,1.8,1.8,0,0,1-1,.51l-4.43.91a1.621,1.621,0,0,1-1.25-.24,1.586,1.586,0,0,1-.72-1.06,12.113,12.113,0,0,1,.1-4.89,11.053,11.053,0,0,1,2.36-4.85,8.294,8.294,0,0,1,4.89-2.81,9.315,9.315,0,0,1,3.23-.16,28.1,28.1,0,0,1,3.43.8,19.555,19.555,0,0,0,2.39.66,4.814,4.814,0,0,0,1.85-.03,2.214,2.214,0,0,0,1.31-.72,4.9,4.9,0,0,0,.76-1.41,6.491,6.491,0,0,1,.66-1.19,1.557,1.557,0,0,1,.99-.55l4.43-.91a1.493,1.493,0,0,1,1.31.28,1.888,1.888,0,0,1,.68,1.11,11.686,11.686,0,0,1-.16,4.85,11.351,11.351,0,0,1-2.4,4.91,8.324,8.324,0,0,1-4.89,2.81A9.279,9.279,0,0,1,532.6,127.07Zm18.51,45.81-17.1-27.48-4.75,31.98Z" transform="translate(-12.919 0)" style="fill: #43aa8b"/>
    <path d="M592.73,186.18q-7.86-6.33-9.03-19.65c-.18-1.89-.37-4.67-.59-8.33q-.33-5.595-.4-8.44-.375-13.065,6.87-20.49t20.19-8.18q12.945-.765,21.06,5.75t9.27,19.54q.525,5.685.69,8.43.15,2.655.29,8.35.285,13.38-6.77,20.58t-20.4,7.99Q600.605,192.51,592.73,186.18Zm30.8-10.33q3.69-4.2,3.51-12.36-.15-5.9-.27-7.96c-.09-1.5-.31-4.15-.66-7.93q-.765-8.13-4.93-11.87c-2.77-2.5-6.35-3.61-10.73-3.36a13.981,13.981,0,0,0-10.17,4.58q-3.69,4.2-3.51,12.36c.04,1.9.17,4.55.37,7.95.2,3.34.38,5.98.56,7.94q.78,8.13,4.88,11.87t10.68,3.36Q619.845,180.055,623.53,175.85Z" transform="translate(-12.919 0)" style="fill: #43aa8b"/>
    <path d="M691.24,185.88q-6.45-7.98-5.16-20.4c.2-1.89.61-4.91,1.2-9.06s1.06-7.16,1.4-9.03q2.22-11.985,10.74-17.77t21.66-3.89a36.424,36.424,0,0,1,14.94,5.22,25.074,25.074,0,0,1,8.65,8.94,16.545,16.545,0,0,1,2.22,9.4l-.03.19a1.712,1.712,0,0,1-.77,1.23,2.125,2.125,0,0,1-1.54.33l-10.02-1.44a2.57,2.57,0,0,1-1.41-.55,2.845,2.845,0,0,1-.7-1.34,14.044,14.044,0,0,0-3.88-6.86c-2.02-2.04-5.05-3.36-9.06-3.93q-6.81-.975-11.18,2.17t-5.77,10.79q-.51,2.805-1.33,8.55-.81,5.64-1.13,8.57-1.635,15.555,12.76,17.62,6.915.99,11.63-2.15t5.78-10.54l.43-3.02L718.8,167.2a2.2,2.2,0,0,1-1.6-.93,2.485,2.485,0,0,1-.38-1.84l.74-5.16a2.51,2.51,0,0,1,.88-1.66,2.263,2.263,0,0,1,1.8-.44l23.25,3.34a2.2,2.2,0,0,1,1.6.93,2.485,2.485,0,0,1,.38,1.84L744,173.5a27.306,27.306,0,0,1-5.57,13.55,23.531,23.531,0,0,1-11.49,7.73,35.339,35.339,0,0,1-15.93.99Q697.69,193.85,691.24,185.88Z" transform="translate(-12.919 0)" style="fill: #43aa8b"/>
    <path d="M748.39,199.95a1.893,1.893,0,0,1-.19-1.59l.44-.79,40.74-54.03a3.2,3.2,0,0,1,4-1.38l10.27,3.05a3.382,3.382,0,0,1,2.6,3.33l4.67,67.51a2.685,2.685,0,0,1-.16.88,2.04,2.04,0,0,1-.98,1.25,1.911,1.911,0,0,1-1.49.17l-8.2-2.43a2.959,2.959,0,0,1-1.72-1.12,2.617,2.617,0,0,1-.48-1.48l-1.02-12.81-27.98-8.3-7.84,10.18a2.853,2.853,0,0,1-3.26.98l-8.2-2.43A2.08,2.08,0,0,1,748.39,199.95Zm48.39-11.26-2.1-32.3-19.29,25.95Z" transform="translate(-12.919 0)" style="fill: #43aa8b"/>
    <path d="M821.82,223.19a2.256,2.256,0,0,1,.08-1.8l26.95-58.03a2.509,2.509,0,0,1,1.32-1.34,2.234,2.234,0,0,1,1.85.1l23.09,10.72q10.875,5.055,14.71,13.01t-.51,17.32a20.065,20.065,0,0,1-8.24,9.45,19.431,19.431,0,0,1-11.74,2.3l2.46,28.77a2.484,2.484,0,0,1-.19,1.11,1.956,1.956,0,0,1-1.2,1.07,1.993,1.993,0,0,1-1.54-.07l-8.11-3.77a3.683,3.683,0,0,1-1.89-1.64,6.4,6.4,0,0,1-.55-2.42l-1.69-26.46-12.39-5.75-9.93,21.39a2.371,2.371,0,0,1-1.28,1.25,2.234,2.234,0,0,1-1.85-.1l-8.11-3.77A2.3,2.3,0,0,1,821.82,223.19Zm39.65-21.68c3.56,1.66,6.63,2.1,9.18,1.34s4.54-2.66,5.95-5.69,1.59-5.8.55-8.3-3.34-4.59-6.91-6.24l-12.57-5.84-8.78,18.9Z" transform="translate(-12.919 0)" style="fill: #43aa8b"/>
    <path d="M878.23,249.96a1.928,1.928,0,0,1,.27-1.58l.65-.63,54.56-40.03a3.18,3.18,0,0,1,4.22-.17l8.96,5.87a3.39,3.39,0,0,1,1.53,3.94l-14.94,66a3.048,3.048,0,0,1-.4.79,2,2,0,0,1-1.3.91,1.883,1.883,0,0,1-1.47-.26l-7.15-4.69a2.962,2.962,0,0,1-1.32-1.57,2.661,2.661,0,0,1-.04-1.55l2.71-12.56-24.41-16-10.44,7.49a2.865,2.865,0,0,1-3.41,0l-7.15-4.69A2.048,2.048,0,0,1,878.23,249.96Zm49.59,3.13,7.28-31.54-25.94,19.31Z" transform="translate(-12.919 0)" style="fill: #43aa8b"/>
    <path d="M941.93,293.26a2.223,2.223,0,0,1,.6-1.7l42.59-47.74a2.5,2.5,0,0,1,1.65-.9,2.23,2.23,0,0,1,1.74.63l5.65,5.04a2.94,2.94,0,0,1,1.03,1.51,5.022,5.022,0,0,1,.05,1.56l-8.19,51.7,28.72-32.2a2.443,2.443,0,0,1,1.65-.89,2.23,2.23,0,0,1,1.74.63l6.16,5.49a2.364,2.364,0,0,1,.2,3.47L983,327.53a2.37,2.37,0,0,1-1.69.86,2.223,2.223,0,0,1-1.7-.6l-5.72-5.1a3.475,3.475,0,0,1-1.08-3.07l7.61-50.9-28.13,31.54a2.254,2.254,0,0,1-1.66.83,2.473,2.473,0,0,1-1.74-.7l-6.16-5.49A2.327,2.327,0,0,1,941.93,293.26Z" transform="translate(-12.919 0)" style="fill: #43aa8b"/>
    <path d="M1004.42,354.08a2.238,2.238,0,0,1,.83-1.6l41.45-35.15-11.76-13.87a2.3,2.3,0,0,1-.56-1.72,2.238,2.238,0,0,1,.83-1.6l5.55-4.7a2.478,2.478,0,0,1,1.76-.66,2.264,2.264,0,0,1,1.64.87l32.42,38.23a2.357,2.357,0,0,1-.28,3.46l-5.55,4.7a2.317,2.317,0,0,1-1.72.56,2.379,2.379,0,0,1-1.67-.9l-11.69-13.79-41.45,35.15a2.3,2.3,0,0,1-1.72.56,2.379,2.379,0,0,1-1.67-.9l-5.85-6.9A2.335,2.335,0,0,1,1004.42,354.08Z" transform="translate(-12.919 0)" style="fill: #43aa8b"/>
    <path d="M1033.9,391.54a2.3,2.3,0,0,1,.98-1.52l52.74-36.4a2.213,2.213,0,0,1,1.81-.41,2.326,2.326,0,0,1,1.47,1.01l5.25,7.6a2.2,2.2,0,0,1-.6,3.28l-52.73,36.4a2.379,2.379,0,0,1-1.74.42,2.231,2.231,0,0,1-1.54-1.02l-5.25-7.6A2.212,2.212,0,0,1,1033.9,391.54Z" transform="translate(-12.919 0)" style="fill: #43aa8b"/>
    <path d="M1052.39,418.32a2.274,2.274,0,0,1,1.14-1.4l56.3-30.39a2.489,2.489,0,0,1,1.86-.28,2.236,2.236,0,0,1,1.42,1.19l11.39,21.1q13.725,25.425-9.52,38.64-4.92,2.88-6.65,3.81c-1.09.59-3.35,1.73-6.75,3.42q-12.3,6.195-21.36,3.15-9.06-3.03-16.02-15.92l-11.62-21.53A2.244,2.244,0,0,1,1052.39,418.32Zm21.52,17.53q3.915,7.26,8.89,8.71t12.5-2.39q5.28-2.625,6.58-3.33,1.38-.75,6.31-3.63,6.99-4,8.53-9.24t-2.39-12.5l-5.79-10.72-40.65,21.94Z" transform="translate(-12.919 0)" style="fill: #43aa8b"/>
    <path d="M1082.35,474.92a1.879,1.879,0,0,1,1.17-1.1l.9-.12,67.67.6a3.18,3.18,0,0,1,3.48,2.39l3.66,10.07a3.386,3.386,0,0,1-1.13,4.07l-51.48,43.92a3.074,3.074,0,0,1-.8.4,2.037,2.037,0,0,1-1.59-.05,1.88,1.88,0,0,1-1.02-1.09l-2.92-8.04a2.961,2.961,0,0,1-.12-2.05,2.617,2.617,0,0,1,.9-1.27l9.69-8.44-9.97-27.43-12.85-.24a2.856,2.856,0,0,1-2.73-2.04l-2.92-8.04A2.063,2.063,0,0,1,1082.35,474.92Zm37.85,32.2,24.71-20.9-32.33-.06Z" transform="translate(-12.919 0)" style="fill: #43aa8b"/>
  </g>
  <g>
    <g>
      <path d="M489.27,669.68q-21.78-9.975-32.09-24.72t-10.97-29.47a6.393,6.393,0,0,1,2.13-4.91,7.218,7.218,0,0,1,5.07-1.96h45.18a11.427,11.427,0,0,1,6.22,1.47,14.243,14.243,0,0,1,4.26,4.75q6.21,16.05,34.38,16.04,16.035,0,24.88-7.53t8.84-20.3q0-24.555-32.74-24.56H507.76a8.4,8.4,0,0,1-8.52-8.52V550.65q0-7.53,5.57-11.13l52.71-43.22H467.16a8.39,8.39,0,0,1-8.18-8.19V455.7a8.545,8.545,0,0,1,2.29-6.06,7.676,7.676,0,0,1,5.89-2.46H619.73a7.691,7.691,0,0,1,5.89,2.46,8.589,8.589,0,0,1,2.29,6.06v29.14a12.756,12.756,0,0,1-5.24,10.8l-48.46,44.2,2.29.66q29.46,4.26,46.82,20.3t17.35,46.16q0,21.945-12.6,38.47-12.615,16.53-34.7,25.37t-50.26,8.84Q511.04,679.67,489.27,669.68Z" transform="translate(-12.919 0)" style="fill: #fff"/>
      <path d="M696.67,655.76q-23.565-23.58-25.86-62.21-.66-17.685-.66-31.76,0-14.4.66-32.74,1.305-24.555,12.28-43.71t31.76-30.28q20.79-11.13,50.58-11.13t50.75,11.13q20.94,11.13,31.92,30.28,10.965,19.155,12.28,43.71.645,9.165.66,32.74,0,22.92-.66,31.76-2.295,38.64-25.87,62.21t-69.08,23.9Q720.235,679.33,696.67,655.76Zm91.67-35.52q7.53-9.99,8.18-28.32.66-9.495.66-30.78t-.66-30.12q-.66-17.685-8.18-27.99t-22.92-10.31q-29.46,0-31.1,38.31-.33,8.835-.33,30.12t.33,30.78q1.635,38.31,31.1,38.31Q780.81,630.225,788.34,620.24Z" transform="translate(-12.919 0)" style="fill: #fff"/>
    </g>
    <g>
      <path d="M440.27,852.77a4.43,4.43,0,0,1-1.3-3.29V719.23a4.693,4.693,0,0,1,1.3-3.49,4.469,4.469,0,0,1,3.29-1.3h45.28q30.12,0,43.48,13.46t13.96,40.59q.195,5.79.2,15.56t-.2,15.76q-.6,18.96-6.28,30.82a36.6,36.6,0,0,1-17.85,17.65q-12.165,5.79-32.31,5.79H443.56A4.446,4.446,0,0,1,440.27,852.77Zm48.57-15.65q13.77,0,21.84-3.79a23.385,23.385,0,0,0,11.77-12.07q3.69-8.28,4.09-22.24.39-11.97.4-14.96,0-3.195-.4-14.76-.4-19.755-9.38-28.82t-29.32-9.08H458.52V837.12Z" transform="translate(-12.919 0)" style="fill: #fff"/>
      <path d="M577.71,852.77a4.43,4.43,0,0,1-1.3-3.29V719.03a4.447,4.447,0,0,1,4.59-4.59h10.57a4.43,4.43,0,0,1,3.29,1.3,4.485,4.485,0,0,1,1.3,3.29V849.48a4.447,4.447,0,0,1-4.59,4.59H581A4.43,4.43,0,0,1,577.71,852.77Z" transform="translate(-12.919 0)" style="fill: #fff"/>
      <path d="M618.7,852.87a3.81,3.81,0,0,1-1.2-2.79,8.223,8.223,0,0,1,.2-2.2l49.47-129.06a6.211,6.211,0,0,1,6.38-4.39h13.57a6.211,6.211,0,0,1,6.38,4.39l49.27,129.06.4,2.2a4.1,4.1,0,0,1-3.99,3.99H729.01a4.788,4.788,0,0,1-3.39-1.1,5.487,5.487,0,0,1-1.59-2.29l-10.97-28.32H647.64l-10.97,28.32a5.246,5.246,0,0,1-1.7,2.29,4.934,4.934,0,0,1-3.29,1.1H621.51A3.822,3.822,0,0,1,618.7,852.87Zm88.56-47.67-26.93-70.81L653.4,805.2Z" transform="translate(-12.919 0)" style="fill: #fff"/>
      <path d="M778.77,850.88q-12.075-5.175-18.45-13.66a31.921,31.921,0,0,1-6.78-18.25,4,4,0,0,1,1.3-2.89,4.241,4.241,0,0,1,3.09-1.3H768.1q3.78,0,5.18,3.99,1.8,8.385,10.27,14.36t23.84,5.99q16.56,0,24.93-5.88t8.38-16.46a15.017,15.017,0,0,0-4.09-10.97q-4.1-4.185-12.07-7.38t-23.94-7.98q-15.555-4.38-24.73-9.38-9.18-4.98-13.76-12.37t-4.59-18.55a33.433,33.433,0,0,1,5.88-19.35q5.88-8.58,16.86-13.46t26.13-4.89q15.555,0,26.73,5.49t16.96,13.86q5.79,8.385,6.18,16.76a4.016,4.016,0,0,1-1.1,2.79,3.971,3.971,0,0,1-3.09,1.2H841.5q-4.185,0-5.19-3.79-1.2-8.385-9.38-13.86t-20.54-5.49q-13.575,0-21.34,5.19-7.785,5.19-7.78,15.36a16.753,16.753,0,0,0,3.69,11.17q3.69,4.38,11.27,7.68a191.122,191.122,0,0,0,22.14,7.48q16.95,4.59,26.73,9.48t14.56,12.17q4.785,7.29,4.79,18.45,0,18.555-14.36,29.12t-38.7,10.57Q790.845,856.05,778.77,850.88Z" transform="translate(-12.919 0)" style="fill: #fff"/>
    </g>
  </g>
  <polygon points="138.121 619.99 125.061 626.86 127.551 612.31 116.991 602.01 131.591 599.89 138.121 586.65 144.661 599.89 159.261 602.01 148.691 612.31 151.191 626.86 138.121 619.99" style="fill: #43aa8b"/>
  <polygon points="1131.141 617.95 1117.191 625.29 1119.851 609.75 1108.561 598.75 1124.161 596.48 1131.141 582.34 1138.111 596.48 1153.711 598.75 1142.431 609.75 1145.091 625.29 1131.141 617.95" style="fill: #43aa8b"/>
</svg>
