<svg id="Layer_1" data-name="Layer 1" xmlns="http://www.w3.org/2000/svg" xmlns:xlink="http://www.w3.org/1999/xlink" viewBox="0 0 382.96 390"><defs><style>.cls-1{fill:#46b1c9;}.cls-2{opacity:0.08;}.cls-3{fill:#e5a89c;}.cls-4{fill:#dda094;}.cls-5{fill:#f2c4b6;}.cls-10,.cls-14,.cls-6{fill:#fff;}.cls-6{opacity:0.43;}.cls-7{fill:#616161;}.cls-8{fill:url(#Áåçûìÿííûé_ãðàäèåíò_12);}.cls-9{fill:url(#Áåçûìÿííûé_ãðàäèåíò_12-2);}.cls-11{fill:none;}.cls-12{fill:url(#Áåçûìÿííûé_ãðàäèåíò_12-3);}.cls-13{fill:url(#Áåçûìÿííûé_ãðàäèåíò_12-4);}.cls-14{opacity:0.48;}.cls-15{fill:#fcdbcd;}.cls-16{fill:#707078;}.cls-17{fill:#f93;}.cls-18{fill:#43aa8b;}.cls-19{fill:#8f8f99;}</style><linearGradient id="Áåçûìÿííûé_ãðàäèåíò_12" x1="-479.53" y1="539.04" x2="-474.13" y2="539.04" gradientTransform="matrix(-0.99, 0.16, 0.16, 0.99, -323.14, -375.04)" gradientUnits="userSpaceOnUse"><stop offset="0"/><stop offset="0.27" stop-color="#1b1b1b"/><stop offset="0.86" stop-color="#5f5f5f"/><stop offset="1" stop-color="#707070"/></linearGradient><linearGradient id="Áåçûìÿííûé_ãðàäèåíò_12-2" x1="-479.57" y1="516.04" x2="-474.17" y2="516.04" xlink:href="#Áåçûìÿííûé_ãðàäèåíò_12"/><linearGradient id="Áåçûìÿííûé_ãðàäèåíò_12-3" x1="3750.45" y1="-170.26" x2="3750.45" y2="97.51" gradientTransform="matrix(-1, 0.07, 0.07, 1, 3915.43, -93.67)" xlink:href="#Áåçûìÿííûé_ãðàäèåíò_12"/><linearGradient id="Áåçûìÿííûé_ãðàäèåíò_12-4" x1="3808.85" y1="96.53" x2="3691.35" y2="-170.86" gradientTransform="matrix(-1, 0.07, 0.07, 1, 3915.43, -93.67)" xlink:href="#Áåçûìÿííûé_ãðàäèåíò_12"/></defs><circle class="cls-1" cx="191.48" cy="198.52" r="191.48"/><path class="cls-2" d="M284.79,208.74q-.12-.92-.33-1.83a17.23,17.23,0,0,0-7.75-11.1h0l-.06,0h0c-.22-.13-.44-.26-.67-.37l-.23-.11-.24-.11-.33-.15L275,195l-.62-.23a11.19,11.19,0,0,0-1.81-.47,10.84,10.84,0,0,0-4.6.16,11.28,11.28,0,0,0-5.1,2.83c-.07.05-.13.12-.2.18a14,14,0,0,0-2.82,4.06L257.68,188l-.33-2a17.76,17.76,0,0,0,7.08-1.71l.65-.3h0q.6-.28,1.2-.63l.67-.4a26.38,26.38,0,0,0,3.39-2.48c.6-.51,1.2-1.07,1.77-1.65a45.38,45.38,0,0,0,4.19-4.89l.13-.18a24.14,24.14,0,0,0,3.27-6.06c2.4-5.13,2.38-10.37-1.78-15.35l-.11-.14-.12-.14a19.12,19.12,0,0,0-4.24-3.77h0a11.57,11.57,0,0,0-1.14-.61h0a3.52,3.52,0,0,0-.4-.18,8.34,8.34,0,0,0-1.27-.44,8.83,8.83,0,0,0-5.58.41c-3.53,1.35-7,4.57-10.61,8.27l-.31.33-.17.19c-.41.43-.81.88-1.17,1.34l-1.25-7.81a36.15,36.15,0,0,0,5.19-2.87,56.11,56.11,0,0,0,7.32-5.67c.51-.48,1-1,1.46-1.45.2-.21.4-.42.59-.64l.1-.1c.19-.21.37-.42.55-.64s.45-.55.67-.82a20.08,20.08,0,0,0,2.14-3.35,13.62,13.62,0,0,0,1.14-2.06,1.19,1.19,0,0,1,.08-.16c.16-.37.3-.74.43-1.13a18,18,0,0,0,.94-5.54,22.58,22.58,0,0,0-2.05-11.87,25.66,25.66,0,0,0-1.24-2.33l-.09-.13a20.28,20.28,0,0,0-5.18-5.73h0c-.31-.24-.62-.45-.94-.66s-.56-.35-.85-.51-.69-.37-1-.53a14.4,14.4,0,0,0-2.9-1,11,11,0,0,0-5.31.13h0q-.37.1-.75.24a9,9,0,0,0-1.27.57,11.81,11.81,0,0,0-5.39,6.27l-.89-5.52-.3-1.91,7.79-8.69.45-.51h0l.65-.73,0,0,.14-.15.37-.41h0l2.34-2.6,8-8.91a14.94,14.94,0,0,0,3.75-9,15.52,15.52,0,0,0-.05-2.55l0-.15a14.68,14.68,0,0,0-3.3-7.83c0-.07-.1-.13-.15-.2A13.92,13.92,0,0,0,259.63,57h0c-.14-.08-.29-.15-.44-.22h0c-.36-.17-.74-.33-1.11-.47l-.62-.2a13.11,13.11,0,0,0-11.18,1.59l-8.58,5.58-2.14-13.39-.4-2.5-.57-3.59-3.06-19.05a23,23,0,0,0-8.09-14.25A19.19,19.19,0,0,0,221.26,9L221,8.81l-.2-.11a19.54,19.54,0,0,0-5.65-2.23h0a18.48,18.48,0,0,0-7.08-.2l-2.86.47h0l-96,15.72a19.18,19.18,0,0,0-1.89.4,18.12,18.12,0,0,0-2.89,1.05h0l-.09,0-.14.06h0l-.14.08h0a19.41,19.41,0,0,0-4.07,2.69,0,0,0,0,0,0,0l-.14.12h0l0,0-.06.05a20.28,20.28,0,0,0-1.79,1.8l-.15.17a22.11,22.11,0,0,0-4.23,7.65,23.7,23.7,0,0,0-.79,10.88L94.18,57l3.28,20.47,1.41,8.78-.12-.12c-.28-.28-.56-.55-.86-.82h0l-.32-.3h0A10.19,10.19,0,0,0,96,83.81s0,0,0,0h0l-.14-.08-.21-.12-.37-.2c-.32-.16-.65-.31-1-.45A16,16,0,0,0,92,82.23h0c-.44-.1-.88-.19-1.32-.25a17.64,17.64,0,0,0-2-.18h0a12.57,12.57,0,0,0-3.32.29l-.26.06h0a5.63,5.63,0,0,0-1.45-.49.82.82,0,0,0-.92.83c-.16,5-.27,9.51-.42,14,0,.78-.05,1.56-.08,2.34a.86.86,0,0,0,0,.16c-.11,3.22-.26,6.47-.47,9.94,0,1-.12,2-.19,3.1a0,0,0,0,1,0,0l-.09.5c-.44,2.54-.93,5.21-1.47,8a1,1,0,0,0,0,.17c-1.35,6.85-3,14.31-4.83,22,0,.05,0,.11,0,.15-1.45,6-3,12.11-4.71,18.12-.38,1.34-.76,2.68-1.15,4a1.13,1.13,0,0,1,0,.15c-.39,1.38-.8,2.74-1.2,4.11-.15.51-.3,1-.46,1.53s-.31,1-.47,1.53c-.22.76-.46,1.52-.7,2.27-.15.49-.31,1-.47,1.5s-.32,1-.47,1.48L64.91,179c-.15.49-.32,1-.48,1.46L64,181.93l-.24.72c-.48,1.43-1,2.83-1.46,4.2-.07.22-.15.43-.22.63a1.77,1.77,0,0,0-.06.17c-.4,1.1-.79,2.18-1.19,3.24l-.24.66c-1.19,3.13-2.38,6.09-3.57,8.8-.46,1-.92,2-1.38,3q-.24.49-.45,1c-.14.34-.27.69-.4,1.05h0c-.18.53-.35,1.07-.5,1.62-.06.17-.1.36-.15.54-.18.74-.34,1.48-.47,2.24,0,.12,0,.23-.06.36a.78.78,0,0,0,0,.16,47.56,47.56,0,0,0-.2,11.06c.17,1.92.33,3.71.5,5.4s.31,3.14.46,4.58v.15c.91,8.68,1.72,14.44,2.32,20.8,0,0,0,.1,0,.15.27,2.86.5,5.86.68,9.31s.31,7.16.38,11.69c0,.05,0,.1,0,.15,0,.51,0,1,0,1.53h0c0,.39,0,.77,0,1.16a39.1,39.1,0,0,1-1.6,10.55c-.16.56-.34,1.11-.53,1.66-.12.35-.24.7-.37,1-.06.15-.11.3-.17.44q-.16.44-.36.87c-.1.26-.22.52-.32.77q-.34.76-.72,1.5c-.36.73-.75,1.45-1.16,2.14l-.25.41-.1.16c0,.07-.07.13-.1.19l-.45.69a34.77,34.77,0,0,1-2.45,3.33L38,312.72c.55.8,1.11,1.59,1.68,2.38q2.52,3.5,5.19,6.85,3.27,4.11,6.77,8c1,1.15,2.07,2.27,3.12,3.39q2,2.09,4,4.11A173,173,0,0,0,136.48,382l.86.22.48.13h0l.1,0,.13,0q4.08,1,8.22,1.86l2.69.52a36.8,36.8,0,0,1,8.74-10.54c1.68-1.39,3.4-2.86,5.14-4.38,2.3-2,4.63-4.11,7-6.28.73-.66,1.47-1.35,2.19-2a1.8,1.8,0,0,0,.2-.19c1.89-1.77,3.78-3.58,5.66-5.4l-.23.11,2.37-2a215.5,215.5,0,0,0,17.08-16.23c.62-.67,1.21-1.33,1.79-2l.16-.18,1-1.21c4.43-5.23,8.57-12.09,13-19.69.55-.93,1.1-1.89,1.66-2.85,0-.05.06-.11.11-.17s.23-.41.36-.62c1.61-2.76,3.27-5.59,5-8.46,2.63-4.31,5.43-8.7,8.51-13l1.08-1.51A1.83,1.83,0,0,0,230,288c1.37-1.89,2.8-3.77,4.29-5.62l12.67-2.21,4.84-.85a19.55,19.55,0,0,0,13.27-9,22.61,22.61,0,0,0,3.39-9.83.77.77,0,0,0,0-.15,23.86,23.86,0,0,0-.18-6.13l-2.77-17.28a36.53,36.53,0,0,0,8.73-6.65c.69-.71,1.36-1.41,2-2.13.51-.56,1-1.11,1.47-1.68q.44-.51.84-1c1-1.16,1.92-2.32,2.77-3.49a14.12,14.12,0,0,0,2.09-3.3,17.1,17.1,0,0,0,1.14-3.39s0-.05,0-.07a.94.94,0,0,1,0-.16,19.34,19.34,0,0,0,.36-3.18A12.35,12.35,0,0,0,284.79,208.74ZM106.38,149.28c.14-2.36.26-4.72.33-7.09l0-.87c0-.23,0-.47,0-.7h0c0-.55,0-1.1,0-1.65a.9.9,0,0,0,.08-.23s0,0,0,0c.09-.3.18-.59.26-.88l1.28,8L111,162.08l-.64,1.13h0l-.23.4-4,7.07h0l-1,1.76-.14.25c0-.29,0-.59,0-.89.09-1.7.22-3.48.38-5.61h0c.07-.79.13-1.62.21-2.52,0-.29.11-2,.24-4.53V159c.1-2,.23-4.51.35-7.09.06-.87.11-1.75.17-2.62Z"/><path class="cls-3" d="M247.14,197c.7-.7,1.4-1.38,2.09-2.05l.54-.52c.67-.63,1.33-1.25,2-1.84,4.59-4.12,8.94-7,13.27-6.91,2.89.08,5.77,1.51,8.69,4.81a12.56,12.56,0,0,1,3.11,6.12,11.89,11.89,0,0,1,.16,3.1,17,17,0,0,1-1.28,5.13,30.17,30.17,0,0,1-3.36,5.91A51.44,51.44,0,0,1,268,216c-.66.72-1.35,1.43-2.06,2.14a37.92,37.92,0,0,1-9,6.69c-7.07,3.72-14,3.91-17.6-.18C234.15,218.84,237.64,206.44,247.14,197Z"/><polygon class="cls-4" points="75.86 201.49 116.11 228.36 152.2 166.61 111.95 139.74 75.86 201.49"/><path class="cls-4" d="M253,207.33l.89,5.59a14.73,14.73,0,0,0,12.56,2.89,14,14,0,0,0,2.48-.87,63.53,63.53,0,0,0,5.16-6.27,14,14,0,0,1-6.35,3.52C262.38,213.52,256.93,211.49,253,207.33Z"/><path class="cls-3" d="M233.87,110.13l.77-.49.69-.44c.55-.35,1.09-.7,1.64-1,9.79-6,18.16-9.18,24.27,1.26a12.32,12.32,0,0,1,.28,12.65A22.6,22.6,0,0,1,258,127a51,51,0,0,1-9.65,7.8,37.83,37.83,0,0,1-6.53,3.41c-9,3.64-17.61,2.78-20.83-2.71C217,128.7,222.75,117.33,233.87,110.13Z"/><path class="cls-4" d="M238.58,118.22l.56,3.54c4.69,6.27,11.94,8.92,17.68,5.94A10.08,10.08,0,0,0,258,127a22.6,22.6,0,0,0,3.56-4.93,11.44,11.44,0,0,1-4.16,3.72C251.15,129,243.16,125.65,238.58,118.22Z"/><path class="cls-5" d="M238,45.65a13.85,13.85,0,0,1,18.11,2.73l.16.2a14.67,14.67,0,0,1,3.41,10.52,14.83,14.83,0,0,1-3.88,9.07L234.67,91.08l-12.36-32.7c-.29-.74-.56-1.48-.85-2.22Z"/><path class="cls-6" d="M221.46,56.16c.29.74.56,1.48.85,2.22l15.7-10a13.85,13.85,0,0,1,18.11,2.73l.16.2a14.54,14.54,0,0,1,3.35,7.8,14.67,14.67,0,0,0-3.41-10.52l-.16-.2A13.85,13.85,0,0,0,238,45.65Z"/><path class="cls-7" d="M93.42,77.71l-3.58.58a1.77,1.77,0,0,0-1.44,2L92.51,106a1.76,1.76,0,0,0,2,1.48l3.58-.59Z"/><path class="cls-8" d="M232.37,89.37l4-.66a1.33,1.33,0,0,0,1.08-1.52l-2.18-13.61a1.32,1.32,0,0,0-1.5-1.1l-4,.66Z"/><path class="cls-9" d="M228.74,66.65l4-.66a1.32,1.32,0,0,0,1.07-1.51l-2.18-13.61a1.31,1.31,0,0,0-1.49-1.1l-4,.66Z"/><path class="cls-10" d="M91.27,43.94,125.88,260a20.66,20.66,0,0,0,23.58,17.36l86.69-14.19a20.83,20.83,0,0,0,16.95-24l-34.6-216a21.21,21.21,0,0,0-4-9.43,20.44,20.44,0,0,0-19.59-7.94l-86.68,14.2A20.83,20.83,0,0,0,91.27,43.94Z"/><path class="cls-11" d="M108.66,22.64,195.35,8.45a18,18,0,0,1,20.5,15.09l34.6,216.05a18.13,18.13,0,0,1-14.74,20.87L149,274.65a18,18,0,0,1-20.5-15.09L93.92,43.5A18.13,18.13,0,0,1,108.66,22.64Z"/><path class="cls-12" d="M91.27,43.94,125.88,260a20.66,20.66,0,0,0,23.58,17.36l86.69-14.19a20.83,20.83,0,0,0,16.95-24l-34.6-216a21.21,21.21,0,0,0-4-9.43c-.11-.14-.22-.29-.34-.43l-.24-.3c-.27-.32-.54-.63-.83-.94l-.4-.42c-.33-.32-.66-.64-1-.94l-.46-.4a21.4,21.4,0,0,0-2.71-1.92l-.39-.22q-.49-.28-1-.54c-.19-.1-.37-.19-.56-.27l-.49-.22c-.56-.23-1.12-.45-1.69-.63l-.77-.23-.09,0-.38-.1c-.62-.15-1.25-.28-1.89-.38l-.42-.06-.74-.08-.5,0a4.36,4.36,0,0,0-.51,0c-.36,0-.72,0-1.07,0h-.39l-.54,0-.59,0-.25,0-.6.06-.72.1-86.68,14.2A20.83,20.83,0,0,0,91.27,43.94Zm2.65-.44a18.13,18.13,0,0,1,14.74-20.86L195.35,8.45a17.94,17.94,0,0,1,20.06,13.06,19.25,19.25,0,0,1,.44,2l34.6,216.05a18.12,18.12,0,0,1-14.74,20.86L149,274.65a18,18,0,0,1-20.5-15.1Z"/><path class="cls-13" d="M86,44.8l34.61,216.06c2.3,14.38,15.65,24.21,29.75,21.9L237,268.57c14.1-2.31,23.7-15.89,21.4-30.28l-34.61-216C221.49,7.85,208.15-2,194.05.34L107.37,14.53C93.26,16.84,83.67,30.42,86,44.8Zm5.3-.86a20.83,20.83,0,0,1,17-24l86.68-14.2A20.67,20.67,0,0,1,218.5,23.11l34.6,216.05a20.83,20.83,0,0,1-17,24l-86.68,14.19A20.66,20.66,0,0,1,125.88,260Z"/><path class="cls-5" d="M159.38,281.23,148.87,283h0l-.88.15h0l-.1,0h-.09l-.22,0h-.05l-.33.05c-.67.1-1,.15-1.52.19a21.21,21.21,0,0,1-5.41-.28,20.81,20.81,0,0,1-3.51-1,1.82,1.82,0,0,1-.28-.11,23.75,23.75,0,0,1-3-1.53l-.62-.4-.19-.12a24.07,24.07,0,0,1-2.5-2c0-.17.09-.33.14-.5h0l.12-.5v0a.52.52,0,0,1,0-.11c.33-1.88.66-3.78,1-5.68h0c.11-.67.21-1.33.3-2s.15-1.08.22-1.61h0c.27-2,.49-4,.69-6,0-.06,0-.11,0-.16.21-2.52.35-5,.41-7.55,0-.51,0-1,0-1.57,0-.31,0-.61,0-.92a108.2,108.2,0,0,0-.68-11.08c0-.05,0-.1,0-.16a104.32,104.32,0,0,0-4.39-18.66c-.18-.53-.42-1.14-.61-1.68l-.05-.15c-.79-2-1.7-3.75-2.43-5.86,0,0,0,0,0-.07a.24.24,0,0,1,0-.07h0s0,0,0-.05v0a.52.52,0,0,1-.06-.15,39.27,39.27,0,0,0-2.51-5.14c0-.06-.08-.16-.14-.26-.8-1.5-1.64-3-2.5-4.47-.67-1.18-1.37-2.34-2.06-3.5l-.08-.15c-.52-.86-1-1.73-1.57-2.59h0c-.88-1.46-1.78-2.91-2.68-4.36a.46.46,0,0,0-.08-.13c-1.51-2.44-3-4.88-4.56-7.3h0c-1-1.61-2-3.23-3.06-4.83,0-.06-.06-.11-.09-.15-1.25-1.95-2.48-3.89-3.74-5.83,0,0,0,0,0-.05l0,0c-.06-.1-.13-.2-.2-.3a.09.09,0,0,0,0-.05l-.37-.58,0,0a3.61,3.61,0,0,1-.48-.85c-.34-2.81-.41-10.29-.35-12.05,0-.24,0-.43,0-.56a.34.34,0,0,1,0-.1h0v0h0v-.09s0,0,0,0a.16.16,0,0,0,0,0c.19-3.46.35-4.87.7-9.33,0-.51.38-6.33.54-9.47h0c0-.69.06-1.24.07-1.59,0,0,0-.18,0-.21s0-.54,0-.62a1.16,1.16,0,0,0,0-.17l0-.55a1.21,1.21,0,0,1,0-.19v-.07c.23-4.32.45-8.67.54-13,0-.16.06-.16.08-.25s0-.07,0-.13,0-.11,0-.16h0a40.36,40.36,0,0,0,1.1-4.69h0c.15-.84.28-1.68.4-2.53,0,0,0-.09,0-.16,0-.37.08-.74.12-1.11v0s0,0,0,0q.36-3.26.49-6.49v0s0,0,0,0v0h0c.09-2.13.11-4.27.07-6.45,0-.79-.07-1.6-.11-2.43h0v0c-.11-1.51-.25-3.07-.42-4.53l0-.17c0-.27-.08-.54-.13-.81v-.08c-.14-.93-.31-1.88-.51-2.83h0a49.45,49.45,0,0,0-2.57-8.49l0-.06h0c-.17-.42-.39-.86-.62-1.31h0a.54.54,0,0,0-.07-.13c-.06-.13-.13-.25-.19-.38l-.06-.1-.12-.25-.13-.23c-.09-.15-.17-.3-.25-.45l0,0a.26.26,0,0,0,0-.09h0l-.45-.79a.55.55,0,0,0-.1-.16,0,0,0,0,0,0,0,0,0,0,0,1,0,0h0c-.37-.57-.73-1.1-1.09-1.6h0c-.33-.47-.68-.92-1-1.37h0l-.49-.59a.75.75,0,0,0-.11-.13c-.58-.66-1.17-1.29-1.8-1.9a.46.46,0,0,0-.07-.07,14,14,0,0,0-1.15-1,17.48,17.48,0,0,0-2.67-1.58h0A16.06,16.06,0,0,0,80,69.55h0l-.22.07,0,0h0s0,0,0,0q-.21,4.21-.57,8.42a.71.71,0,0,1,0,.15q-.7,7.66-1.84,15.26h0a.09.09,0,0,0,0,.05h0s0,0,0,0h0a0,0,0,0,0,0,0h0s0,.05,0,.07h0a0,0,0,0,1,0,0h0a.35.35,0,0,0,0,.07v0h0a.07.07,0,0,0,0,0c0,.07,0,.15,0,.22s0,0,0,0,0,.1,0,.15l0,.15c0,.15,0,.3-.07.45L77,95l0,.18a.77.77,0,0,0,0,.15s0,0,0,0h0v0h0s0,0,0,0c0,.21,0,.25-.09.53h0s0,.06,0,.1,0,.06,0,.1v0a0,0,0,0,0,0,0,.77.77,0,0,1,0,.15l0,.14v.12a.68.68,0,0,1,0,.14v0a0,0,0,0,0,0,0,.13.13,0,0,0,0,.06l0,.17a.68.68,0,0,1,0,.14s0,0,0,0a.13.13,0,0,1,0,.06s0,0,0,.09,0,.11,0,.16l0,.17c0,.07,0,.15,0,.24l0,.17v.08s0,.06,0,.09a2.34,2.34,0,0,1,0,.3v.06a.43.43,0,0,1,0,0c0,.27-.1.57-.13.75h0s0,0,0,0h0s0,.1,0,.2h0a.43.43,0,0,0,0,.05,0,0,0,0,0,0,0,.11.11,0,0,1,0,0s0,0,0,0h0s0,0,0,0,0,0,0,0v0h0a.13.13,0,0,1,0,.06v0s0,0,0,0v0s0,0,0,.08-.06.34-.1.56,0,.14,0,.21l-.06.31c-.07.39-.17.89-.28,1.47,0,.27-.1.56-.16.85s-.16.79-.24,1.21c-.18.94-.37,1.87-.56,2.79-.15.77-.3,1.53-.47,2.3-.11.51-.21,1-.32,1.58-.17.79-.34,1.58-.5,2.37q-.83,3.78-1.69,7.54c0,.06,0,.12,0,.18s0,.12,0,.18a.35.35,0,0,1,0,.06.86.86,0,0,0,0,.13.69.69,0,0,1,0,.13h0c-.69,2.91-1.38,5.81-2.13,8.76-1.12,4.4-2.32,8.91-3.54,13.31,0,.06,0,.1,0,.16q-1.76,6.21-3.65,12.37c-.15.52-.31,1-.48,1.54s-.3.94-.48,1.55-.53,1.61-.72,2.21L60,163.54c-.18.52-.33,1-.5,1.49s-.33,1-.49,1.48a.3.3,0,0,0,0,.1.75.75,0,0,0,0,.16l-.42,1.2c-.13.41-.36,1.05-.49,1.41s-.14.42-.26.75-.25.72-.37,1.06c-.25.7-.51,1.4-.76,2.11-.12.34-.25.69-.38,1a0,0,0,0,0,0,0l0,0h0a0,0,0,0,0,0,0h0a0,0,0,0,0,0,0,4.48,4.48,0,0,1-.11.5,6.08,6.08,0,0,1-.34.93c0,.14-.11.27-.16.41-.17.4-.35.79-.48,1.06s-.21.53-.3.77c0,.08-.05.15-.08.21l-.26.67c-.08.19-.16.41-.25.61l-.24.62-.15.38-.15.36c-.13.34-.25.65-.39,1,0,0,0,0,0,0s0,0,0,0l-.14.33a.14.14,0,0,1,0,.06l-.06.12c-.11.28-.22.55-.33.8,0,0,0,0,0,0-.86,2-1.73,4-2.64,6v0l0,0s0,0,0,0a.11.11,0,0,1,0,.06h0s0,0,0,0c-.23.46-.43.89-.65,1.34-.09.18-.15.33-.24.51s-.13.32-.24.54a3.2,3.2,0,0,0-.16.35,2.24,2.24,0,0,0-.12.29,1.27,1.27,0,0,0-.11.34v0h0v0h0a1.19,1.19,0,0,1-.07.27,1.31,1.31,0,0,1-.08.21s0,.08,0,.11l-.08.19c-.08.26-.18.57-.24.8,0,.05,0,.09,0,.13a.06.06,0,0,0,0,0,.14.14,0,0,0,0,.06l0,.09s0,.07,0,.1a1,1,0,0,1,0,.14l-.14.57c-.06.24-.13.55-.19.83s-.12.55-.16.84a51.57,51.57,0,0,0-.38,11.58c.06.78.13,1.48.19,2.23,0,.06,0,.11,0,.16.46,5.24,1,10.47,1.56,15.69.18,1.71.37,3.43.56,5.14,0,.06,0,.1,0,.15.75,7,1.28,13.93,1.52,20.95,0,0,0,.08,0,.14.07,3.19.13,6.2.12,9.45a39.86,39.86,0,0,1-.32,5.06,43,43,0,0,1-1.55,7A1.77,1.77,0,0,1,49,275c-.13.4-.26.8-.41,1.2-.29.79-.61,1.57-.95,2.34-.12.27-.23.52-.35.77l-.36.76c-.13.26-.26.5-.39.75-.53,1-1.09,2-1.7,2.9-.16.25-.3.47-.47.71a36.06,36.06,0,0,1-2.59,3.37c-1.95,2.2-5.33,5.84-7,7.69s-1.92,2.11-3.06,3.34l-.06.06s0,0-.05.07l0,0-.05.06a.3.3,0,0,1-.08.08h0l-.05.07,0,0h0a.23.23,0,0,1-.05.05h0l-.43.47-.59.65c1,1.65,1.94,3.29,2.95,4.9s2.1,3.3,3.19,4.93c.54.81,1.1,1.62,1.66,2.43s1.11,1.59,1.68,2.38q2.52,3.5,5.19,6.85,3.27,4.11,6.77,8c1,1.15,2.07,2.27,3.12,3.39q2,2.09,4,4.11A173,173,0,0,0,136.48,382l.86.22,4.35-8.37c1.21-2.31,1.12-2.21,1.63-3.12a36.14,36.14,0,0,1,3.33-4.93l.08-.09s0,0,0-.06a40.41,40.41,0,0,1,5.91-5.84c3.27-2.63,8.24-6.37,12-9.33.4-.31,1.15-.9,1.74-1.38,2.29-1.81,4.68-3.74,7-5.66h0c1.09-.89,2.24-1.87,3.38-2.83.52-.43,1-.87,1.52-1.29l.23-.2c1.31-1.13,2.73-2.36,4-3.5a180.5,180.5,0,0,0,14.11-14c1.25-1.39,2.24-2.7,3.36-4.16.85-1.12,1.69-2.34,2.51-3.52a1,1,0,0,0,.12-.17c3.45-5.15,6.57-10.3,9.82-15.67,1.19-1.95,2.58-4.22,3.83-6.24.34-.55.73-1.17,1.07-1.73l.12-.17a3.16,3.16,0,0,1,.22-.35,223.28,223.28,0,0,1,14.37-20.26.05.05,0,0,0,0,0C207.91,273.29,183.6,277.28,159.38,281.23Z"/><path class="cls-3" d="M126.87,280.54c1.69-6.9,4.46-14.44,4.72-23.27.27-9.72.17-22.86-3-33.08a85.34,85.34,0,0,0-6.45-14.94c-1.93-3.48-5.35-8-6.85-10.77-3.4-6.26-11.86-19.4-17.23-20.42-3-.57-2.82.81-3.4.73-1.47-.22-3.67,0-3.3-.2.6-.36,2.11-.54,3.08-1.22A21.39,21.39,0,0,0,97,175.16a5.66,5.66,0,0,0,1.62-3c-.08-3,0-5.6,0-8.66.05-3.91.34-8.29.64-12.23.59-7.83,1.23-15.5,1.47-23.34-.55.11-4.3-2.56-3.58-2.64s1.54.28,2.35.2c.35,0,1.19,0,1.45,0s0-.15,0-.15c2.42-3,3.09-13.56,3.27-16,1.15-15.07-5.38-29.75-5.18-29.46,2.35,3.44,6.17,16.38,5.83,24.64A105.74,105.74,0,0,1,102.17,126s0,0,0,0-.06.15-.06.22c-.23,8.13-.56,16.13-1.18,24.25-.29,3.86-.68,7.79-.78,11.66-.09,3.5.33,7,.48,10.48,0,0,0,0,0,0,5.19,7.76,9.93,16,14.88,23.86s10.8,16.33,13.45,25.05a105.45,105.45,0,0,1,1.47,55.14c2.78,2.84,4.75,4.06,9,5.65,1.43.54,6.64,1.21,8.69.7-15,3-29.18,17.58-38.75,24.22C109.11,307.46,125.35,286.73,126.87,280.54Z"/><path class="cls-3" d="M173.62,343.33c-6.68,6.42-13.71,12.39-20.85,18.43a38.68,38.68,0,0,0-9.2,10.78c-1.78,3-3.73,6.36-5.72,9.82h0l-.48-.13-.86-.22c2.93-8.08,4.65-16.77,3-24.32s-4.8-9.28-9-14.41c7.35,3.22,12.16,7,20.74,7.88,7.3.73,15.5-4.29,22.2-7.72h0Z"/><path class="cls-6" d="M77.26,93.56s-.07,0,0,0,.13-.1,0-.1S77.27,93.55,77.26,93.56Z"/><path class="cls-6" d="M77.23,93.68v0s0,0,0,0Z"/><path class="cls-6" d="M77.21,93.67c.06,0,.05-.08,0-.07S77.15,93.68,77.21,93.67Z"/><path class="cls-6" d="M76.93,93.73c0,.56,0,1.14,0,1.68,0,0,0,0,0-.07.07-.38.14-.8.19-1.19,0-.11,0-.27.06-.35s0-.07,0-.1S76.93,93.7,76.93,93.73Z"/><path class="cls-14" d="M77,95.45c0,1.38-.16,2.73-.13,4.1h0s0,0,0,.06h0v.15a.71.71,0,0,0,0,.16c-.2,3.22-.62,7.35-1.11,10.31-.67,4.19-1.3,7.41-2,11.36a.76.76,0,0,1,0,.16c-1,5.14-2.08,10.2-3.2,15.35-.46,2.09-1,4.32-1.42,6.43,0,0,0,.08,0,.14l0,.16c-2,7.5-4.33,14.9-6.81,22.25,0,0,0,.11-.06.16-1.56,4.54-3.25,9.22-5,13.65-1.2,3.1-2.38,5.91-3.68,8.91a.61.61,0,0,0-.07.14c-1,2.31-1.48,2.95-2.63,5.6-1.91,4.39-1.18,11.1-.59,16.1,0,0,0,.09,0,.16.57,5.28,1.26,10.55,2,15.82.23,1.64.46,3.28.67,4.92l0,.15c.14,1.06.33,2.44.47,3.43.81,5.83,1.6,11.51,2.47,17.28l0,.14c.49,3.1,1,6.18,1.55,9.25.7,3.79,1.5,7.56,2.51,11.29a.66.66,0,0,1,0,.15c.14.47.3,1,.44,1.45.27.89.62,2,.9,2.81a112.09,112.09,0,0,0,6.72,15.61l.08.14a63.32,63.32,0,0,0,5.85,9.08c-4.44-1.6-7.84-4.61-11.41-7.65-.15-.12-.38-.34-.48-.43l-.16-.14a32.47,32.47,0,0,1-4.19-4.91c-.54-.79-1-1.55-1.5-2.31C55,285,54,283.23,52.73,281.33l-.08.12C48.38,287,44,292.36,39.55,297.74l-.15.18c-1.34,1.6-2.42,2.91-3.83,4.57-.8,1-1.61,1.91-2.42,2.87-1-1.61-2-3.25-2.95-4.9l.59-.65.43-.47h0a.23.23,0,0,0,.05-.05h0l0,0,.05-.07h0a.3.3,0,0,0,.08-.08l.05-.06,0,0s0-.05.05-.07l.06-.06c1.14-1.23,1.44-1.57,3.06-3.34s5.06-5.49,7-7.69a36.06,36.06,0,0,0,2.59-3.37c.17-.24.31-.46.47-.71.61-.94,1.17-1.91,1.7-2.9.13-.25.26-.49.39-.75l.36-.76c.12-.25.23-.5.35-.77.34-.77.66-1.55.95-2.34.15-.4.28-.8.41-1.2a1.77,1.77,0,0,0,.06-.17,43,43,0,0,0,1.55-7,39.86,39.86,0,0,0,.32-5.06c0-3.25-.05-6.26-.12-9.45,0-.06,0-.1,0-.14-.24-7-.77-14-1.52-20.95,0-.05,0-.09,0-.15-.19-1.71-.38-3.43-.56-5.14-.56-5.22-1.1-10.45-1.56-15.69,0-.05,0-.1,0-.16-.06-.75-.13-1.45-.19-2.23a51.57,51.57,0,0,1,.38-11.58c0-.29.11-.57.16-.84s.13-.59.19-.83l.14-.57a1,1,0,0,0,0-.14s0-.07,0-.1l0-.09a.14.14,0,0,1,0-.06.06.06,0,0,1,0,0s0-.08,0-.13c.06-.23.16-.54.24-.8l.08-.19s0-.07,0-.11a1.31,1.31,0,0,0,.08-.21,1.19,1.19,0,0,0,.07-.27h0v-.06a1.27,1.27,0,0,1,.11-.34,2.24,2.24,0,0,1,.12-.29,3.2,3.2,0,0,1,.16-.35c.11-.22.15-.35.24-.54s.15-.33.24-.51c.22-.45.42-.88.65-1.34,0,0,0,0,0,0h0s0,0,0-.09l0,0v0h0l0,0a2.09,2.09,0,0,1,.15-.15c.8-.8,2.06-4.06,2.45-5.77,0,0,0,0,0,0a6.53,6.53,0,0,1,.33-.8l.06-.12a.14.14,0,0,0,0-.06,3,3,0,0,0,.14-.33s0,0,0,0,0,0,0,0c.11-.3.25-.63.39-1l.15-.36.15-.38.24-.62c.09-.2.17-.42.25-.61l.26-.67.08-.21c.09-.24.19-.51.3-.77s.31-.71.48-1.06c0-.14.12-.27.16-.41a6.08,6.08,0,0,0,.34-.93,4.48,4.48,0,0,0,.11-.5,0,0,0,0,1,0,0h0a0,0,0,0,1,0,0l0,0a0,0,0,0,1,0,0c.13-.34.26-.69.38-1,.25-.71.51-1.41.76-2.11.12-.34.26-.73.37-1.06s.13-.38.26-.75.36-1,.49-1.41l.42-1.2a.75.75,0,0,1,0-.16.3.3,0,0,1,0-.1c.16-.51.32-1,.49-1.48s.32-1,.5-1.49L60.5,162c.19-.6.52-1.62.72-2.21s.32-1,.48-1.55.33-1,.48-1.54q1.91-6.16,3.65-12.37c0-.06,0-.1,0-.16,1.22-4.4,2.42-8.91,3.54-13.31.75-2.95,1.44-5.85,2.13-8.76h0a.69.69,0,0,0,0-.13.86.86,0,0,1,0-.13.35.35,0,0,0,0-.06c0-.06,0-.12,0-.18.47-1.87,1.09-4.71,1.73-7.72.16-.79.33-1.58.5-2.37.11-.54.21-1.07.32-1.58.16-.78.31-1.56.47-2.3.19-.92.38-1.85.56-2.79.08-.42.16-.83.24-1.21s.11-.58.16-.85c.11-.58.21-1.08.28-1.47L76,101c0-.07,0-.14,0-.21s.07-.41.1-.56,0-.06,0-.08v0s0,0,0,0v0a.13.13,0,0,0,0-.06h0v0s0,0,0,0,0,0,0,0h0s0,0,0,0a.11.11,0,0,0,0,0,0,0,0,0,1,0,0,.43.43,0,0,1,0-.05c0-.09,0-.08,0-.21h0l0,0a2.29,2.29,0,0,0,.12-.75.15.15,0,0,1,0-.07v0a3.63,3.63,0,0,1,.07-.39v-.08l0-.17c0-.09,0-.17,0-.24l0-.17s0-.13,0-.16,0-.06,0-.09a.13.13,0,0,0,0-.06,0,0,0,0,0,0,0,.39.39,0,0,0,0-.14l0-.17a.13.13,0,0,1,0-.06,0,0,0,0,1,0,0,.88.88,0,0,1,0-.16h0v-.12l0-.14a.77.77,0,0,0,0-.15,0,0,0,0,1,0,0s0-.09,0-.13,0-.07,0-.1h0C76.9,95.7,76.91,95.66,77,95.45Z"/><path class="cls-15" d="M77.57,69.92c0-.49.41-1,.91-.82,2.57,1.18,3.33,1,5,4.33s2.15,9.64,1.71,14.19c-.25,2.5-1,6.7-2.61,8.55-1.86,2.1-3.78,3.61-6.36,3.36C76.92,89.64,77.18,79.76,77.57,69.92Z"/><path class="cls-5" d="M249.76,194.5v-.08c.09-.61.21-1.21.35-1.8a16.48,16.48,0,0,1,1.14-3.16,12.82,12.82,0,0,1,8.36-7.11c7.29-1.81,14.84,3.75,16.87,12.42a16.79,16.79,0,0,1,.34,1.83,19.18,19.18,0,0,1,.16,3.1,18.18,18.18,0,0,1-.44,3.41,16.16,16.16,0,0,1-1.18,3.41,14.13,14.13,0,0,1-3,4.22,11.92,11.92,0,0,1-5.38,3c-4.52,1.12-9.14-.59-12.48-4.12a18,18,0,0,1-4.39-8.29A18.58,18.58,0,0,1,249.76,194.5Z"/><path class="cls-6" d="M249.76,194.5c0-.11.05-.22.08-.32A16.48,16.48,0,0,1,251,191a12.82,12.82,0,0,1,8.35-7.11c7.29-1.81,14.85,3.75,16.88,12.41.14.62.26,1.23.34,1.84a18,18,0,0,1,.15,3.1c0,.63-.07,1.24-.15,1.85a18.18,18.18,0,0,0,.44-3.41,19.18,19.18,0,0,0-.16-3.1,16.79,16.79,0,0,0-.34-1.83c-2-8.67-9.58-14.23-16.87-12.42a12.82,12.82,0,0,0-8.36,7.11,16.48,16.48,0,0,0-1.14,3.16c-.14.59-.26,1.19-.35,1.8Z"/><path class="cls-4" d="M240.1,170.45c4.61,5.2,13.54,4.44,21.08-1.36-7.3,5.09-15.64,5.55-20,.59-3.58-4-3.61-10.64-.63-17h0a27.2,27.2,0,0,1,2.24-4.53,29.38,29.38,0,0,1,4.23-5.3,66.6,66.6,0,0,1,6-5.46,56.38,56.38,0,0,0-7.07,6.23,27.84,27.84,0,0,0-6.47,9.82h0C236.49,159.8,236.52,166.4,240.1,170.45Z"/><path class="cls-5" d="M241.14,169.68c4.4,5,12.74,4.5,20-.59a26.86,26.86,0,0,0,2.76-2.42c3.6-3.58,6.45-7.36,7.84-11.17a14.21,14.21,0,0,0,1.44-9.1h0a14,14,0,0,0-3.44-6.52c-6.11-6.9-11.42-6.2-16.77-2.45a66.6,66.6,0,0,0-6,5.46,29.38,29.38,0,0,0-4.23,5.3,27.2,27.2,0,0,0-2.24,4.53h0C237.53,159,237.56,165.64,241.14,169.68Z"/><path class="cls-6" d="M242.75,148.19a30.5,30.5,0,0,1,2.42-2.71,55.46,55.46,0,0,1,7.07-6.22c5.35-3.75,10.65-4.45,16.76,2.44,4,4.47,4.46,9.16,2.78,13.8a14.21,14.21,0,0,0,1.44-9.1h0a14,14,0,0,0-3.44-6.52c-6.11-6.9-11.42-6.2-16.77-2.45a66.6,66.6,0,0,0-6,5.46A29.38,29.38,0,0,0,242.75,148.19Z"/><path class="cls-5" d="M235.33,109.2a20,20,0,0,1-.05-5.12,18.34,18.34,0,0,1,.45-3.68c.07-.34.15-.68.25-1a12.7,12.7,0,0,1,6.15-8c6.82-3.54,15.79.89,20,9.87a22,22,0,0,1,2,11.88,17.78,17.78,0,0,1-1,5.54,13.8,13.8,0,0,1-1.71,3.36,11.44,11.44,0,0,1-4.16,3.72c-6.21,3.22-14.2-.16-18.78-7.59a22.59,22.59,0,0,1-1.25-2.28A23.16,23.16,0,0,1,235.33,109.2Z"/><path class="cls-6" d="M235.28,104.08a18.3,18.3,0,0,1,.31-1.85c.08-.34.16-.68.26-1a12.67,12.67,0,0,1,6.15-8c6.82-3.54,15.78.89,20,9.87a22.21,22.21,0,0,1,2.18,10,22,22,0,0,0-2-11.88c-4.24-9-13.21-13.41-20-9.87a12.7,12.7,0,0,0-6.15,8c-.1.33-.18.67-.25,1A18.34,18.34,0,0,0,235.28,104.08Z"/><path class="cls-16" d="M136.26,162.65a5.27,5.27,0,0,1,4.5-6.43c2.66-.44,4.12.71,4.41,1.51l.18,1.06-1.84.3a2.25,2.25,0,0,0-2.4-.88c-2,.33-2.84,2-2.5,4s1.73,3.34,3.74,3a4.52,4.52,0,0,0,1.77-.66l-.31-1.84-2.19.37-.3-1.82,4.39-.73.76,4.59a5.39,5.39,0,0,1-3.81,2.1A5.23,5.23,0,0,1,136.26,162.65Z"/><path class="cls-16" d="M147.18,158.93l2-.33.26.92a2.12,2.12,0,0,1,1.71-1.47,1.68,1.68,0,0,1,2.06,1.21l.17,1-1.63.28a.9.9,0,0,0-1.05-.54c-.77.13-1,.83-.85,1.71l.67,4-2.14.36Z"/><path class="cls-16" d="M154.25,163c-.23-1.36.62-2.39,2.7-2.74a6.65,6.65,0,0,1,1.35-.08l-.05-.31a1.06,1.06,0,0,0-1.37-1,1.33,1.33,0,0,0-1.11.86l-1.62.27-.16-.95a3,3,0,0,1,2.63-2c2.18-.37,3.45.48,3.78,2.48l.72,4.33-1.92.32-.3-.88a2.34,2.34,0,0,1-1.93,1.48A2.17,2.17,0,0,1,154.25,163Zm4.3-1.32-.05-.31a6.26,6.26,0,0,0-1.21.08c-.83.14-1,.54-1,1s.49.72,1.07.63A1.26,1.26,0,0,0,158.55,161.72Z"/><path class="cls-16" d="M161.66,156.51l2-.33.25.93a2.44,2.44,0,0,1,2-1.51c1.89-.32,2.79.93,3,2.48l.74,4.45-2.12.35-.68-4c-.14-.83-.56-1.34-1.41-1.2a1.3,1.3,0,0,0-1.12,1.66l.67,4-2.14.35Z"/><path class="cls-16" d="M172.65,154.58l1.21,7.25-2.21.37-1.77-10.62,2.88-.49,3.48,5,1.62-5.83,2.87-.48,1.78,10.62-2.34.39L179,153.52l-1.54,5.4-1.57.26Z"/><path class="cls-16" d="M183.58,156.51a3.83,3.83,0,1,1,4.42,3.17A3.66,3.66,0,0,1,183.58,156.51Zm5.43-.91c-.18-1-.85-1.82-2-1.64a1.7,1.7,0,0,0-1.32,2.19c.18,1.07.85,1.87,2,1.68S189.19,156.68,189,155.6Z"/><path class="cls-16" d="M192,151.45l2-.33.25.93a2.47,2.47,0,0,1,1.95-1.52c1.89-.31,2.79.93,3.05,2.49l.74,4.45-2.12.35-.68-4c-.14-.83-.56-1.34-1.41-1.2a1.29,1.29,0,0,0-1.12,1.65l.67,4-2.14.35Z"/><path class="cls-16" d="M200.72,153.69a3.65,3.65,0,0,1,3.13-4.44,3.16,3.16,0,0,1,4,2.79,4.48,4.48,0,0,1,.05.92l-5,.84a1.64,1.64,0,0,0,2,1.29c1.28-.21,1.42-.91,1.42-.91l1.67-.27.16.94s-.46,1.54-3,2A3.58,3.58,0,0,1,200.72,153.69Zm5-1.69a1.3,1.3,0,0,0-1.64-1.05,1.51,1.51,0,0,0-1.35,1.55Z"/><path class="cls-16" d="M210.6,159.33l-.17-1,1.25-3.5-3.5-5.08-.16-1,1.92-.32,2.53,3.89,1.2-4.51,1.77-.3.16.95L212.41,159Z"/><path class="cls-17" d="M169.73,102.7s-2.82,6.7-1.86,12.49c2.36,14.2,12.8,26.72,12.8,26.72l-20.74.65s-8.66-10.34-11.08-21.28a29.27,29.27,0,0,1-.67-10.38Z"/><path class="cls-18" d="M169.72,108.8s.73-2.27,2-2.69c1.8-.58,9.74-2.57,9.74-2.57s-4.55,9.35-4.25,17.89c.27,7.38,3.58,17.56,3.58,17.56s-5.62-9.11-6.51-16c-.92-7.15,1.83-15.71,1.83-15.71Z"/><path class="cls-1" d="M180.37,112s1.68-2.36,3.52-2.85c2.56-.68,5.47-1.27,5.47-1.27a36.64,36.64,0,0,0-6.49,14.79c-.87,4.38-.64,13-.64,13s-2.42-10.56-1.19-16.17a54.11,54.11,0,0,1,2.92-8.42Z"/><path class="cls-19" d="M166.39,176.87l3.19-10.53c0-.05.12-.1.27-.12.43-.07.57.19.48.7a2,2,0,0,1-.11.51,3.66,3.66,0,0,1,2.43-1.77c1.34-.22,2.38.57,2.16,2.68-.25,2.47-1.93,5.2-4,5.54a1.64,1.64,0,0,1-2.06-1.37l-1.26,4.18c-.14.44-.32.64-.61.69l-.13,0C166.47,177.45,166.24,177.34,166.39,176.87Zm7.31-8.22c.15-1.54-.53-2.19-1.5-2a3.58,3.58,0,0,0-2.33,2.17l-.54,1.77c-.41,1.34.08,2.65,1.39,2.43C172.26,172.73,173.51,170.45,173.7,168.65Z"/><path class="cls-19" d="M175.67,170c.24-2.42,1.89-5.13,4-5.48a1.68,1.68,0,0,1,2.1,1.33,8.85,8.85,0,0,1,.37-1c.19-.51.42-.72.75-.77s.39,0,.37.08l-1.91,6.21c-.33,1.1,0,1.25.3,1.28a.72.72,0,0,1-.64.5.65.65,0,0,1-.83-.75,1.64,1.64,0,0,1,.07-.49,3.67,3.67,0,0,1-2.44,1.82C176.4,173,175.46,172,175.67,170Zm5.1-1,.55-1.75c.1-1.13-.48-2-1.55-1.85-1.56.25-2.81,2.58-3,4.37-.14,1.43.45,2.17,1.47,2S180.35,170.32,180.77,169Z"/><path class="cls-19" d="M190.4,163.42a2.87,2.87,0,0,1-.39.88l-4.78,8c-1.12,1.87-1.85,2.48-2.69,2.62a1.22,1.22,0,0,1-.9-.14.4.4,0,0,1-.18-.4.92.92,0,0,1,.38-.59.72.72,0,0,0,.66.21c.54-.09,1-.61,1.78-1.8l.78-1.28c-.22,0-.43-.07-.43-.47l0-4.61c0-1.26-.25-1.44-.69-1.38a1,1,0,0,1,.82-.7.65.65,0,0,1,.74.3,3.13,3.13,0,0,1,.18,1.53l-.17,4.63,4.13-7.22S190.5,162.8,190.4,163.42Z"/></svg>