<svg id="Слой_2" data-name="Слой 2" xmlns="http://www.w3.org/2000/svg" viewBox="0 0 1369.58 1372.45"><path d="M572.2,412.43v.93l6.72-1.27a576.41,576.41,0,0,1,236.72,4.48,28.26,28.26,0,1,0,12.8-55.05,632.67,632.67,0,0,0-260.12-4.94l-.1,0a28.24,28.24,0,0,0,4,55.83Z"/><path d="M302.6,673a73.43,73.43,0,1,0-73.42-73.44A73.52,73.52,0,0,0,302.6,673Zm0-90.35a16.92,16.92,0,1,1-16.91,16.91A16.95,16.95,0,0,1,302.6,582.64Z"/><path d="M1369.76,583.32A146.48,146.48,0,0,0,1356.9,523a181.79,181.79,0,0,0-40.83-56.62,28.3,28.3,0,0,0-39.5,40.53l.11.1a126.56,126.56,0,0,1,28.63,39.16,87.7,87.7,0,0,1,7.94,37.17,94.47,94.47,0,0,1-29.68,69.13c-27.6-94.27-85.21-179.91-167-248.13-82.63-68.89-185.5-116.17-298-137a163.77,163.77,0,1,0-263.9,0c-7.11,1.27-13.88,2.55-20.63,4a303.74,303.74,0,0,0-292.73-1.19,67.67,67.67,0,0,0-22.18,98.24l30.07,42.17a527.14,527.14,0,0,0-138.1,183.4H99.35a96.12,96.12,0,0,0-96,96V825.41a96.17,96.17,0,0,0,90.3,95.85,504.7,504.7,0,0,0,116.73,191.85l35.3,199.46a73.35,73.35,0,0,0,72.3,60.54h82.21a73.34,73.34,0,0,0,72.3-60.57l6.71-37.83a719.49,719.49,0,0,0,414.73,0l6.72,37.86a73.35,73.35,0,0,0,72.29,60.54h82.22a73.35,73.35,0,0,0,72.3-60.6l35.29-199.37A481.16,481.16,0,0,0,1302,780.24a452.78,452.78,0,0,0-5.08-67.32A151.78,151.78,0,0,0,1369.76,583.32ZM59.84,689.9a39.56,39.56,0,0,1,39.51-39.51h30.47a28.07,28.07,0,0,0,26.26-17.81A469.32,469.32,0,0,1,304.89,437.94a28.2,28.2,0,0,0,5.65-38.63l-45.39-63.67a11.2,11.2,0,0,1,3.54-16.05,247.58,247.58,0,0,1,245.83,5.85,28.07,28.07,0,0,0,21.38,3.47,637.3,637.3,0,0,1,75.78-13,162.6,162.6,0,0,0,149.75,0c276.09,31,484.07,230.38,484.07,464.2-1.62,113.79-47.44,220.14-129,299.46l-.06.07a27.91,27.91,0,0,0-7.75,15l-36.82,208a16.88,16.88,0,0,1-16.66,14H972.89a16.91,16.91,0,0,1-16.66-13.94l-12.39-70A28.26,28.26,0,0,0,906.41,1211a659.6,659.6,0,0,1-439.68,0,28.25,28.25,0,0,0-37.47,21.61l-12.4,70a16.9,16.9,0,0,1-16.67,13.95H317.93a16.89,16.89,0,0,1-16.65-13.92l-36.82-208a27.94,27.94,0,0,0-7.79-15A443.85,443.85,0,0,1,142,885.7a28.33,28.33,0,0,0-27.26-20.8H99.35a39.55,39.55,0,0,1-39.51-39.5ZM686.55,63.19A107.26,107.26,0,1,1,579.29,170.45,107.38,107.38,0,0,1,686.55,63.19Z"/><path d="M590.13,740.74a73.43,73.43,0,1,0-73.42-73.42A73.5,73.5,0,0,0,590.13,740.74Zm-16.91-73.42a16.91,16.91,0,1,1,16.91,16.91A16.95,16.95,0,0,1,573.22,667.32Z"/><path d="M775.9,819.73a73.43,73.43,0,1,0,73.42,73.44A73.51,73.51,0,0,0,775.9,819.73Zm16.91,73.44a16.91,16.91,0,1,1-16.91-16.93A16.93,16.93,0,0,1,792.81,893.17Z"/><path d="M828.31,579.55A28.27,28.27,0,0,0,776.8,571L548.32,937a28.31,28.31,0,0,0,9,38.94,28,28,0,0,0,14.9,4.3,28.86,28.86,0,0,0,6.44-.74,28.1,28.1,0,0,0,17.6-12.58l228.49-366A28.44,28.44,0,0,0,828.31,579.55Z"/></svg>