<svg id="Слой_2" data-name="Слой 2" xmlns="http://www.w3.org/2000/svg" viewBox="0 0 1369.58 1372.45"><path d="M165.05,1203.94H549.47V812H165.05Zm55.76-336.2h272.9v280.44H220.81Z"/><path d="M549.79,166H165.38v392H549.79ZM494,502.17H221.14V221.72H494Z"/><polygon points="56.48 55.76 357.26 55.76 357.26 0 0.73 0 0.73 364.08 56.48 364.08 56.48 55.76"/><polygon points="1005.5 59.53 1313.83 59.53 1313.83 360.31 1369.58 360.31 1369.58 3.77 1005.5 3.77 1005.5 59.53"/><polygon points="1310.05 1316.69 1009.27 1316.69 1009.27 1372.44 1365.81 1372.44 1365.81 1008.37 1310.05 1008.37 1310.05 1316.69"/><polygon points="55.76 1012.14 0 1012.14 0 1368.67 364.08 1368.67 364.08 1312.92 55.76 1312.92 55.76 1012.14"/><path d="M1203.76,166.29H819.35v392h384.41ZM1148,502.5H875.11V222.05H1148Z"/><rect x="308.31" y="312.99" width="97.91" height="97.91"/><rect x="308.31" y="959.01" width="97.91" height="97.91"/><rect x="962.6" y="313.32" width="97.91" height="97.91"/><rect x="651.44" y="153.34" width="65.34" height="414.64"/><rect x="152.43" y="652.7" width="155.88" height="65.34"/><rect x="393.88" y="652.7" width="168.54" height="65.34"/><polygon points="789.06 1151.55 789.06 1216.89 1151.04 1216.89 1151.04 1216.91 1216.39 1216.91 1216.39 1216.89 1216.39 1151.55 1216.39 1015.42 1216.39 950.08 1151.04 950.08 977.15 950.08 977.15 835.3 975.98 835.3 911.81 835.3 708.79 835.3 708.79 718.04 1039.76 718.04 1039.76 824.82 1105.1 824.82 1105.1 718.04 1216.39 718.04 1216.39 652.7 708.79 652.7 643.45 652.7 643.45 718.04 643.45 835.3 643.45 900.65 643.45 997.32 643.45 1062.67 643.45 1225.64 708.79 1225.64 708.79 1062.67 809.72 1062.67 809.72 997.32 708.79 997.32 708.79 900.65 911.81 900.65 911.81 950.08 911.81 1015.42 977.15 1015.42 1151.04 1015.42 1151.04 1151.55 789.06 1151.55"/><path d="M94.6,775.46c3.16,0,3.17-4.91,0-4.91S91.43,775.46,94.6,775.46Z"/></svg>