<svg id="Слой_2" data-name="Слой 2" xmlns="http://www.w3.org/2000/svg" viewBox="0 0 1369.58 1372.45"><rect x="512.08" y="199.99" width="344.24" height="73.01" rx="36.51"/><rect x="512.4" y="827.43" width="343.59" height="70.62" rx="35.31"/><rect x="464.51" y="354.45" width="283.5" height="36.68" rx="18.34"/><rect x="464.51" y="457.78" width="205.73" height="36.68" rx="18.34"/><rect x="554.57" y="561.12" width="211.28" height="36.68" rx="18.34"/><rect x="585.88" y="664.46" width="140.19" height="36.68" rx="18.34"/><rect x="855.99" y="457.78" width="53.46" height="36.68" rx="18.34"/><rect x="841.48" y="561.12" width="67.97" height="36.68" rx="18.34"/><rect x="841.48" y="664.46" width="67.97" height="36.68" rx="18.34"/><rect x="841.48" y="354.45" width="67.97" height="36.68" rx="18.34"/><path d="M656.32,1013.5h56.94a25,25,0,0,0,0-50H656.32a25,25,0,0,0,0,50Z"/><path d="M1140.74,785.24a93.36,93.36,0,0,0-29.08-67.76,93.47,93.47,0,0,0,0-135.52,94.25,94.25,0,0,0-65.17-162.33h-18.66V85.09a72.4,72.4,0,0,0-72-72h-542a72.38,72.38,0,0,0-72,72V532.63a117.32,117.32,0,0,0-112.93,117.1V742.3L274,1215.45v134.41a26.87,26.87,0,0,0,26.84,26.84H797.72a26.87,26.87,0,0,0,26.83-26.84V1222.92l82-117.24h49.29a72.41,72.41,0,0,0,72-72v-18.33h18.64A94.25,94.25,0,0,0,1111.65,853,93.37,93.37,0,0,0,1140.74,785.24Zm-369.86,456V1323H327.68v-81.83ZM567.61,649.73a63.57,63.57,0,0,1-63.5,63.5H368.6a26.86,26.86,0,0,0-26.83,26.84v293.62a72.39,72.39,0,0,0,72,72H841l-57.29,81.83H325.27L282.51,739.87V649.74A63.87,63.87,0,0,1,346,586.23H504.11A63.56,63.56,0,0,1,567.61,649.73ZM395.44,1033.67V766.9H504.11a117.18,117.18,0,1,0,0-234.35H395.44V85.1a18.35,18.35,0,0,1,18.33-18.33h46.81l8.91,35.85a71.93,71.93,0,0,0,69.85,54.49h290.9a71.93,71.93,0,0,0,69.85-54.5L909,66.77h46.81A18.35,18.35,0,0,1,974.14,85.1V419.63H955.5A94.25,94.25,0,0,0,890.31,582a93.47,93.47,0,0,0,0,135.52,93.49,93.49,0,0,0,0,135.53,94.25,94.25,0,0,0,65.17,162.33h18.66v18.33A18.35,18.35,0,0,1,955.81,1052h-542A18.35,18.35,0,0,1,395.44,1033.67ZM848,89.5a18.31,18.31,0,0,1-17.78,13.94H539.35A18.32,18.32,0,0,1,521.56,89.5l-5.68-22.73H853.7Zm198.13,736.66H955.81a40.92,40.92,0,0,1,0-81.84h90.34a40.92,40.92,0,0,1,0,81.84Zm0-135.51H955.81a40.92,40.92,0,1,1,0-81.84h90.34a40.92,40.92,0,0,1,0,81.84Zm0-135.51H955.81a40.92,40.92,0,1,1,0-81.84h90.34a40.92,40.92,0,0,1,0,81.84ZM914.89,920.75a41,41,0,0,1,40.92-40.92h90.34a40.92,40.92,0,0,1,0,81.84H955.81A41,41,0,0,1,914.89,920.75Z"/></svg>