<svg id="Слой_2" data-name="Слой 2" xmlns="http://www.w3.org/2000/svg" viewBox="0 0 1369.58 1372.45"><path d="M393.74,812.09H161.42a26.79,26.79,0,0,0-26.72,26.78v232.25a26.79,26.79,0,0,0,26.72,26.79H393.74a26.78,26.78,0,0,0,26.71-26.79V838.87A26.78,26.78,0,0,0,393.74,812.09ZM367,1044.41H188.2V865.66H367Z"/><path d="M1084.67,882.49a26.74,26.74,0,0,0-26.7,26.72v163.46L943.19,1207.59a26.83,26.83,0,0,0,3.16,37.62,26.57,26.57,0,0,0,17.25,6.37c.76,0,1.52,0,2.29-.1a26.43,26.43,0,0,0,18.12-9.41l120.06-141.2a26.6,26.6,0,0,0,7.4-18.45V909.21A26.79,26.79,0,0,0,1084.67,882.49Z"/><path d="M859.05,479.62a26.78,26.78,0,0,0-26.79,26.72V738.59a26.81,26.81,0,0,0,26.79,26.78H1091.3a26.81,26.81,0,0,0,26.78-26.78V506.34a26.78,26.78,0,0,0-26.78-26.72Zm205.53,232.25H885.84V533.13h178.74Z"/><path d="M769.27,506.34a26.78,26.78,0,0,0-26.79-26.72H510.22a26.74,26.74,0,0,0-26.7,26.72V738.59a26.77,26.77,0,0,0,26.7,26.78H742.48a26.81,26.81,0,0,0,26.79-26.78ZM715.76,711.87H537V533.13H715.76Z"/><path d="M420.45,506.34a26.74,26.74,0,0,0-26.71-26.72H161.42a26.75,26.75,0,0,0-26.72,26.72V738.59a26.78,26.78,0,0,0,26.72,26.78H393.74a26.77,26.77,0,0,0,26.71-26.78ZM367,711.87H188.2V533.13H367Z"/><path d="M742.48,812.09H510.22a26.78,26.78,0,0,0-26.7,26.78v232.25a26.78,26.78,0,0,0,26.7,26.79H742.48a26.82,26.82,0,0,0,26.79-26.79V838.87A26.82,26.82,0,0,0,742.48,812.09Zm-26.72,232.32H537V865.66H715.76Z"/><path d="M1288.63,881.67a285.41,285.41,0,0,0-47.72-38.44V549a26.79,26.79,0,0,0-53.58,0V816.48a283.05,283.05,0,0,0-368.21,350.68H121.27a56.13,56.13,0,0,1-55.88-55.82v-701H581.83a26.76,26.76,0,1,0,0-53.51H65.39V255a64.28,64.28,0,0,1,63.92-63.92h14.53v34.48a72.22,72.22,0,0,0,144.43,0V191.07H417.43v34.48a72.21,72.21,0,0,0,144.41,0V191.07H690.93v34.48a72.21,72.21,0,0,0,144.42,0V191.07H964.5v35a72.22,72.22,0,0,0,144.43,0v-35h14.47A64.12,64.12,0,0,1,1187.31,255V356.81H671a26.75,26.75,0,1,0,0,53.5h516.36V460a26.79,26.79,0,0,0,53.58,0V255a116.64,116.64,0,0,0-34.48-83h0a116.89,116.89,0,0,0-83-34.42h-14.48V102.51a72.21,72.21,0,0,0-144.42,0v35.06H835.36V102a72.22,72.22,0,0,0-144.43,0v35.58H561.84V102a72.21,72.21,0,0,0-144.41,0v35.58H288.27V102a72.22,72.22,0,0,0-144.43,0v35.58H129.31A117.64,117.64,0,0,0,11.89,255v856.35a109.53,109.53,0,0,0,109.38,109.31H842.4a284.22,284.22,0,0,0,46.39,60.86,282.73,282.73,0,1,0,399.84-399.84ZM1018,102.51a18.68,18.68,0,0,1,37.35,0V226.07a18.68,18.68,0,0,1-37.35,0ZM744.44,102a18.71,18.71,0,0,1,37.42,0V225.55a18.71,18.71,0,0,1-37.42,0Zm-273.5,0a18.67,18.67,0,0,1,37.33,0V225.55a18.67,18.67,0,0,1-37.33,0Zm-273.59,0a18.71,18.71,0,0,1,37.42,0V225.55a18.71,18.71,0,0,1-37.42,0Zm891.36,1214.76c-129.67,0-235.16-105.49-235.16-235.16S959,846.43,1088.71,846.43s235.16,105.5,235.16,235.16S1218.38,1316.75,1088.71,1316.75Z"/></svg>