<svg id="Слой_2" data-name="Слой 2" xmlns="http://www.w3.org/2000/svg" viewBox="0 0 1382.52 1382.52"><path d="M1282.68,339.39h-25.15a198.63,198.63,0,1,0-300.17,0H692.75V121.83a23.42,23.42,0,0,0-23.39-23.39H581.74a23.42,23.42,0,0,0-23.39,23.39V339.39H539.42V34.22A23.42,23.42,0,0,0,516,10.82H428.41A23.42,23.42,0,0,0,405,34.22V339.39H386.09V187.55a23.42,23.42,0,0,0-23.39-23.4H275.08a23.42,23.42,0,0,0-23.39,23.4V339.39H99.84a89.36,89.36,0,0,0-89.1,89.1v657.14a89.36,89.36,0,0,0,89.11,89.1H549.28l-28.22,84.64H450.31a23.41,23.41,0,0,0-23.39,23.39v42.32H209.37a23.4,23.4,0,1,0,0,46.79h963.79a23.4,23.4,0,0,0,0-46.79H955.6v-42.32a23.41,23.41,0,0,0-23.39-23.39H861.47l-28.23-84.64h449.44a89.37,89.37,0,0,0,89.11-89.11V428.49A89.36,89.36,0,0,0,1282.68,339.39Zm-809,985.69v-18.92H908.82v18.92Zm96.68-65.71,28.22-84.64h185.3l28.23,84.64ZM298.47,558.43V210.94H339.3V558.43Zm87.62,0V386.18H405V558.43Zm65.71,0V57.61h40.83V558.43Zm87.62,0V386.18h18.93V558.43Zm65.71,0V145.23H646v413.2ZM186,451.89V558.43H145.14V451.89Zm613.32,0V558.43H758.46V451.89ZM57.53,428.5a42.43,42.43,0,0,1,42.32-42.32H251.69V558.43H232.76V428.49a23.42,23.42,0,0,0-23.39-23.39H121.75a23.42,23.42,0,0,0-23.39,23.39V581.83a23.42,23.42,0,0,0,23.39,23.39H822.69a23.42,23.42,0,0,0,23.39-23.39V428.49a23.42,23.42,0,0,0-23.39-23.39H735.07a23.42,23.42,0,0,0-23.39,23.39V558.43H692.75V386.18h324.19a198.26,198.26,0,0,0,181,0h84.73A42.44,42.44,0,0,1,1325,428.49v568H57.53Zm1108-78.74A152.44,152.44,0,0,1,1017.94,332l99.19-99.17h140.33A152.47,152.47,0,0,1,1165.57,349.76Zm-34.73-163.7V59.44c64.7,10.2,116.41,61.91,126.62,126.62ZM1084.05,59.44V199.77L984.87,299a152.08,152.08,0,0,1-29.27-89.51C955.71,135.15,1010.81,71,1084.05,59.44Zm241,983.86v42.32a42.44,42.44,0,0,1-42.32,42.32H99.85a42.43,42.43,0,0,1-42.32-42.32V1043.3Z"/><path d="M121.75,1109H253.18a23.4,23.4,0,0,0,0-46.79H121.75a23.4,23.4,0,0,0,0,46.79Z"/><path d="M318.89,1109h21.9a23.4,23.4,0,1,0,0-46.79h-21.9a23.4,23.4,0,1,0,0,46.79Z"/><path d="M932.21,561.41h0a23.46,23.46,0,0,0,16.49-6.85l80.76-80.77H1217a23.4,23.4,0,0,0,0-46.79H1019.83a23.52,23.52,0,0,0-16.54,6.86l-87.62,87.62a23.39,23.39,0,0,0,16.54,39.93Z"/><path d="M1217,799.38h0a67.37,67.37,0,0,0-57.33,32.23L932.16,698.91a67.2,67.2,0,0,0-131.67,1.75l-229,171.78a67.13,67.13,0,0,0-114.62,6.2L230.7,784.42a67.22,67.22,0,1,0-5.94,48.2l226.13,94.21a67.53,67.53,0,0,0,65.17,50.76q.93,0,1.86,0A67.48,67.48,0,0,0,582,923l229-171.78a67.11,67.11,0,0,0,112.76-3L1151.3,880.93A67.21,67.21,0,1,0,1217,799.38Zm20.41,67.2a20.43,20.43,0,1,1-12.6-18.86A20.48,20.48,0,0,1,1237.38,866.58ZM886.91,713.25a20.43,20.43,0,1,1-12.6-18.86A20.48,20.48,0,0,1,886.91,713.25Zm-352,205a20.41,20.41,0,0,1-39.26-7.84v-.11a20.41,20.41,0,1,1,39.26,8ZM186,800.87V801A20.49,20.49,0,0,1,165.5,821.4h0a20.48,20.48,0,0,1,0-40.95h0A20.5,20.5,0,0,1,186,800.87Z"/><path d="M1041.73,930.8H888.4a23.4,23.4,0,0,0,0,46.79h153.33a23.4,23.4,0,1,0,0-46.79Z"/><path d="M1041.73,865.09H976a23.4,23.4,0,1,0,0,46.79h65.71a23.4,23.4,0,1,0,0-46.79Z"/><path d="M121.75,670.93h241a23.4,23.4,0,0,0,0-46.79H121.75a23.4,23.4,0,0,0,0,46.79Z"/><path d="M428.41,670.93h21.9a23.4,23.4,0,1,0,0-46.79h-21.9a23.4,23.4,0,0,0,0,46.79Z"/></svg>