<?xml version="1.0" encoding="utf-8"?>
<!-- Generator: Adobe Illustrator 24.2.0, SVG Export Plug-In . SVG Version: 6.00 Build 0)  -->
<svg version="1.1" id="Layer_1" xmlns="http://www.w3.org/2000/svg" xmlns:xlink="http://www.w3.org/1999/xlink" x="0px" y="0px"
	 viewBox="0 0 305.7 311.9" style="enable-background:new 0 0 305.7 311.9;" xml:space="preserve">
<style type="text/css">
	.st0{fill:#43AA8B;}
	.st1{fill:#FFFFFF;}
</style>
<g>
	<path class="st0" d="M172.7,6.9L172.7,6.9c7.6,6,17.4,8.2,26.8,6.1l0,0c14.5-3.2,29.3,3.9,35.8,17.3l0,0c4.2,8.7,12.1,15,21.5,17.2
		l0,0c14.5,3.4,24.7,16.3,24.8,31.1l0,0c0.1,9.6,4.4,18.8,11.9,24.8l0,0c11.5,9.3,15.2,25.4,8.9,38.8l0,0c-4.1,8.7-4.1,18.8,0,27.5
		l0,0c6.4,13.4,2.7,29.5-8.9,38.8l0,0c-7.5,6.1-11.9,15.2-11.9,24.8l0,0c-0.1,14.9-10.3,27.7-24.8,31.1l0,0
		c-9.4,2.2-17.3,8.5-21.5,17.2l0,0c-6.5,13.3-21.4,20.5-35.8,17.3l0,0c-9.4-2.1-19.3,0.2-26.8,6.1l0,0c-11.7,9.2-28.1,9.2-39.8,0
		l0,0c-7.6-6-17.4-8.2-26.8-6.1l0,0c-14.5,3.2-29.3-3.9-35.8-17.3l0,0c-4.2-8.7-12.1-15-21.5-17.2l0,0C34.2,261,24,248.2,23.9,233.3
		l0,0c-0.1-9.6-4.4-18.8-11.9-24.8l0,0c-11.5-9.3-15.2-25.4-8.9-38.8l0,0c4.1-8.7,4.1-18.8,0-27.5l0,0c-6.4-13.4-2.7-29.5,8.9-38.8
		l0,0c7.5-6.1,11.9-15.2,11.9-24.8l0,0C24,63.7,34.3,50.9,48.7,47.5l0,0c9.4-2.2,17.3-8.5,21.5-17.2l0,0
		C76.8,16.9,91.6,9.8,106.1,13l0,0c9.4,2.1,19.3-0.2,26.8-6.1l0,0C144.6-2.3,161.1-2.3,172.7,6.9z"/>
</g>
<circle class="st1" cx="152.9" cy="156" r="136.7"/>
<g>
	<circle class="st0" cx="152.9" cy="156" r="101.9"/>
</g>
<g>
	<path class="st0" d="M25.7,172.1c0.9-1.4,2.4-2.3,4.4-2.7c0.5-0.1,1.1-0.2,2-0.4c0.9-0.1,1.6-0.3,2-0.3c2.1-0.3,3.8,0.1,5.1,1.1
		c1.3,1,2.1,2.5,2.5,4.6c0.4,2,0.1,3.8-0.8,5.2c-0.9,1.4-2.4,2.3-4.4,2.7c-0.9,0.2-1.6,0.3-2,0.4c-0.4,0.1-1.1,0.2-2,0.3
		c-2.1,0.3-3.8-0.1-5.1-1.1c-1.3-1-2.1-2.5-2.4-4.7C24.6,175.1,24.9,173.4,25.7,172.1z M29,179.1c0.7,0.5,1.8,0.7,3,0.5
		c0.9-0.1,1.6-0.2,1.9-0.3c0.4-0.1,1-0.2,1.9-0.4c1.3-0.3,2.2-0.8,2.7-1.5c0.5-0.7,0.7-1.6,0.5-2.6c-0.1-0.9-0.6-1.8-1.4-2.3
		c-0.7-0.5-1.8-0.7-3-0.5c-0.5,0.1-1.1,0.2-1.9,0.3c-0.8,0.1-1.4,0.3-1.9,0.4c-1.3,0.3-2.2,0.8-2.7,1.5s-0.7,1.6-0.5,2.6
		C27.8,177.8,28.3,178.6,29,179.1z"/>
	<path class="st0" d="M29.7,190.8c0.6-1.5,2-2.5,4.1-3.2l9.1-3.1c0.1,0,0.3,0,0.5,0c0.1,0.1,0.2,0.2,0.3,0.3l0.7,2
		c0,0.1,0,0.3,0,0.4c-0.1,0.1-0.2,0.2-0.4,0.3l-9.1,3.1c-1.2,0.4-2,1-2.4,1.8c-0.4,0.8-0.5,1.7-0.1,2.7c0.4,1.1,0.9,1.8,1.7,2.1
		c0.8,0.4,1.8,0.3,3-0.1l9.1-3.1c0.3-0.1,0.6,0,0.7,0.3c0,0,0,0,0,0l0.7,2c0,0.1,0,0.3,0,0.4c-0.1,0.1-0.2,0.2-0.4,0.3l-9.1,3.1
		c-2.1,0.7-3.8,0.7-5.2-0.1c-1.4-0.8-2.4-2.2-3.1-4.2C29.1,194,29.1,192.3,29.7,190.8z"/>
	<path class="st0" d="M39.2,216.1c-0.1-1,0-1.9,0.3-2.8c0.3-0.8,0.8-1.4,1.5-1.8c0.2-0.1,0.5-0.1,0.7,0.1c0,0,0,0,0,0l1.1,1.8
		c0.1,0.1,0.1,0.3,0.1,0.4c0,0.1-0.1,0.3-0.1,0.4c-0.4,0.5-0.6,1-0.6,1.6c0,0.7,0.2,1.4,0.7,2.3c0.6,1,1.2,1.6,1.8,1.9
		c0.6,0.3,1.2,0.3,1.8,0c0.4-0.2,0.6-0.5,0.7-0.9c0.1-0.5,0.1-1,0-1.5c-0.1-0.6-0.3-1.5-0.6-2.6c-0.6-1.8-0.7-3.3-0.5-4.4
		c0.2-1.1,0.9-2,2-2.7c0.7-0.5,1.6-0.6,2.5-0.6c0.9,0.1,1.8,0.4,2.5,1c0.9,0.7,1.6,1.5,2.2,2.5c0.6,1,1,2.1,1.1,3.2
		c0.1,0.9,0,1.9-0.4,2.7c-0.3,0.7-0.7,1.3-1.4,1.7c-0.1,0.1-0.2,0.1-0.4,0c-0.1,0-0.2-0.1-0.3-0.2l-1.1-1.9c-0.2-0.2-0.1-0.6,0-0.8
		c0.4-0.4,0.6-0.9,0.6-1.4c0-0.7-0.2-1.4-0.6-2c-0.4-0.8-0.9-1.3-1.5-1.5c-0.5-0.3-1.1-0.2-1.6,0.1c-0.4,0.2-0.6,0.5-0.7,0.9
		c-0.1,0.5-0.1,0.9,0,1.4c0.1,0.8,0.3,1.6,0.6,2.4c0.4,1.1,0.6,2.2,0.7,3.4c0.1,0.8,0,1.6-0.4,2.3c-0.4,0.7-1,1.3-1.7,1.7
		c-0.8,0.5-1.8,0.7-2.7,0.6c-1-0.1-1.9-0.5-2.7-1.2c-0.9-0.8-1.7-1.7-2.3-2.7C39.8,218.5,39.3,217.3,39.2,216.1z"/>
	<path class="st0" d="M47.3,229.6c0-0.1,0.1-0.3,0.2-0.4l12.1-9.5c0.1-0.1,0.3-0.1,0.4-0.1c0.1,0,0.3,0.1,0.4,0.2l6.4,8.2
		c0.2,0.2,0.2,0.6-0.1,0.8c0,0,0,0,0,0l-1.2,1c-0.1,0.1-0.3,0.1-0.4,0.1c-0.1,0-0.3-0.1-0.4-0.2l-4.8-6.1l-3.3,2.6l4.5,5.7
		c0.1,0.1,0.1,0.3,0.1,0.4c0,0.1-0.1,0.3-0.2,0.4l-1.2,0.9c-0.1,0.1-0.3,0.1-0.4,0.1c-0.1,0-0.3-0.1-0.4-0.2l-4.4-5.7l-3.4,2.7
		l4.9,6.2c0.2,0.2,0.2,0.6-0.1,0.8c0,0,0,0,0,0l-1.2,1c-0.1,0.1-0.3,0.1-0.4,0.1c-0.1,0-0.3-0.1-0.4-0.2l-6.5-8.3
		C47.3,229.9,47.3,229.7,47.3,229.6z"/>
	<path class="st0" d="M60.2,243c-0.1-1.6,0.6-3.2,2.1-4.8l6.6-7c0.1-0.1,0.2-0.2,0.4-0.2c0.1,0,0.3,0,0.4,0.2l1.6,1.5
		c0.1,0.1,0.2,0.2,0.2,0.4c0,0.2-0.1,0.3-0.2,0.4l-6.6,7c-0.9,0.9-1.3,1.8-1.3,2.7c0,0.9,0.4,1.7,1.2,2.4c0.8,0.8,1.6,1.1,2.5,1.1
		c0.9,0,1.7-0.5,2.6-1.4l6.6-7c0.1-0.1,0.3-0.2,0.4-0.2c0.2,0,0.3,0,0.4,0.2l1.5,1.5c0.1,0.1,0.2,0.2,0.2,0.4c0,0.2-0.1,0.3-0.2,0.4
		l-6.6,7c-1.5,1.6-3.1,2.4-4.7,2.4c-1.6,0-3.2-0.8-4.7-2.2C61.1,246.2,60.3,244.6,60.2,243z"/>
	<path class="st0" d="M78.6,260.2c0-0.1,0-0.3,0.1-0.4l8.1-13.1c0.1-0.1,0.2-0.2,0.4-0.3c0.1,0,0.3,0,0.4,0.1l4.9,3
		c3.9,2.4,4.8,5.5,2.7,9.2c-0.5,0.8-0.8,1.3-0.9,1.6c-0.1,0.3-0.5,0.8-1,1.5c-1.2,1.8-2.6,2.9-4.1,3.2c-1.5,0.3-3.2-0.2-5.2-1.4
		l-5-3.1C78.7,260.5,78.6,260.3,78.6,260.2z M85.1,261.3c1.1,0.7,2.1,0.9,2.9,0.7c0.8-0.2,1.6-0.9,2.3-2c0.5-0.8,0.8-1.3,1-1.5
		c0.1-0.2,0.4-0.7,0.9-1.5c0.6-1.1,0.9-2.1,0.7-3c-0.2-0.9-0.9-1.6-2-2.3l-2.5-1.5l-5.8,9.4L85.1,261.3z"/>
	<path class="st0" d="M95,269.6c0-0.1,0-0.3,0-0.4l6.6-13.9c0.1-0.1,0.2-0.3,0.3-0.3c0.1,0,0.3,0,0.4,0l2,0.9
		c0.3,0.1,0.4,0.4,0.3,0.7c0,0,0,0,0,0.1l-6.6,13.9c-0.1,0.1-0.2,0.2-0.3,0.3c-0.1,0-0.3,0-0.5,0l-2-0.9
		C95.1,269.8,95,269.7,95,269.6z"/>
	<path class="st0" d="M103.5,273.5c-0.1-0.1-0.1-0.3,0-0.4l4.9-14.5c0-0.1,0.1-0.3,0.3-0.4s0.3-0.1,0.5,0l1.7,0.6
		c0.1,0,0.3,0.1,0.4,0.2c0.1,0.1,0.1,0.2,0.2,0.3l3,12.2l3.3-9.8c0-0.1,0.1-0.3,0.3-0.4s0.3-0.1,0.5,0l1.9,0.6
		c0.1,0,0.3,0.1,0.4,0.3c0.1,0.1,0.1,0.3,0,0.5l-4.9,14.5c0,0.1-0.1,0.3-0.3,0.3c-0.1,0.1-0.3,0.1-0.4,0l-1.8-0.6
		c-0.3-0.1-0.5-0.3-0.5-0.6l-3.1-11.9l-3.3,9.6c0,0.1-0.1,0.3-0.3,0.3s-0.3,0.1-0.5,0l-1.9-0.6C103.6,273.7,103.5,273.6,103.5,273.5
		z"/>
	<path class="st0" d="M122,279.3c-0.1-0.1-0.1-0.3-0.1-0.4l2.6-15.1c0-0.1,0.1-0.3,0.2-0.4c0.1-0.1,0.3-0.1,0.4-0.1l2.1,0.4
		c0.1,0,0.3,0.1,0.4,0.2c0.1,0.1,0.1,0.3,0.1,0.4l-1,6l6.9,1.2l1-6c0-0.1,0.1-0.3,0.2-0.4c0.1-0.1,0.3-0.1,0.4-0.1l2.1,0.4
		c0.2,0,0.3,0.1,0.4,0.2c0.1,0.1,0.1,0.3,0.1,0.5l-2.6,15.1c0,0.1-0.1,0.3-0.2,0.4c-0.1,0.1-0.3,0.1-0.4,0.1l-2.1-0.4
		c-0.1,0-0.3-0.1-0.4-0.2c-0.1-0.1-0.1-0.3-0.1-0.4l1.1-6.2l-6.9-1.2l-1.1,6.2c0,0.1-0.1,0.3-0.2,0.4c-0.1,0.1-0.3,0.1-0.4,0.1
		l-2.1-0.4C122.2,279.5,122.1,279.4,122,279.3z"/>
	<path class="st0" d="M141.6,282.1c-0.1-0.1-0.2-0.3-0.1-0.4l0.4-15.3c0-0.2,0-0.3,0.2-0.4c0.1-0.1,0.3-0.2,0.4-0.1l10.4,0.3
		c0.2,0,0.3,0.1,0.4,0.2c0.1,0.1,0.2,0.3,0.1,0.4l0,1.6c0,0.1-0.1,0.3-0.2,0.4c-0.1,0.1-0.3,0.1-0.4,0.1l-7.7-0.2l-0.1,4.2l7.2,0.2
		c0.2,0,0.3,0,0.4,0.2c0.1,0.1,0.2,0.3,0.1,0.4l0,1.5c0,0.1-0.1,0.3-0.2,0.4c-0.1,0.1-0.3,0.1-0.4,0.1l-7.2-0.2l-0.1,4.3l7.9,0.2
		c0.3,0,0.6,0.2,0.6,0.6c0,0,0,0,0,0l0,1.6c0,0.1-0.1,0.3-0.2,0.4c-0.1,0.1-0.3,0.1-0.4,0.1l-10.6-0.3
		C141.9,282.3,141.7,282.2,141.6,282.1z"/>
	<path class="st0" d="M158.5,282.1c-0.1-0.1-0.2-0.2-0.2-0.4l-1.2-15.3c0-0.1,0-0.3,0.1-0.4c0.1-0.1,0.2-0.2,0.4-0.2l2.2-0.2
		c0.1,0,0.3,0,0.4,0.1c0.1,0.1,0.2,0.2,0.2,0.4l1.2,15.3c0,0.1,0,0.3-0.1,0.4c-0.1,0.1-0.2,0.2-0.4,0.2l-2.2,0.2
		C158.8,282.2,158.6,282.1,158.5,282.1z"/>
	<path class="st0" d="M167.8,281.3c-0.1-0.1-0.2-0.2-0.2-0.4l-2.8-15.1c0-0.1,0-0.3,0.1-0.5c0.1-0.1,0.2-0.2,0.4-0.2l6-1.1
		c1.9-0.4,3.5-0.2,4.7,0.5s2,1.8,2.3,3.5c0.2,1,0.1,2.1-0.3,3c-0.4,0.9-1.1,1.6-2,2.1l4.5,5.3c0,0.1,0.1,0.1,0.1,0.2
		c0,0.1,0,0.3-0.1,0.4c-0.1,0.1-0.2,0.2-0.3,0.2l-2.1,0.4c-0.2,0-0.4,0-0.6,0c-0.2-0.1-0.3-0.2-0.4-0.4l-4-4.9l-3.2,0.6l1,5.6
		c0,0.1,0,0.3-0.1,0.4c-0.1,0.1-0.2,0.2-0.4,0.2l-2.1,0.4C168.1,281.4,167.9,281.4,167.8,281.3z M172.5,271.5c0.9-0.2,1.6-0.5,2-1
		c0.4-0.5,0.5-1.2,0.4-1.9c-0.1-0.8-0.5-1.4-1.1-1.7c-0.6-0.3-1.3-0.4-2.2-0.3l-3.3,0.6l0.9,4.9L172.5,271.5z"/>
	<path class="st0" d="M186.6,275.9c-1.5-0.6-2.6-2-3.4-4c-0.2-0.4-0.4-1.1-0.7-1.9c-0.3-0.8-0.5-1.5-0.6-1.9c-0.6-2-0.5-3.7,0.3-5.2
		c0.8-1.5,2.2-2.5,4.2-3.2c2-0.7,3.7-0.7,5.2,0c1.5,0.7,2.7,2,3.4,3.9c0.3,0.8,0.6,1.5,0.7,1.9s0.3,1,0.6,1.9c0.6,2,0.6,3.8-0.2,5.2
		c-0.8,1.4-2.2,2.5-4.2,3.2C189.8,276.5,188.1,276.5,186.6,275.9z M193.1,271.5c0.4-0.8,0.4-1.8,0-3.1c-0.3-0.9-0.5-1.5-0.6-1.8
		c-0.1-0.3-0.3-0.9-0.7-1.8c-0.5-1.2-1.1-2-1.9-2.4c-0.8-0.4-1.7-0.4-2.7-0.1c-0.9,0.3-1.6,0.9-2.1,1.7c-0.4,0.8-0.4,1.8,0,3.1
		c0.1,0.4,0.3,1,0.6,1.8c0.3,0.8,0.5,1.4,0.6,1.8c0.5,1.2,1.1,2,1.9,2.4s1.7,0.4,2.7,0.1C192,272.9,192.7,272.3,193.1,271.5
		L193.1,271.5z"/>
	<path class="st0" d="M210.2,267.6c-0.1,0-0.3-0.1-0.4-0.3l-7.9-13.2c-0.1-0.1-0.1-0.3-0.1-0.4c0-0.1,0.1-0.3,0.3-0.4l4.9-3
		c4-2.4,7.1-1.8,9.4,1.9c0.5,0.8,0.8,1.3,1,1.6c0.1,0.3,0.5,0.8,0.9,1.6c1.1,1.9,1.4,3.6,1,5.1c-0.4,1.5-1.6,2.8-3.6,4l-5,3
		C210.5,267.6,210.3,267.6,210.2,267.6z M214.2,262.2c1.1-0.7,1.8-1.4,2-2.2c0.2-0.8,0-1.8-0.7-3c-0.5-0.8-0.7-1.3-0.9-1.5
		c-0.1-0.2-0.4-0.7-0.9-1.5c-0.7-1.1-1.5-1.7-2.3-1.9c-0.8-0.2-1.8,0-3,0.7l-2.5,1.5l5.7,9.5L214.2,262.2z"/>
	<path class="st0" d="M226.4,257.2c-0.1,0-0.3-0.1-0.4-0.2l-9.7-11.9c-0.1-0.1-0.2-0.3-0.1-0.4c0-0.1,0.1-0.3,0.2-0.4l8-6.5
		c0.2-0.2,0.6-0.2,0.8,0c0,0,0,0,0,0l1,1.2c0.1,0.1,0.1,0.3,0.1,0.4c0,0.1-0.1,0.3-0.2,0.4l-6,4.9l2.6,3.2l5.6-4.6
		c0.1-0.1,0.3-0.2,0.4-0.1c0.1,0,0.3,0.1,0.4,0.2l0.9,1.1c0.1,0.1,0.1,0.3,0.1,0.4c0,0.1-0.1,0.3-0.2,0.4l-5.6,4.6l2.7,3.3l6.2-5
		c0.1-0.1,0.3-0.1,0.4-0.1c0.2,0,0.3,0.1,0.4,0.2l1,1.2c0.1,0.1,0.1,0.3,0.1,0.4c0,0.1-0.1,0.3-0.2,0.4l-8.2,6.7
		C226.7,257.2,226.5,257.2,226.4,257.2z"/>
	<path class="st0" d="M246,238.2l-14.9-5.9l-0.2-0.1c-0.1-0.1-0.2-0.2-0.2-0.3c0-0.1,0-0.3,0.1-0.4l1.3-1.6c0.1-0.1,0.3-0.2,0.4-0.3
		c0.1,0,0.3,0,0.4,0l11.9,4.8l-6.8-10.8c-0.1-0.1-0.1-0.3-0.1-0.4c0-0.2,0.1-0.4,0.2-0.5l1.3-1.6c0.1-0.1,0.2-0.2,0.3-0.2
		c0.1,0,0.3,0,0.4,0.1l0.1,0.2l8.4,13.6c0.2,0.3,0.2,0.8-0.1,1.1l-1.7,2C246.8,238.2,246.4,238.3,246,238.2z"/>
	<path class="st0" d="M254.8,225.6c-1.6,0.5-3.2,0.1-5.1-0.9c-0.4-0.2-1-0.6-1.7-1c-0.8-0.5-1.3-0.8-1.7-1.1
		c-1.8-1.2-2.8-2.5-3.1-4.2c-0.3-1.6,0.1-3.3,1.2-5.1c1.1-1.8,2.4-2.9,4-3.3c1.6-0.5,3.3-0.2,5.1,0.9c0.8,0.5,1.4,0.8,1.8,1
		c0.4,0.2,0.9,0.6,1.7,1.1c1.8,1.2,2.8,2.6,3.1,4.2c0.3,1.6-0.1,3.3-1.2,5.1C257.7,224,256.4,225.2,254.8,225.6z M257,218.1
		c-0.2-0.9-0.9-1.7-1.9-2.4c-0.8-0.5-1.3-0.9-1.6-1c-0.3-0.2-0.9-0.5-1.7-1c-1.1-0.6-2.1-0.9-3-0.7c-0.9,0.2-1.6,0.7-2.1,1.6
		c-0.5,0.8-0.7,1.7-0.5,2.6c0.2,0.9,0.9,1.7,1.9,2.4c0.4,0.2,0.9,0.6,1.6,1c0.7,0.4,1.2,0.7,1.6,1c1.1,0.6,2.1,0.9,3,0.7
		c0.9-0.2,1.6-0.7,2.1-1.6C257.1,219.9,257.2,219,257,218.1z"/>
	<path class="st0" d="M264.7,210.9c-0.1,0-0.3,0-0.4,0l-14.1-6.2c-0.1,0-0.3-0.2-0.3-0.3c0-0.1,0-0.3,0-0.4l0.9-2
		c0-0.1,0.2-0.3,0.3-0.3c0.1,0,0.3,0,0.4,0l12,5.3l3-6.8c0-0.1,0.2-0.3,0.3-0.3c0.1,0,0.3,0,0.5,0l1.5,0.7c0.1,0,0.3,0.2,0.3,0.3
		c0,0.1,0,0.3,0,0.5l-4.1,9.4C265,210.7,264.9,210.8,264.7,210.9z"/>
	<path class="st0" d="M271,195.2c-0.1,0.1-0.3,0.1-0.4,0l-12.4-3.9l-1.3,4.2c-0.1,0.3-0.4,0.5-0.7,0.4l0,0l-1.7-0.5
		c-0.1,0-0.3-0.1-0.4-0.3c-0.1-0.1-0.1-0.3,0-0.4l3.6-11.5c0-0.1,0.1-0.3,0.3-0.4c0.1-0.1,0.3-0.1,0.5,0l1.7,0.5
		c0.1,0,0.3,0.1,0.3,0.3c0.1,0.1,0.1,0.3,0,0.5l-1.3,4.1l12.4,3.9c0.1,0,0.3,0.1,0.3,0.3s0.1,0.3,0,0.5l-0.6,2.1
		C271.3,195,271.1,195.1,271,195.2z"/>
	<path class="st0" d="M274,185.8c-0.1,0.1-0.2,0.1-0.4,0.1l-0.2-0.1l-13.9-8.3c-0.4-0.1-0.6-0.6-0.4-0.9l0.5-2.5
		c0-0.4,0.4-0.7,0.7-0.7l16-2.9c0.1,0,0.1,0,0.2,0c0.1,0,0.2,0.1,0.3,0.2c0.1,0.1,0.1,0.2,0.1,0.4l-0.4,2c0,0.2-0.1,0.3-0.2,0.4
		c-0.1,0.1-0.2,0.1-0.3,0.1l-3,0.6l-1.2,6.9l2.6,1.6c0.3,0.1,0.4,0.5,0.3,0.7l-0.4,2C274.1,185.6,274.1,185.7,274,185.8z M270,174.5
		l-7.7,1.3l6.7,3.9L270,174.5z"/>
</g>
<g>
	<path class="st0" d="M41.4,124.5c-0.6,0.7-1.4,1.3-2.4,1.6c-0.8,0.2-1.6,0.3-2.4,0c-0.1,0-0.2-0.1-0.3-0.3c0-0.1-0.1-0.3,0-0.4
		l0.7-2c0-0.1,0.1-0.3,0.2-0.4c0.1-0.1,0.3-0.1,0.4-0.2c0.6,0,1.2-0.2,1.6-0.6c0.5-0.4,1-1.1,1.3-2c0.4-1.1,0.5-1.9,0.3-2.6
		c-0.1-0.6-0.6-1.1-1.2-1.3c-0.4-0.1-0.8-0.1-1.2,0c-0.4,0.2-0.8,0.6-1.1,1c-0.4,0.5-0.9,1.2-1.6,2.2c-1.1,1.6-2.1,2.7-3,3.2
		c-1,0.6-2.1,0.6-3.4,0.1c-0.8-0.3-1.5-0.8-2-1.5c-0.5-0.8-0.8-1.7-0.8-2.6c0-1.1,0.1-2.2,0.6-3.3c0.4-1.1,1-2.1,1.8-2.9
		c0.6-0.7,1.5-1.2,2.4-1.4c0.7-0.2,1.5-0.2,2.2,0c0.1,0,0.2,0.1,0.3,0.3c0,0.1,0.1,0.3,0,0.4l-0.7,2.1c-0.1,0.3-0.4,0.5-0.6,0.5
		c-0.6-0.1-1.1,0.1-1.5,0.5c-0.5,0.4-0.9,1-1.2,1.7c-0.3,0.8-0.4,1.5-0.2,2.1c0.1,0.6,0.6,1,1.1,1.2c0.4,0.1,0.8,0.2,1.2,0
		c0.4-0.2,0.8-0.5,1.1-0.9c0.5-0.6,1-1.3,1.5-1.9c0.6-1,1.3-1.9,2.1-2.8c0.6-0.6,1.2-1,2-1.2c0.8-0.2,1.6-0.1,2.4,0.2
		c0.9,0.3,1.7,0.9,2.2,1.7c0.5,0.8,0.8,1.8,0.8,2.8c0,1.2-0.2,2.4-0.6,3.5C42.8,122.5,42.2,123.6,41.4,124.5z"/>
	<path class="st0" d="M45.8,113.3c-0.1,0-0.3,0-0.4,0l-0.2-0.1l-10.7-12.2c-0.3-0.3-0.4-0.7-0.1-1l1.2-2.3c0.2-0.3,0.5-0.5,0.9-0.5
		l16.1,2.1c0.1,0,0.1,0,0.2,0.1c0.1,0,0.2,0.2,0.2,0.3c0,0.1,0,0.2,0,0.4l-1,1.8c-0.1,0.1-0.2,0.3-0.3,0.4c-0.1,0-0.2,0.1-0.4,0
		l-3.1-0.4l-3.3,6.2l2,2.3c0.2,0.2,0.2,0.6,0.1,0.8l-1,1.8C46,113.2,45.9,113.2,45.8,113.3z M45.5,101.4l-7.7-1.1l5.2,5.8
		L45.5,101.4z"/>
	<path class="st0" d="M56,95.5c-0.1,0-0.3,0-0.4-0.1l-10.7-7.5l-2.5,3.6c-0.2,0.3-0.5,0.3-0.8,0.1l0,0l-1.4-1
		c-0.1-0.1-0.2-0.2-0.3-0.4c0-0.1,0-0.3,0.1-0.4L47,80c0.2-0.3,0.5-0.3,0.8-0.2c0,0,0,0,0,0l1.4,1c0.1,0.1,0.2,0.2,0.2,0.4
		c0,0.1,0,0.3-0.1,0.4l-2.5,3.6l10.7,7.5c0.1,0.1,0.2,0.2,0.2,0.4c0,0.2,0,0.3-0.1,0.4l-1.2,1.8C56.3,95.4,56.1,95.5,56,95.5z"/>
	<path class="st0" d="M62.9,86.4c-0.1,0-0.3,0-0.4-0.1l-11.6-10c-0.1-0.1-0.2-0.2-0.2-0.4c0-0.1,0-0.3,0.1-0.4l1.4-1.7
		c0.1-0.1,0.2-0.2,0.4-0.2c0.1,0,0.3,0,0.4,0.1l11.6,10.1c0.1,0.1,0.2,0.2,0.2,0.4s0,0.3-0.1,0.4l-1.4,1.7
		C63.2,86.4,63.1,86.4,62.9,86.4z"/>
	<path class="st0" d="M69.3,79c-0.9,0.4-1.9,0.5-2.8,0.4c-0.8-0.1-1.6-0.5-2.1-1.1c-0.2-0.2-0.2-0.5,0-0.7c0,0,0,0,0,0l1.5-1.4
		c0.1-0.1,0.2-0.2,0.4-0.2s0.3,0,0.5,0c0.5,0.3,1.1,0.4,1.7,0.2c0.7-0.1,1.3-0.5,2.1-1.2c0.8-0.8,1.3-1.5,1.5-2.1
		c0.2-0.6,0-1.2-0.4-1.7c-0.3-0.3-0.6-0.5-1.1-0.5c-0.5,0-1,0.1-1.4,0.4c-0.6,0.2-1.3,0.6-2.4,1.2c-1.7,1-3,1.5-4.2,1.5
		c-1.1,0-2.2-0.4-3.1-1.4c-0.6-0.6-1-1.4-1.1-2.3c-0.1-0.9,0-1.8,0.4-2.7c0.5-1,1.1-1.9,1.9-2.7c0.8-0.8,1.8-1.4,2.9-1.8
		c0.9-0.3,1.8-0.4,2.7-0.2c0.7,0.1,1.4,0.4,2,0.9c0.1,0.1,0.1,0.2,0.1,0.4s-0.1,0.3-0.2,0.3l-1.6,1.5c-0.2,0.2-0.5,0.3-0.8,0.1
		c-0.5-0.3-1-0.4-1.6-0.3c-0.7,0.1-1.3,0.5-1.8,1c-0.6,0.6-1,1.2-1.2,1.8c-0.1,0.6,0,1.2,0.4,1.6c0.3,0.3,0.6,0.5,1,0.5
		c0.5,0,1-0.1,1.4-0.3c0.8-0.3,1.5-0.7,2.2-1.1c1-0.6,2-1.1,3.1-1.5c0.7-0.3,1.6-0.3,2.4-0.2c0.8,0.2,1.5,0.6,2,1.3
		c0.7,0.7,1.1,1.6,1.2,2.5c0.1,1-0.1,2-0.6,2.9c-0.5,1.1-1.3,2-2.1,2.8C71.5,77.9,70.5,78.6,69.3,79z"/>
	<path class="st0" d="M79.8,70c-0.1,0-0.3-0.1-0.4-0.2l-9-12.5c-0.1-0.1-0.1-0.3-0.1-0.4s0.1-0.3,0.2-0.4l8.3-6
		c0.1-0.1,0.3-0.1,0.4-0.1c0.1,0,0.3,0.1,0.4,0.2l1,1.3c0.1,0.1,0.1,0.3,0.1,0.4c0,0.1-0.1,0.3-0.3,0.4l-6.1,4.4l2.6,3.6l5.8-4.2
		c0.1-0.1,0.3-0.1,0.4-0.1c0.1,0,0.3,0.1,0.4,0.2l1,1.3c0.1,0.1,0.1,0.3,0.1,0.4s-0.1,0.3-0.3,0.4l-5.8,4.2l3.4,4.8
		c0.1,0.1,0.1,0.3,0.1,0.4c0,0.1-0.1,0.3-0.3,0.4l-1.7,1.2C80.1,69.9,79.9,70,79.8,70z"/>
	<path class="st0" d="M89.8,62.7c-0.1,0-0.2-0.1-0.3-0.2l-0.1-0.2l-2.2-16.1c-0.1-0.4,0.1-0.8,0.5-0.9L90,44c0.3-0.2,0.7-0.1,1,0.1
		l12.2,10.7c0,0,0.1,0.1,0.1,0.2c0.1,0.1,0.1,0.3,0,0.4c0,0.1-0.1,0.2-0.2,0.3l-1.8,1c-0.1,0.1-0.3,0.1-0.5,0.1
		c-0.1,0-0.2-0.1-0.3-0.2l-2.4-2L92,57.9l0.4,3.1c0,0.3-0.1,0.6-0.4,0.7l-1.8,1C90.1,62.7,90,62.8,89.8,62.7z M96.2,52.6l-5.8-5.1
		l1.1,7.7L96.2,52.6z"/>
	<path class="st0" d="M112.1,57.5c-0.5-0.1-0.7-0.2-0.8-0.4c0-0.1,0-0.2,0-0.2l0.3-0.5c0-0.1,0.1-0.1,0.2-0.2c0.2,0,0.4,0,0.5,0
		c0.3,0,0.6,0,0.8-0.1c0.2-0.1,0.4-0.2,0.5-0.4c0.1-0.2,0.1-0.4,0-0.6c-0.1-0.2-0.2-0.4-0.4-0.4c-0.2-0.1-0.5-0.1-0.7,0
		c-0.2,0.1-0.3,0.2-0.5,0.3c-0.1,0.1-0.2,0.2-0.4,0.2c-0.1,0-0.2,0-0.4,0l-0.6-0.3c-0.1,0-0.1-0.1-0.2-0.2c0-0.2,0-0.3,0-0.5
		l0.1-1.2c-1.7,0.4-3.2,0.2-4.5-0.5c-1.2-0.7-2.2-1.9-2.9-3.6c-0.2-0.4-0.4-1-0.7-1.9c-0.3-0.9-0.6-1.6-0.7-2
		c-0.6-1.9-0.6-3.6,0.2-5.1s2.1-2.6,4.1-3.3c1.2-0.5,2.4-0.6,3.7-0.6c1.1,0.1,2.1,0.4,2.9,1c0.8,0.6,1.4,1.4,1.8,2.3l0,0
		c0,0.1,0,0.2,0,0.4c0,0.1-0.2,0.2-0.3,0.2l-2.1,0.8c-0.1,0.1-0.3,0.1-0.4,0c-0.1-0.1-0.3-0.2-0.4-0.3c-0.6-0.8-1.2-1.3-1.9-1.5
		c-0.7-0.2-1.5-0.1-2.4,0.2c-2.1,0.8-2.8,2.4-2,4.8c0.1,0.4,0.3,1,0.6,1.8c0.3,0.8,0.5,1.5,0.7,1.9c1,2.4,2.5,3.1,4.6,2.4
		c0.9-0.3,1.6-0.8,2-1.4c0.4-0.6,0.6-1.4,0.5-2.4c0-0.2,0-0.3,0-0.5c0.1-0.1,0.2-0.2,0.4-0.3l2.1-0.8c0.1,0,0.3,0,0.4,0
		s0.2,0.2,0.2,0.3c0.3,0.9,0.4,2,0.1,2.9c-0.3,1-0.8,1.9-1.6,2.7c-0.9,0.9-2,1.5-3.2,1.9l-0.1,1.1c0.1-0.1,0.2-0.2,0.3-0.2
		s0.2-0.1,0.4-0.2c0.5-0.2,1-0.2,1.4,0.1c1,0.6,1.3,1.8,0.9,2.8c-0.3,0.6-0.7,0.9-1.3,1.1C113.1,57.5,112.6,57.6,112.1,57.5z"/>
	<path class="st0" d="M120.2,49.4c-0.1-0.1-0.2-0.2-0.2-0.3v-0.2l2.5-16.1c0-0.4,0.3-0.7,0.7-0.7l2.5-0.5c0.4-0.1,0.7,0.1,0.9,0.4
		l8.6,13.7c0,0.1,0,0.1,0.1,0.2c0,0.1,0,0.3-0.1,0.4c-0.1,0.1-0.2,0.2-0.3,0.2l-2,0.4c-0.2,0-0.3,0-0.5,0c-0.1,0-0.2-0.1-0.3-0.3
		l-1.7-2.6l-6.9,1.4l-0.5,3c0,0.3-0.3,0.5-0.6,0.6l-2,0.4C120.4,49.5,120.3,49.4,120.2,49.4z M124.7,30.5c-0.3,0-0.6-0.1-0.8-0.2
		c0,0-0.2,0-0.4-0.1c-0.2,0-0.4-0.1-0.6,0c-0.1,0-0.2,0.1-0.3,0.2c-0.1,0.1-0.1,0.2-0.2,0.3c0,0.1-0.1,0.2-0.2,0.3
		c-0.1,0.1-0.1,0.1-0.2,0.1l-1.1,0.2c-0.1,0-0.2,0-0.3,0c-0.1,0-0.1-0.1-0.2-0.3c-0.1-0.4-0.1-0.8,0-1.2c0.1-0.4,0.3-0.8,0.6-1.2
		c0.3-0.4,0.7-0.6,1.2-0.7c0.3,0,0.5-0.1,0.8,0c0.3,0,0.6,0.1,0.8,0.2c0.2,0.1,0.4,0.1,0.6,0.2c0.1,0,0.3,0,0.4,0
		c0.1,0,0.2-0.1,0.3-0.2c0.1-0.1,0.1-0.2,0.2-0.3c0-0.1,0.1-0.2,0.2-0.3c0-0.1,0.1-0.1,0.2-0.1l1.1-0.2c0.1,0,0.2,0,0.3,0.1
		c0.1,0.1,0.1,0.2,0.2,0.3c0.1,0.4,0,0.8,0,1.2c-0.1,0.4-0.3,0.8-0.6,1.2c-0.3,0.4-0.7,0.6-1.2,0.7
		C125.2,30.5,124.9,30.5,124.7,30.5L124.7,30.5z M129.1,41.5l-4.1-6.6l-1.2,7.7L129.1,41.5z"/>
	<path class="st0" d="M139.1,44.7c-1.2-1-2-2.6-2.2-4.7c0-0.5-0.1-1.1-0.1-2c0-0.9-0.1-1.6-0.1-2c-0.1-2.1,0.5-3.7,1.7-4.9
		c1.2-1.2,2.8-1.8,4.8-2c2.1-0.1,3.8,0.3,5.1,1.4c1.3,1,2,2.6,2.2,4.7c0.1,0.9,0.1,1.6,0.2,2c0,0.4,0,1.1,0.1,2
		c0,2.1-0.5,3.8-1.6,4.9c-1.1,1.2-2.8,1.8-4.9,1.9C142.1,46.1,140.4,45.7,139.1,44.7z M146.5,42.2c0.6-0.7,0.9-1.7,0.8-3
		c0-0.9,0-1.6-0.1-1.9c0-0.4-0.1-1-0.2-1.9c-0.1-1.3-0.5-2.3-1.2-2.9c-0.7-0.6-1.5-0.9-2.6-0.8c-0.9,0-1.8,0.4-2.4,1.1
		c-0.6,0.7-0.9,1.7-0.8,3c0,0.5,0,1.1,0.1,1.9c0,0.8,0.1,1.4,0.1,1.9c0.1,1.3,0.5,2.3,1.2,2.9c0.6,0.6,1.5,0.9,2.6,0.8
		C145.1,43.2,145.9,42.9,146.5,42.2L146.5,42.2z"/>
	<path class="st0" d="M162.7,44.6c-1-1.3-1.4-2.9-1.2-4.9c0-0.5,0.1-1.2,0.3-2.2c0.1-1,0.3-1.7,0.3-2.2c0.4-1.9,1.2-3.3,2.6-4.3
		c1.4-0.9,3.1-1.2,5.2-0.9c1.3,0.1,2.5,0.6,3.6,1.2c0.9,0.5,1.6,1.3,2.1,2.1c0.4,0.7,0.6,1.5,0.5,2.3v0c0,0.1-0.1,0.2-0.2,0.3
		c-0.1,0.1-0.2,0.1-0.4,0.1l-2.4-0.3c-0.1,0-0.2,0-0.3-0.1c-0.1-0.1-0.1-0.2-0.2-0.3c-0.1-0.6-0.5-1.2-0.9-1.7
		c-0.5-0.5-1.2-0.8-2.2-0.9c-1.1-0.2-2,0-2.7,0.5c-0.7,0.5-1.2,1.4-1.4,2.6c-0.1,0.5-0.2,1.1-0.3,2.1c-0.1,0.9-0.2,1.6-0.3,2.1
		c-0.3,2.5,0.8,3.9,3.1,4.2c1.1,0.2,2,0,2.8-0.5c0.7-0.5,1.2-1.3,1.4-2.5l0.1-0.7l-2.9-0.4c-0.1,0-0.3-0.1-0.4-0.2
		c-0.1-0.1-0.1-0.3-0.1-0.4l0.2-1.2c0-0.1,0.1-0.3,0.2-0.4c0.1-0.1,0.3-0.1,0.4-0.1l5.6,0.8c0.1,0,0.3,0.1,0.4,0.2
		c0.1,0.1,0.1,0.3,0.1,0.4l-0.4,2.4c-0.1,1.2-0.6,2.3-1.3,3.3c-0.7,0.9-1.7,1.5-2.8,1.8c-1.2,0.4-2.5,0.5-3.8,0.2
		C165.4,46.7,163.8,45.9,162.7,44.6z"/>
	<path class="st0" d="M176.5,48c-0.1-0.1-0.1-0.3,0-0.4l0.1-0.2l9.8-13c0.2-0.3,0.6-0.5,1-0.3l2.5,0.7c0.4,0.1,0.6,0.4,0.6,0.8
		l1.1,16.2c0,0.1,0,0.1,0,0.2c0,0.1-0.1,0.2-0.2,0.3c-0.1,0.1-0.2,0.1-0.4,0l-2-0.6c-0.2,0-0.3-0.1-0.4-0.3
		c-0.1-0.1-0.1-0.2-0.1-0.4l-0.2-3.1l-6.7-2l-1.9,2.4c-0.2,0.2-0.5,0.3-0.8,0.2l-2-0.6C176.6,48.2,176.5,48.1,176.5,48z M188.1,45.3
		l-0.5-7.7l-4.6,6.2L188.1,45.3z"/>
	<path class="st0" d="M194.1,53.6c0-0.1,0-0.3,0-0.4l6.5-13.9c0-0.1,0.2-0.3,0.3-0.3c0.1,0,0.3,0,0.4,0l5.5,2.6
		c1.8,0.8,2.9,1.8,3.5,3.1c0.6,1.3,0.6,2.7-0.1,4.2c-0.4,0.9-1.1,1.8-2,2.3c-0.9,0.5-1.8,0.7-2.8,0.6l0.6,6.9c0,0.1,0,0.2,0,0.3
		c0,0.1-0.2,0.2-0.3,0.3c-0.1,0-0.3,0-0.4,0l-1.9-0.9c-0.2-0.1-0.4-0.2-0.5-0.4c-0.1-0.2-0.1-0.4-0.1-0.6l-0.4-6.4l-3-1.4l-2.4,5.1
		c0,0.1-0.2,0.2-0.3,0.3c-0.1,0-0.3,0-0.4,0l-1.9-0.9C194.2,53.8,194.1,53.7,194.1,53.6z M203.6,48.3c0.9,0.4,1.6,0.5,2.2,0.3
		c0.6-0.2,1.1-0.6,1.4-1.4c0.4-0.7,0.4-1.4,0.1-2c-0.3-0.6-0.8-1.1-1.7-1.5l-3-1.4l-2.1,4.5L203.6,48.3z"/>
	<path class="st0" d="M207.6,60c0-0.1,0-0.3,0.1-0.4l0.2-0.1l13.1-9.6c0.3-0.3,0.7-0.3,1,0l2.2,1.4c0.3,0.2,0.5,0.6,0.4,0.9
		L220.9,68c0,0.1,0,0.1-0.1,0.2c-0.1,0.1-0.2,0.2-0.3,0.2s-0.2,0-0.4-0.1l-1.7-1.1c-0.1-0.1-0.3-0.2-0.3-0.4c0-0.1,0-0.2,0-0.4
		l0.6-3l-5.9-3.8l-2.5,1.8c-0.2,0.2-0.6,0.2-0.8,0l-1.7-1.1C207.7,60.2,207.6,60.1,207.6,60z M219.5,60.7l1.8-7.6l-6.2,4.6
		L219.5,60.7z"/>
	<path class="st0" d="M222.9,70.4c0-0.1,0-0.3,0.1-0.4l10.2-11.4c0.1-0.1,0.2-0.2,0.4-0.2c0.1,0,0.3,0,0.4,0.1l1.4,1.2
		c0.1,0.1,0.2,0.2,0.2,0.4c0,0.1,0,0.2,0,0.4l-2,12.4l6.9-7.7c0.1-0.1,0.2-0.2,0.4-0.2c0.1,0,0.3,0,0.4,0.1l1.5,1.3
		c0.2,0.2,0.3,0.6,0.1,0.8l0,0l-10.2,11.4c-0.1,0.1-0.2,0.2-0.4,0.2c-0.1,0-0.3,0-0.4-0.1l-1.4-1.2c-0.2-0.2-0.3-0.5-0.3-0.7
		l1.8-12.2l-6.7,7.6c-0.1,0.1-0.2,0.2-0.4,0.2c-0.1,0-0.3,0-0.4-0.2l-1.5-1.3C223,70.7,222.9,70.5,222.9,70.4z"/>
	<path class="st0" d="M237.9,85c0-0.1,0.1-0.3,0.2-0.4l10-8.4l-2.8-3.3c-0.1-0.1-0.1-0.3-0.1-0.4s0.1-0.3,0.2-0.4l1.3-1.1
		c0.1-0.1,0.3-0.2,0.4-0.2c0.1,0,0.3,0.1,0.4,0.2l7.8,9.2c0.2,0.2,0.2,0.6,0,0.8c0,0,0,0,0,0l-1.3,1.1c-0.1,0.1-0.3,0.1-0.4,0.1
		c-0.2,0-0.3-0.1-0.4-0.2l-2.8-3.3l-10,8.4c-0.1,0.1-0.3,0.1-0.4,0.1c-0.2,0-0.3-0.1-0.4-0.2l-1.4-1.7
		C237.9,85.2,237.9,85.1,237.9,85z"/>
	<path class="st0" d="M245,93.9c0-0.1,0.1-0.3,0.2-0.4l12.6-8.7c0.1-0.1,0.3-0.1,0.4-0.1c0.1,0,0.3,0.1,0.4,0.2l1.3,1.8
		c0.2,0.2,0.1,0.6-0.1,0.7c0,0,0,0-0.1,0l-12.6,8.7c-0.1,0.1-0.3,0.1-0.4,0.1c-0.1,0-0.3-0.1-0.4-0.2l-1.3-1.8
		C245,94.2,244.9,94.1,245,93.9z"/>
	<path class="st0" d="M249.4,100.4c0-0.1,0.1-0.3,0.3-0.3l13.5-7.3c0.1-0.1,0.3-0.1,0.5-0.1c0.1,0,0.3,0.1,0.3,0.3l2.7,5.1
		c2.2,4.1,1.4,7.1-2.3,9.3c-0.8,0.5-1.3,0.8-1.6,0.9c-0.3,0.1-0.8,0.4-1.6,0.8c-2,1-3.7,1.2-5.1,0.7c-1.4-0.5-2.7-1.8-3.8-3.8
		l-2.8-5.2C249.4,100.7,249.3,100.5,249.4,100.4z M254.6,104.6c0.6,1.2,1.3,1.8,2.1,2.1c0.8,0.2,1.8,0,3-0.6
		c0.8-0.4,1.4-0.7,1.6-0.8c0.2-0.1,0.7-0.4,1.5-0.9c1.1-0.6,1.8-1.4,2-2.2c0.2-0.8,0-1.8-0.6-3l-1.4-2.6l-9.8,5.3L254.6,104.6z"/>
	<path class="st0" d="M256.6,113.9c0-0.1,0.1-0.2,0.3-0.3l0.2,0l16.2,0.1c0.4,0,0.7,0.2,0.8,0.6l0.9,2.4c0.1,0.4,0,0.7-0.3,1
		l-12.4,10.5c0,0-0.1,0.1-0.2,0.1c-0.1,0-0.3,0-0.4,0s-0.2-0.1-0.2-0.3l-0.7-1.9c-0.1-0.1-0.1-0.3,0-0.5c0-0.1,0.1-0.2,0.2-0.3
		l2.3-2l-2.4-6.6l-3.1,0c-0.3,0-0.6-0.2-0.6-0.5l-0.7-1.9C256.5,114.2,256.5,114.1,256.6,113.9z M265.7,121.7l5.9-5l-7.7,0
		L265.7,121.7z"/>
</g>
<g>
	<g>
		<path class="st1" d="M114.3,160.7c-3.5-1.6-6-3.6-7.7-5.9c-1.7-2.4-2.5-4.7-2.6-7.1c0-0.5,0.2-0.9,0.5-1.2
			c0.3-0.3,0.8-0.5,1.2-0.5h10.8c0.5,0,1,0.1,1.5,0.4c0.4,0.3,0.8,0.7,1,1.2c1,2.6,3.7,3.8,8.3,3.8c2.6,0,4.6-0.6,6-1.8
			c1.4-1.2,2.1-2.8,2.1-4.9c0-3.9-2.6-5.9-7.8-5.9h-8.8c-1.1,0-2-0.9-2-2c0,0,0,0,0,0v-4.6c0-1.2,0.5-2.1,1.3-2.7l12.6-10.4H109
			c-1.1,0-1.9-0.9-2-2v-7.8c0-0.5,0.2-1.1,0.6-1.5c0.4-0.4,0.9-0.6,1.4-0.6h36.6c0.5,0,1.1,0.2,1.4,0.6c0.4,0.4,0.6,0.9,0.6,1.5v7
			c0,1-0.4,2-1.2,2.6l-11.6,10.6l0.6,0.2c4.7,0.7,8.4,2.3,11.2,4.9s4.2,6.3,4.2,11.1c0,3.5-1,6.6-3,9.2c-2,2.6-4.8,4.7-8.3,6.1
			c-3.5,1.4-7.6,2.1-12.1,2.1C122.1,163.1,117.8,162.3,114.3,160.7z"/>
		<path class="st1" d="M164.1,157.3c-3.8-3.8-5.8-8.8-6.2-14.9c-0.1-2.8-0.2-5.4-0.2-7.6c0-2.3,0-4.9,0.2-7.8
			c0.2-3.9,1.2-7.4,3-10.5c1.8-3.1,4.3-5.5,7.6-7.3c3.3-1.8,7.4-2.7,12.1-2.7c4.8,0,8.8,0.9,12.2,2.7c3.4,1.8,5.9,4.2,7.7,7.3
			c1.8,3.1,2.7,6.5,3,10.5c0.1,1.5,0.2,4.1,0.2,7.8c0,3.7,0,6.2-0.2,7.6c-0.4,6.2-2.4,11.2-6.2,14.9c-3.8,3.8-9.3,5.7-16.6,5.7
			C173.3,163,167.8,161.1,164.1,157.3z M186,148.8c1.2-1.6,1.8-3.9,2-6.8c0.1-1.5,0.2-4,0.2-7.4s0-5.8-0.2-7.2
			c-0.1-2.8-0.8-5.1-2-6.7c-1.2-1.7-3-2.5-5.5-2.5c-4.7,0-7.2,3.1-7.5,9.2c0,1.4-0.1,3.8-0.1,7.2c0,3.4,0,5.9,0.1,7.4
			c0.3,6.1,2.8,9.2,7.5,9.2C183,151.2,184.8,150.4,186,148.8L186,148.8z"/>
	</g>
	<g>
		<path class="st1" d="M102.5,204.6c-0.2-0.2-0.3-0.5-0.3-0.8v-31.3c0-0.3,0.1-0.6,0.3-0.8c0.2-0.2,0.5-0.3,0.8-0.3h10.9
			c4.8,0,8.3,1.1,10.4,3.2s3.3,5.4,3.4,9.7c0,0.9,0,2.2,0,3.7c0,1.6,0,2.8,0,3.8c-0.1,3-0.6,5.5-1.5,7.4c-0.9,1.9-2.4,3.4-4.3,4.2
			c-1.9,0.9-4.5,1.4-7.7,1.4h-11.1C103,204.9,102.7,204.8,102.5,204.6z M114.2,200.8c2.2,0,4-0.3,5.2-0.9c1.3-0.6,2.3-1.6,2.8-2.9
			c0.6-1.3,0.9-3.1,1-5.3c0.1-1.9,0.1-3.1,0.1-3.6c0-0.5,0-1.7-0.1-3.6c-0.1-3.2-0.8-5.5-2.3-6.9c-1.4-1.4-3.8-2.2-7-2.2h-7v25.4
			L114.2,200.8L114.2,200.8z"/>
		<path class="st1" d="M135.5,204.6c-0.2-0.2-0.3-0.5-0.3-0.8v-31.3c0-0.6,0.4-1.1,1-1.1c0,0,0,0,0.1,0h2.5c0.3,0,0.6,0.1,0.8,0.3
			c0.2,0.2,0.3,0.5,0.3,0.8v31.3c0,0.6-0.4,1.1-1,1.1c0,0,0,0-0.1,0h-2.5C136,204.9,135.7,204.8,135.5,204.6z"/>
		<path class="st1" d="M145.3,204.6c-0.2-0.2-0.3-0.4-0.3-0.7c0-0.2,0-0.4,0-0.5l11.9-31c0.2-0.7,0.8-1.1,1.5-1.1h3.3
			c0.7,0,1.3,0.4,1.5,1.1l11.8,31l0.1,0.5c0,0.5-0.4,0.9-1,1h-2.4c-0.3,0-0.6-0.1-0.8-0.3c-0.2-0.1-0.3-0.3-0.4-0.6l-2.6-6.8h-15.7
			l-2.6,6.8c-0.1,0.2-0.2,0.4-0.4,0.6c-0.2,0.2-0.5,0.3-0.8,0.3H146C145.8,204.9,145.5,204.8,145.3,204.6z M166.6,193.2l-6.5-17
			l-6.5,17H166.6z"/>
		<path class="st1" d="M183.8,204.2c-1.9-0.8-3.4-1.9-4.4-3.3c-1-1.2-1.6-2.8-1.6-4.4c0-0.3,0.1-0.5,0.3-0.7
			c0.2-0.2,0.5-0.3,0.7-0.3h2.4c0.6,0,1,0.3,1.2,1c0.3,1.3,1.1,2.5,2.5,3.5c1.3,1,3.3,1.4,5.7,1.4c2.6,0,4.6-0.5,6-1.4s2-2.3,2-4
			c0-1-0.3-1.9-1-2.6c-0.6-0.7-1.6-1.3-2.9-1.8c-1.3-0.5-3.2-1.2-5.7-1.9c-2.5-0.7-4.5-1.4-5.9-2.3c-1.5-0.8-2.6-1.8-3.3-3
			c-0.7-1.2-1.1-2.7-1.1-4.4c0-1.7,0.5-3.3,1.4-4.6c0.9-1.4,2.3-2.4,4.1-3.2c1.8-0.8,3.8-1.2,6.3-1.2c2.5,0,4.6,0.4,6.4,1.3
			c1.8,0.9,3.1,2,4.1,3.3s1.4,2.7,1.5,4c0,0.2-0.1,0.5-0.3,0.7c-0.2,0.2-0.5,0.3-0.7,0.3h-2.5c-0.7,0-1.1-0.3-1.2-0.9
			c-0.2-1.3-0.9-2.4-2.3-3.3c-1.3-0.9-3-1.3-4.9-1.3c-2.2,0-3.9,0.4-5.1,1.2c-1.2,0.8-1.9,2.1-1.9,3.7c0,1,0.3,1.9,0.9,2.7
			c0.6,0.7,1.5,1.3,2.7,1.8c1.7,0.7,3.5,1.3,5.3,1.8c2.7,0.7,4.8,1.5,6.4,2.3c1.6,0.8,2.7,1.8,3.5,2.9s1.2,2.6,1.2,4.4
			c0,3-1.2,5.3-3.5,7c-2.3,1.7-5.4,2.5-9.3,2.5C188,205.4,185.7,205,183.8,204.2z"/>
	</g>
</g>
<polygon class="st0" points="33.1,148.8 30,150.4 30.6,146.9 28.1,144.4 31.6,143.9 33.1,140.8 34.7,143.9 38.2,144.4 35.7,146.9 
	36.3,150.4 "/>
<polygon class="st0" points="271.4,148.3 268,150 268.7,146.3 266,143.7 269.7,143.1 271.4,139.7 273.1,143.1 276.8,143.7 
	274.1,146.3 274.7,150 "/>
</svg>
