<svg xmlns="http://www.w3.org/2000/svg" viewBox="0 0 720.5 642.21"><defs><style>.cls-1{fill:#49c174;}.cls-2{fill:#e8ceb8;}.cls-3{fill:#9c9e9f;}.cls-4,.cls-9{fill:#fff;}.cls-5{fill:#c6c7c8;}.cls-6{fill:#f8b334;}.cls-7{fill:#1a171b;}.cls-8{fill:#f6f6f6;}.cls-9{font-size:151.27px;font-family:Rubik-Bold, Rubik;font-weight:700;}</style></defs><title>14903-NPZG11</title><g id="Capa_2" data-name="Capa 2"><circle class="cls-1" cx="400" cy="320.5" r="320.5"></circle></g><g id="Capa_1" data-name="Capa 1"><path class="cls-2" d="M251,555.92c-11,3.41-25.46,5-42,4L207,489a365.08,365.08,0,0,0,45.92-.8Z" transform="translate(0 -77.5)"></path><path class="cls-3" d="M447.53,416.62,451,407c17.79-18.47-1.37-20.53-1.37-20.53-18.47,4.79-19.16,14.5-23.27,21.22-7.64,12.51-24.59,29.49-29,33.84,2.64-.85,5.29-1.66,7.81-2.36C405.1,439.2,433.16,422.09,447.53,416.62Z" transform="translate(0 -77.5)"></path><path class="cls-4" d="M364.18,448.69c-3.87-2.57,3.12-10.68,4.65-11.86,14.76-11.35,25.31-16.54,29.43-23.27,15.6-25.48-12.17-24.06-21.22-19.16-7.82,4.24-11,11.63-47.22,26.69-68.07,28.26-70.49,60.22-70.49,60.22a98.71,98.71,0,0,1-19.62,5.79l9.72,75.31c25.66-6.41,34.33-11.24,49.66-19.41,13.3-7.08,62-30,78.63-30.89,25.06-1.42,28.39-10.7,34.22-18.48,5.26-7,26.69-17.79,26.69-17.79,17.8-6.16,31.48-19.16,31.48-19.16l30.8-39.7c8.21-2.05,10.27-5.47,10.27-5.47l.7-2.17c.24-3.87-.74-6.8-2.92-8.7-5.08-4.42-14.79-1.72-15.67-1.47-6.63.6-14.8,5.3-24.28,14a136.15,136.15,0,0,0-12.17,12.73c-8.89,1.59-29.85,19.83-31.47,21.25-10.56,3.94-40.79,11.71-42.87,12.24-10.38-2.1-15.35-6.81-17.61-10Z" transform="translate(0 -77.5)"></path><path class="cls-5" d="M499.92,387.58h-.28a125.61,125.61,0,0,0-24.28,7.09C462.52,399.81,448.13,416,448,416.15l-.08.1-.12,0c-14.16,5.4-42.07,22.37-42.35,22.54l-.12.06c-12.16,3.38-27.86,9.5-28,9.57-5.91,1.69-10,2.12-12.34,1.32,2.26,3.21,7.23,7.91,17.62,10,2.07-.53,32.3-8.3,42.86-12.24,1.62-1.42,22.58-19.65,31.48-21.24a137.8,137.8,0,0,1,12.16-12.74c9.48-8.68,17.65-13.38,24.28-14,.88-.26,10.59-2.95,15.67,1.47,2.19,1.9,3.16,4.82,2.93,8.7l4.28-6.43c.51-4.45-.42-8-2.76-10.67C509.2,387.82,501.44,387.58,499.92,387.58Z" transform="translate(0 -77.5)"></path><rect class="cls-4" x="190.85" y="405.07" width="29.15" height="99.76"></rect><circle class="cls-6" cx="206" cy="489.5" r="7.5"></circle><rect class="cls-7" y="405.07" width="190.52" height="104.29"></rect><rect class="cls-4" x="35" y="401.24" width="124.64" height="240.97"></rect><path class="cls-8" d="M633,388c-5.75,3.48-29,3.73-29,3.73H240s-23.45.44-29.5-3.23c-4.62-2.8-8.8-15.95-8.8-15.95H640.88S637.62,385.2,633,388Z" transform="translate(0 -77.5)"></path><text class="cls-9" transform="translate(198.5 258.74)">R$ 50</text></g></svg>