<svg xmlns="http://www.w3.org/2000/svg" viewBox="0 0 697.19 641"><defs><style>.cls-1{isolation:isolate;}.cls-2{fill:#3797f3;}.cls-3{fill:#757575;}.cls-4{fill:#595959;}.cls-5{fill:#3d3d3d;}.cls-6{fill:#2b2b2b;}.cls-7{fill:#161616;}.cls-8{fill:#707070;}.cls-9{fill:#878787;}.cls-10{fill:#a7a9ac;}.cls-11{fill:#d1d3d4;}.cls-12{fill:#b22d2d;}.cls-13{fill:#ff4d4d;}.cls-14{fill:#282828;}.cls-15{fill:#bcbec0;mix-blend-mode:multiply;}.cls-16{fill:#262626;}.cls-17{fill:#7aa537;}.cls-18{fill:#8dc63f;}</style></defs><title>credit_card</title><g class="cls-1"><g id="Capa_2" data-name="Capa 2"><circle class="cls-2" cx="355.72" cy="320.5" r="320.5"></circle><path class="cls-3" d="M703.62,237.13s31,41.26,36.8,73.43-13.81,57.84-24.08,73.12S656,473.41,647.9,483.89s-13.37,14.78-30.62,22.43-26.88,13.43-68.62,6.28S369.37,521.9,272,611.8c0,0-46.34,48.41-74.9,55s-42.48,5.37-64.77-7.43S78.2,624.26,66.05,606c0,0-17.31-34-20.13-59.26S39,510.16,80.31,477.45s184.46-147.08,328-206.68c0,0,154.91-54.75,186.54-50.64S694.43,230.89,703.62,237.13Z" transform="translate(-44.28 -77.5)"></path><path class="cls-4" d="M246.44,369.71S138,443.09,98.28,484.81c0,0-21.86,17.17-20,24.82s14.75,32.54,47.52,33.44c0,0,17.17,2.51,30.88-9S341.78,399.28,341.78,399.28,271.72,390.14,246.44,369.71Z" transform="translate(-44.28 -77.5)"></path><path class="cls-5" d="M254.56,375.11c-46.2,39-100.18,68.87-143.69,111-9.46,9.15-19.1,21.67-15.07,34.2,3.31,10.29,14.15,15.18,23.62,18.32,4.07,1.35,9.37,2.46,13.88,4.55a40.88,40.88,0,0,0,23.41-9.11c13.72-11.51,185.07-134.78,185.07-134.78S284.13,391.76,254.56,375.11Z" transform="translate(-44.28 -77.5)"></path><path class="cls-4" d="M348.35,394.78s-61.55-4.26-95.48-29.61c0,0,111.4-76.11,182.76-97.27l97,15.84S372.77,372.47,348.35,394.78Z" transform="translate(-44.28 -77.5)"></path><path class="cls-6" d="M115,598.05s2.77,11.91,4.8,19.47c0,0-33.23-9.44-48.88-23.22s-14-19.38-14-19.38L56.11,564S81.87,585.4,115,598.05Z" transform="translate(-44.28 -77.5)"></path><path class="cls-7" d="M60.56,567.5l2.84,8.79s26.34,27.1,53.55,29.8c-1.08-4.47-1.91-8-1.91-8C90.07,588.53,69.3,574.07,60.56,567.5Z" transform="translate(-44.28 -77.5)"></path><path class="cls-6" d="M525,285.12l-89.22-14.57-27.85,10.22s59.33,14.34,98.78,14Z" transform="translate(-44.28 -77.5)"></path><path class="cls-7" d="M518.33,288.63l-82.12-13.41L416,282.62c17.58,3.86,60.08,12.41,90.66,12.12Z" transform="translate(-44.28 -77.5)"></path><path class="cls-8" d="M473.19,258l73.17,13.08s81.44-29.21,132.53-36l-88-12.39a14.81,14.81,0,0,0-4.79.1c-12.4,2.28-69.87,13.44-113.33,31.35A2,2,0,0,0,473.19,258Z" transform="translate(-44.28 -77.5)"></path><path class="cls-9" d="M439.65,331.3S367.17,375,350.3,388l-83.61-25.79,82.55-50.82Z" transform="translate(-44.28 -77.5)"></path><path class="cls-10" d="M259.09,421l13.16-2.66,2-1.37a1.88,1.88,0,0,1,1.53-.26l2,.5,11.82-2.38,1.77,7.2h0a1.89,1.89,0,0,1-1.13,1.85c-12.95,5.8-22.68,5.84-27.95,5.13a1.84,1.84,0,0,1-1.54-1.33h0Z" transform="translate(-44.28 -77.5)"></path><path class="cls-11" d="M272.65,410.37,259.87,419a1.9,1.9,0,0,0,.78,3.47c5.28.71,15,.67,28-5.13a1.91,1.91,0,0,0-.29-3.6l-14.13-3.58A1.89,1.89,0,0,0,272.65,410.37Z" transform="translate(-44.28 -77.5)"></path><path class="cls-10" d="M228,443.79l13.16-2.65,2-1.37a1.89,1.89,0,0,1,1.53-.27l2,.51,11.82-2.39,1.77,7.21h0a1.88,1.88,0,0,1-1.13,1.86c-12.94,5.8-22.67,5.83-28,5.12a1.81,1.81,0,0,1-1.53-1.33h0Z" transform="translate(-44.28 -77.5)"></path><path class="cls-11" d="M241.59,433.13l-12.77,8.57a1.91,1.91,0,0,0,.77,3.48c5.28.7,15,.67,28-5.13a1.91,1.91,0,0,0-.3-3.6l-14.12-3.59A2,2,0,0,0,241.59,433.13Z" transform="translate(-44.28 -77.5)"></path><path class="cls-10" d="M166.76,492l13.15-2.66,2-1.36a1.89,1.89,0,0,1,1.53-.27l2,.51,11.81-2.39,1.78,7.2H199a1.89,1.89,0,0,1-1.12,1.86c-12.95,5.8-22.68,5.83-28,5.12a1.83,1.83,0,0,1-1.53-1.33h0Z" transform="translate(-44.28 -77.5)"></path><path class="cls-11" d="M180.32,481.35l-12.78,8.57a1.9,1.9,0,0,0,.78,3.47c5.27.71,15,.68,28-5.12a1.92,1.92,0,0,0-.29-3.61l-14.13-3.58A1.88,1.88,0,0,0,180.32,481.35Z" transform="translate(-44.28 -77.5)"></path><path class="cls-10" d="M198.1,467.66,211.25,465l2-1.36a1.91,1.91,0,0,1,1.54-.27l2,.51,11.81-2.39,1.78,7.2h0a1.91,1.91,0,0,1-1.13,1.86c-12.95,5.8-22.68,5.83-28,5.12a1.83,1.83,0,0,1-1.53-1.33h0Z" transform="translate(-44.28 -77.5)"></path><path class="cls-11" d="M211.66,457l-12.78,8.57a1.9,1.9,0,0,0,.78,3.47c5.27.71,15,.68,28-5.12a1.92,1.92,0,0,0-.29-3.61l-14.13-3.58A1.88,1.88,0,0,0,211.66,457Z" transform="translate(-44.28 -77.5)"></path><path class="cls-10" d="M220.89,409.37l-.07-.31a7.15,7.15,0,0,1-.19-.92l-1.32-6.22,3.94-.41a21.78,21.78,0,0,1,3.4-2.91l4.37,2.1,7.76-.81L240,405l-13.31,10.63s-4.46-2.4-5.79-6.23Z" transform="translate(-44.28 -77.5)"></path><path class="cls-10" d="M263.89,406.5l1.6,6.46s-10.33,13.44-22.58,9.83c0,0-5.69-1.07-7-10.3Z" transform="translate(-44.28 -77.5)"></path><path class="cls-10" d="M190,430.7l-.06-.31a6.83,6.83,0,0,1-.2-.92l-1.32-6.21,3.94-.42a21.9,21.9,0,0,1,3.41-2.91l4.37,2.1,7.75-.81,1.27,5.14L195.85,437s-4.46-2.39-5.79-6.23Z" transform="translate(-44.28 -77.5)"></path><path class="cls-10" d="M233,427.83l1.59,6.47s-10.32,13.43-22.58,9.82c0,0-5.68-1.06-7-10.3Z" transform="translate(-44.28 -77.5)"></path><path class="cls-10" d="M160.24,452.54l-.07-.31a7.15,7.15,0,0,1-.19-.92l-1.32-6.22,3.94-.41a21.9,21.9,0,0,1,3.41-2.91l4.37,2.1,7.75-.81,1.27,5.14-13.32,10.63s-4.46-2.4-5.79-6.23Z" transform="translate(-44.28 -77.5)"></path><path class="cls-10" d="M203.25,449.67l1.59,6.46s-10.33,13.44-22.58,9.83c0,0-5.68-1.07-7-10.3Z" transform="translate(-44.28 -77.5)"></path><path class="cls-10" d="M129.86,475.34l-.06-.31a5.57,5.57,0,0,1-.2-.92l-1.32-6.21,3.94-.42a21.9,21.9,0,0,1,3.41-2.91l4.37,2.1,7.75-.81L149,471,135.7,481.63s-4.46-2.39-5.79-6.23Z" transform="translate(-44.28 -77.5)"></path><path class="cls-10" d="M172.87,472.47l1.59,6.46s-10.33,13.44-22.58,9.83c0,0-5.68-1.06-7-10.3Z" transform="translate(-44.28 -77.5)"></path><path class="cls-12" d="M99.48,502.14l-.07-.31a7,7,0,0,1-.19-.91L97.9,494.7l3.94-.41a21.39,21.39,0,0,1,3.41-2.92l4.37,2.1,7.75-.81,1.27,5.14-13.32,10.63s-4.46-2.39-5.79-6.23Z" transform="translate(-44.28 -77.5)"></path><path class="cls-13" d="M117.37,492.66l-13.32,10.63s-13.82-7.4-.07-17.06Z" transform="translate(-44.28 -77.5)"></path><path class="cls-4" d="M188.17,524.85c68.16-53.75,209.57-156.14,330.32-224.67,89.43-50.77,155.88-61.4,184.34-63.5a7.94,7.94,0,0,1,.79.45s31,41.26,36.8,73.43-13.81,57.84-24.08,73.12S656,473.41,647.9,483.89s-13.37,14.78-30.62,22.43-26.88,13.43-68.62,6.28S369.37,521.9,272,611.8c0,0-46.34,48.41-74.9,55-19.19,4.44-31.77,5.32-44.72,1.54C83.32,559.88,126.74,573.29,188.17,524.85Z" transform="translate(-44.28 -77.5)"></path><path class="cls-14" d="M197.13,666.82c28.56-6.61,74.9-55,74.9-55,97.34-89.9,234.9-106.36,276.63-99.2S600,514,617.28,506.32s22.57-11.94,30.62-22.43S706.07,399,716.34,383.68s29.88-40.95,24.08-73.12-36.8-73.43-36.8-73.43a7.94,7.94,0,0,0-.79-.45c-13.12,1-34.35,3.77-62.16,11.46a68.74,68.74,0,0,1,3.22,6.11A76,76,0,0,1,650,295c-1.9,15.22-8.6,29.94-20.08,40.32s-26.15,16.53-39.31,24.75-25.67,19.85-28.39,35.12c-1.33,7.44-.19,15.09-.62,22.63-1.68,29.75-27.46,53.2-55.22,64s-58.15,12.33-87.26,18.66A268.58,268.58,0,0,0,286.4,573.3c-21,21.13-38.37,45.75-60.9,65.19-20.48,17.69-47,31-73.61,29.06.18.27.34.54.52.81C165.36,672.14,177.94,671.26,197.13,666.82Z" transform="translate(-44.28 -77.5)"></path><path class="cls-15" d="M567.6,393l121.24,31.42c12.12-17.91,23.24-34.43,27.5-40.77,1.43-2.12,3-4.46,4.74-7l1.48-7Z" transform="translate(-44.28 -77.5)"></path><path class="cls-16" d="M740.36,310.23c-17.67,11.85-43.64,20.87-79.3,33.23-29.95,10.38-67.22,23.3-111.46,42.29-160.89,69-307.26,184.87-335,207.4-40.7,33.08-71.21,35.6-86,34.09.39.79.77,1.58,1.18,2.39a74.11,74.11,0,0,0,14.85-.35,91.21,91.21,0,0,0,11.06-2c15.25-3.75,35.91-12.59,60.27-32.39,27.67-22.49,173.83-138.17,334.45-207.08,44.18-19,81.4-31.86,111.32-42.23,34.55-12,60.73-21.07,78.94-33.09-.09-.63-.18-1.26-.3-1.89C740.41,310.45,740.38,310.34,740.36,310.23Z" transform="translate(-44.28 -77.5)"></path><path class="cls-11" d="M263.79,406.09l-18.26-5.91s-16.45,11.45-6.52,15.24S257.22,412.06,263.79,406.09Z" transform="translate(-44.28 -77.5)"></path><path class="cls-11" d="M238.78,399.89l-13.32,10.62s-13.82-7.4-.07-17.05Z" transform="translate(-44.28 -77.5)"></path><path class="cls-11" d="M232.92,427.42l-18.26-5.91S198.2,433,208.14,436.76,226.34,433.4,232.92,427.42Z" transform="translate(-44.28 -77.5)"></path><path class="cls-11" d="M207.9,421.22l-13.31,10.63s-13.82-7.4-.07-17.06Z" transform="translate(-44.28 -77.5)"></path><path class="cls-11" d="M203.15,449.26l-18.26-5.91s-16.46,11.45-6.53,15.24S196.57,455.23,203.15,449.26Z" transform="translate(-44.28 -77.5)"></path><path class="cls-11" d="M178.13,443.06l-13.32,10.62s-13.82-7.39-.07-17.05Z" transform="translate(-44.28 -77.5)"></path><path class="cls-11" d="M172.77,472.06l-18.26-5.91S138.05,477.6,148,481.4,166.19,478,172.77,472.06Z" transform="translate(-44.28 -77.5)"></path><path class="cls-11" d="M147.75,465.86l-13.32,10.63s-13.82-7.4-.07-17.06Z" transform="translate(-44.28 -77.5)"></path><path class="cls-10" d="M142.49,499.27l1.59,6.47s-10.33,13.43-22.58,9.82c0,0-5.68-1.06-7-10.3Z" transform="translate(-44.28 -77.5)"></path><path class="cls-17" d="M133.8,517.32,147,514.66l2-1.37a1.92,1.92,0,0,1,1.53-.27l2,.51,11.82-2.39,1.77,7.21h0a1.88,1.88,0,0,1-1.13,1.86C152,526,142.27,526,137,525.34a1.82,1.82,0,0,1-1.53-1.34h0Z" transform="translate(-44.28 -77.5)"></path><path class="cls-18" d="M147.36,506.65l-12.78,8.58a1.91,1.91,0,0,0,.78,3.47c5.28.7,15,.67,28-5.13a1.91,1.91,0,0,0-.3-3.6l-14.13-3.59A1.93,1.93,0,0,0,147.36,506.65Z" transform="translate(-44.28 -77.5)"></path><path class="cls-11" d="M142.5,499.31l-18.26-5.91s-16.46,11.45-6.53,15.25S135.92,505.29,142.5,499.31Z" transform="translate(-44.28 -77.5)"></path><path class="cls-11" d="M522.31,252.72l-4,5.39-1.5-6.12-4.45,3.87-2.14-5.31-2.95,3.23-2.22-3.9L500.38,254l-1.26-5.11-3.92,4.39-1.44-5.84-3.68,4.24-1.87-4.76-4.87,3.92L481.92,245l-4.45,4.5-1.11-4.5-4,3.6-1.92-4.39-4.59,2.8L463.76,243l-3.09,3.82L458,242l-3.32,3.45-2.31-4.29-4,3.62-1-4.19-5.58,3.87-2.57-4.23-3.84,3.59-2.55-3.55-4.88,3.29-3.5-2.89c-3.91,15.69.16,43.71.16,43.73,20.47,4.23,55.73,10.56,82.12,10.31l5.41-2.84c-.66-12.35,12.18-34,12.18-34Z" transform="translate(-44.28 -77.5)"></path></g></g></svg>