<svg id="Слой_2" data-name="Слой 2" xmlns="http://www.w3.org/2000/svg" viewBox="0 0 1369.58 1372.45"><path d="M595.32,887a31.66,31.66,0,0,0,44.76,44.79h0A31.66,31.66,0,1,0,595.32,887Z"/><path d="M798.82,602.56c160.7,0,291.44-130.73,291.44-291.43S959.52,19.69,798.82,19.69,507.38,150.43,507.38,311.13,638.12,602.56,798.82,602.56ZM570.68,311.13C570.68,185.33,673,83,798.82,83S1027,185.33,1027,311.13,924.62,539.27,798.82,539.27,570.68,436.92,570.68,311.13Z"/><path d="M1321.54,597.16c-45.68-38.49-114.55-33-153.62,12.1l-148.85,153a109.31,109.31,0,0,0-81-36H649.48a341,341,0,0,0-131.23-26c-63.23,0-123.45,14.92-174.16,43.15-51.67,28.76-92.64,69.93-121.83,122.39a83.48,83.48,0,0,0-70.46,23.77l-123.58,124a31.73,31.73,0,0,0,0,44.64l291.7,293.92h0a31.7,31.7,0,0,0,44.66.26l126-124.12a84.42,84.42,0,0,0,20.94-83L536,1121.61a71.85,71.85,0,0,1,50.16-20.26H931.54a238.24,238.24,0,0,0,167-67.78c1-.84,4.16-4.67,43-51.17,32.54-38.92,90.31-108,193-230.78C1373.55,705.49,1367.71,636.2,1321.54,597.16ZM451.69,1169.32a20.2,20.2,0,0,1-5.76,14L342.58,1285.18,95.27,1036,196.6,934.37a20.34,20.34,0,0,1,25.2-2.83c.25.16.46.27.66.38,1.28.73,6.22,5.69,44.72,44.26,31.93,32,85.37,85.55,178.57,178.63A20.06,20.06,0,0,1,451.69,1169.32ZM938,882.19h-212a31.65,31.65,0,1,0,0,63.29H938a109.42,109.42,0,0,0,109-121.15L1152.58,715.8c57.47-59.06,62.16-63.89,62.87-64.74a46.3,46.3,0,1,1,70.67,59.83L1053.31,989.21a175.37,175.37,0,0,1-121.77,48.85H586.18a134.83,134.83,0,0,0-94.12,38L474,1093.51,277.4,896.93c46.92-84.78,134.45-133.3,240.84-133.3A278,278,0,0,1,630.34,787,31.6,31.6,0,0,0,643,789.62H938a46.29,46.29,0,1,1,0,92.57Z"/><path d="M793.62,383.39c-9.4,0-19.84-6.26-29.39-17.64a31.65,31.65,0,0,0-48.45,40.73c13.36,15.9,29.25,27.64,46.19,34.18V467a31.65,31.65,0,1,0,63.3,0V440.45a83.6,83.6,0,0,0-31.65-161,20.31,20.31,0,1,1,0-40.62c7.7,0,16,4.15,24.16,12a31.65,31.65,0,0,0,44-45.5c-11.22-10.85-23.49-18.85-36.53-23.83V155.26a31.65,31.65,0,1,0-63.3,0V181.8a83.6,83.6,0,0,0,31.65,161,20.31,20.31,0,1,1,0,40.61Z"/></svg>