<svg id="Слой_2" data-name="Слой 2" xmlns="http://www.w3.org/2000/svg" viewBox="0 0 1382.52 1382.52"><path d="M681.17,1013.37h20.18a29.67,29.67,0,0,0,0-59.34H681.17a29.67,29.67,0,1,0,0,59.34Z"/><path d="M1147.21,785.24a93.39,93.39,0,0,0-29.07-67.76,93.48,93.48,0,0,0,0-135.52A94.25,94.25,0,0,0,1053,419.63h-18.66V85.09a72.4,72.4,0,0,0-72-72h-542a72.39,72.39,0,0,0-72,72V532.63a117.32,117.32,0,0,0-112.93,117.1V742.3l45.17,473.15v134.41a26.87,26.87,0,0,0,26.84,26.84H804.19A26.87,26.87,0,0,0,831,1349.86V1222.92l82-117.24h49.29a72.41,72.41,0,0,0,72-72v-18.33h18.64A94.25,94.25,0,0,0,1118.12,853,93.33,93.33,0,0,0,1147.21,785.24Zm-369.86,456V1323H334.16v-81.83ZM854.49,89.51a18.31,18.31,0,0,1-17.78,13.93H545.82A18.32,18.32,0,0,1,528,89.5l-5.68-22.73H860.17ZM510.58,713.23H375.07a26.86,26.86,0,0,0-26.83,26.84v293.62a72.4,72.4,0,0,0,72,72H847.51l-57.29,81.83H331.74L289,739.87V649.74a63.86,63.86,0,0,1,63.5-63.51H510.58a63.5,63.5,0,1,1,0,127ZM401.91,766.9H510.58A117.29,117.29,0,0,0,613.91,705a148.63,148.63,0,0,0,47.16,28.55v40a41.09,41.09,0,1,0,82.17,0V733.26a114.73,114.73,0,0,0-41.09-221.85,32.58,32.58,0,0,1,0-65.15c11.92,0,24.67,6.24,36.88,18.06a41.08,41.08,0,0,0,57.14-59.05c-16.23-15.69-34-27.08-52.93-33.87V331.54a41.09,41.09,0,1,0-82.17,0v40.19a114.73,114.73,0,0,0,41.08,221.86,32.57,32.57,0,1,1,0,65.13c-14.47,0-30.29-9.35-44.56-26.35a41.1,41.1,0,0,0-34.24-14.51,117.39,117.39,0,0,0-112.77-85.31H401.91V85.1a18.35,18.35,0,0,1,18.33-18.33h46.82l8.9,35.85a71.94,71.94,0,0,0,69.85,54.49h290.9a72,72,0,0,0,69.86-54.5l8.9-35.84h46.81A18.35,18.35,0,0,1,980.61,85.1V419.63H962A94.25,94.25,0,0,0,896.78,582a93.47,93.47,0,0,0,0,135.52,93.49,93.49,0,0,0,0,135.53A94.25,94.25,0,0,0,962,1015.34h18.66v18.33A18.35,18.35,0,0,1,962.28,1052h-542a18.35,18.35,0,0,1-18.33-18.33ZM962.28,879.83h90.34a40.92,40.92,0,1,1,0,81.84H962.28a40.92,40.92,0,0,1,0-81.84Zm90.34-53.67H962.28a40.92,40.92,0,0,1,0-81.84h90.34a40.92,40.92,0,1,1,0,81.84Zm0-135.51H962.28a40.92,40.92,0,1,1,0-81.84h90.34a40.92,40.92,0,1,1,0,81.84Zm0-135.51H962.28a40.92,40.92,0,1,1,0-81.84h90.34a40.92,40.92,0,1,1,0,81.84Z"/></svg>