<svg id="Слой_2" data-name="Слой 2" xmlns="http://www.w3.org/2000/svg" viewBox="0 0 1382.52 1382.52"><path d="M1366.6,134.22a96.13,96.13,0,0,0-96.08-95.81c-11.26,0-22.52,0-33.78,0H131.55c-3.09,0-6.18-.07-9.26.09-41,2-77.77,30.41-88.11,70.62-4.42,17.18-3.09,35.86-3.09,53.46V856.25c0,4.79,0,9.59,0,14.38.13,30.92,14.51,58.76,39.06,77.29,20.57,15.53,44.47,18.32,69,18.32h377l-1.68,5.7q-3.37,11.5-6.76,23-3.69,12.54-7.37,25.08T493,1045.34q-3.48,11.87-7,23.72-2.92,10-5.86,20-2.11,7.18-4.22,14.36c-.67,2.28-1.36,4.55-2,6.84l-.09.29a16.85,16.85,0,0,0-.61,2.74H405.79c-5.25,0-10.49,0-15.73,0-13.12,0-26.87,3.74-37.73,11.26a74.12,74.12,0,0,0-19.9,20,60.35,60.35,0,0,0-5.41,10.55,59.49,59.49,0,0,0-3.82,11.38c-1.8,8.82-1.72,17.35-1.72,26.24v31.21a21.56,21.56,0,0,0,21.26,21.26H666.18a71.18,71.18,0,0,0,63.87,40.22h5.63v5.42a56.12,56.12,0,0,0,55.84,55.8h29.72l28.07,40.14h61.6l-28.1-40.14h276a56.12,56.12,0,0,0,55.81-55.83v-199a25.26,25.26,0,0,0-25.23-25.23h-91.83a36,36,0,0,1,0-72h107.11a36.23,36.23,0,0,1,36,36v60.74l-28.21,295.41h50.68l28-293.09V1030.6a86.23,86.23,0,0,0-28.82-64.36h9.43c.45,0,.9,0,1.35,0a96.23,96.23,0,0,0,89.42-67.35c3.32-10.69,4-21.88,4-33V180.18C1366.6,164.86,1366.66,149.54,1366.6,134.22Zm-58.32-28-.8-1.06C1307.89,105.59,1308.28,106,1308.28,106.22ZM81,127.65c.1-.69.16-1.42.27-2,.41-2,.9-4,1.48-5.89.42-1.42,1-2.81,1.45-4.22.42-.81.78-1.68,1.2-2.48.92-1.74,1.91-3.45,3-5.11.75-1.17,4.37-5.27,2-3-2.66,2.58,1.89-2,2.45-2.58,1.55-1.62,3.23-3.08,4.86-4.63l.32-.32c1.63-1.08,3.22-2.17,4.9-3.17s3.3-1.79,5-2.67c.81-.31,1.89-.74,2.23-.85a85.13,85.13,0,0,1,10-2.54c.74,0,1.49-.13,2.23-.17,1.2-.06,2.4-.07,3.61-.09,2.12,0,4.25,0,6.38,0H1232.79q18.35,0,36.7,0h2.31c1.65,0,3.28.11,4.92.19.85.17,1.85.2,2.59.35,2.42.49,10.06,1.46,11.56,3.43.13.17-4.5-2.29-2-.81,1,.57,2,1,3,1.51q3,1.57,5.82,3.44c1,.63,4.6,3.94,2.26,1.51-2.61-2.69,1.87,1.77,2.58,2.45,1.42,1.35,2.7,2.84,4.07,4.23l.63.62c.23.32.47.64.69,1,2,3.09,3.8,6.23,5.53,9.48.06.1.1.19.15.28.08.24.17.54.29.88.73,2.19,1.42,4.37,2,6.61.37,1.56,1.63,4.5,1.19,6,0,.14-.43-5.19-.37-2.2,0,1.19.19,2.38.23,3.57,0,.93,0,1.86.06,2.79v1.08c0,15.38,0,30.75,0,46.13V740.27H1214.67V648a56.13,56.13,0,0,0-55.84-55.81h-178V551.55H852V489.74H707.47V437.92H874.38v57.51h46.53V437.92h59.94V391.39H660.93V711.3h46.54V623.53h33.95A55.6,55.6,0,0,0,735.68,648v92.29h-655V165.92C80.69,153.16,80.72,140.4,81,127.65Zm930.21,903a86.54,86.54,0,0,0,86.44,86.44h66.61v173.74a5.39,5.39,0,0,1-5.39,5.38H791.52a5.38,5.38,0,0,1-5.38-5.38v-5.39h5.59a70.91,70.91,0,0,0,53.87-117,70.37,70.37,0,0,0,13.82-67h38.85v-36H860.76v-18.56a70.36,70.36,0,0,0-15.16-62.17,70.79,70.79,0,0,0-15.91-105.94h31.07V841.2h37.52v-36H824.8v70.63a70.63,70.63,0,0,0-33-8.24h-5.62V648a5.39,5.39,0,0,1,5.38-5.39h26.22l4.71,19a55.78,55.78,0,0,0,54.16,42.24h197.13a55.79,55.79,0,0,0,54.17-42.27l4.71-18.95h26.21a5.4,5.4,0,0,1,5.39,5.39V944.15h-66.61A86.54,86.54,0,0,0,1011.17,1030.6Zm-199-91.83a20.71,20.71,0,0,1-20.69,20.69H730.3a20.69,20.69,0,1,1,0-41.38h61.22A20.71,20.71,0,0,1,812.21,938.77Zm-81.91,71.14h61.22a20.69,20.69,0,1,1,0,41.38H730.3a20.69,20.69,0,1,1,0-41.38Zm0,91.83h61.22a20.69,20.69,0,1,1,0,41.38H730.3a20.69,20.69,0,0,1,0-41.38ZM1079,649.26a5.39,5.39,0,0,1-5.22,4.1H876.63a5.39,5.39,0,0,1-5.24-4.11l-1.66-6.66h210.89ZM730.3,1193.57h61.22a20.69,20.69,0,1,1,0,41.37H730.3a20.69,20.69,0,1,1,0-41.37ZM707.47,577V536.27h98v55.87h-14a55.7,55.7,0,0,0-29.67,8.68V577Zm-579,339.64H125.9c-.55,0-1.27,0-1.82,0-1,0-1.93-.1-2.89-.15-3.35-1.31-7.73-1.46-11.16-2.62-.56-.19-1.13-.43-1.7-.64-1.79-1-3.71-1.83-5.49-2.88s-3.27-2.1-4.9-3.18l-.32-.31c-1.42-1.35-2.9-2.63-4.28-4-.58-.6-1.16-1.2-1.73-1.83-.3-.32-4.07-4-1.3-1.35,2.39,2.31-1.23-1.8-2-3q-1.36-2.13-2.57-4.37c-.18-.32-.89-1.8-1.45-2.92s-1.39-3.82-1.6-4.53c-.58-1.94-1.08-3.9-1.48-5.88-.1-.48-.18-1-.26-1.43,0-2-.26-4.08-.28-6.13v-.91c0-4.88,0-9.75,0-14.63V791.29h655v76.34h-5.59a71.2,71.2,0,0,0-66.42,46c-.36,1-.7,2-1,3Zm536.4,49.61a70.93,70.93,0,0,0,11.35,18.41,70.4,70.4,0,0,0,0,91.86,70.34,70.34,0,0,0-16.43,36.73H517.33c.86-3,1.73-5.89,2.59-8.83l5.52-18.76q3.38-11.51,6.76-23l7.38-25.08,7.44-25.31q3.48-11.87,7-23.72,2.94-10,5.87-19.95c.22-.78.45-1.56.68-2.34ZM624,1202.66H364v-18c0-2.22,0-4.43.17-6.65a48.72,48.72,0,0,1,1.79-6.49,50.36,50.36,0,0,1,3.37-5.76,49.43,49.43,0,0,1,4.69-4.69,48.7,48.7,0,0,1,5.76-3.37,49.18,49.18,0,0,1,6.55-1.8c3.45-.23,6.93-.15,10.39-.15H667.55a70.09,70.09,0,0,0,8.67,12.61,71.38,71.38,0,0,0-16,34.29H624Zm689.73-313.79a4.49,4.49,0,0,1,.43-1.14A3.15,3.15,0,0,1,1313.77,888.87Zm3-12c0,.2,0,.36,0,.5s-.1.48-.15.77c-.39,2-.85,4-1.4,5.92s-1.48,3.78-1.9,5.7h0c-.3.55-.57,1-.6,1.08-1.54,3-3.45,5.71-5.25,8.54-.49.51-.93,1.12-1.4,1.63-1.32,1.45-2.7,2.85-4.14,4.18-.61.57-1.27,1.1-1.87,1.69a5,5,0,0,0-.68.78c-.85.53-1.79,1-2.38,1.38-1.66,1.07-3.37,2-5.11,3-.75.39-1.52.75-2.27,1.15-4.23,2.25,1.17-.36,1.24-.46-1.47,2-9.09,2.93-11.56,3.44-.85.17-1.72.29-2.58.47-2.88.61,2.31-.38,2.23-.3-.64.63-3.3.54-5.27.44-.4,0-.81-.05-1.22-.06l-.67,0h-57.13V791.29H1317V864C1317,868.28,1317,872.53,1316.79,876.82Z"/><path d="M403.28,699.61H621.66V477.17H403.28Zm177-181.07V658.25H444.65V518.54Z"/><path d="M621.83,129.25H403.46V351.68H621.83Zm-177,181.07V170.61H580.47V310.32Z"/><path d="M974.05,129.42H755.67V351.86H974.05ZM797,310.49V170.79H932.68v139.7Z"/><rect x="480.43" y="208.43" width="64.07" height="64.07"/><rect x="480.43" y="556.36" width="64.07" height="64.07"/><rect x="832.82" y="208.61" width="64.07" height="64.07"/><rect x="665.24" y="122.45" width="46.53" height="234.65"/><rect x="396.48" y="391.39" width="95.29" height="46.53"/><rect x="526.52" y="391.39" width="102.11" height="46.53"/><path d="M996,1233.9H954.32a21.07,21.07,0,0,0,0,42.14H996a21.07,21.07,0,1,0,0-42.14Z"/><polygon points="1127.43 878.72 1127.43 805.23 1053.95 805.23 1053.95 841.19 1091.47 841.19 1091.47 878.72 1127.43 878.72"/></svg>