<svg id="Слой_2" data-name="Слой 2" xmlns="http://www.w3.org/2000/svg" viewBox="0 0 1382.52 1382.52"><path d="M934.57,998.16,727.21,790.8a39.42,39.42,0,0,0-54.49,0L464.6,998.92A201.84,201.84,0,0,1,321,1058.38H280.12L542.75,1321a210,210,0,0,0,297,0l263.38-263.39h-25A201.8,201.8,0,0,1,934.57,998.16ZM803.7,1284.93a159,159,0,0,1-224.87,0L393,1099.11A252.93,252.93,0,0,0,500.68,1035L700,835.72,898.5,1034.25a253.16,253.16,0,0,0,95.64,60.24Z"/><path d="M464.59,383.6,672.71,591.76a38.58,38.58,0,0,0,54.5,0L934.57,384.36a201.82,201.82,0,0,1,143.61-59.46h25L839.78,61.52a210,210,0,0,0-297,0L280.13,324.14H321A201.8,201.8,0,0,1,464.59,383.6Zm114.24-286a159,159,0,0,1,224.87,0L994.13,288a253.38,253.38,0,0,0-95.65,60.25L700,546.83,500.66,347.52A252.8,252.8,0,0,0,393,283.41Z"/><path d="M1161.84,383.58a30.14,30.14,0,0,1-11.29,2.29h-72.37a143,143,0,0,0-100.47,41.62L770.34,634.86a99.61,99.61,0,0,1-140.74,0L421.46,426.74A143,143,0,0,0,321,385.11H232A30.23,30.23,0,0,1,221.31,383L61.52,542.75c-82,82-82,215,0,297L221.3,999.56A30.28,30.28,0,0,1,232,997.4h89a143,143,0,0,0,100.48-41.63L629.58,747.66c18.81-18.79,44.6-28.19,70.4-28.19s51.58,9.4,70.37,28.21L977.71,955a143,143,0,0,0,100.48,41.63h72.35a30.23,30.23,0,0,1,11.31,2.28L1321,839.78c82-82,82-215,0-297Zm-568.34,328L385.37,919.71A91.65,91.65,0,0,1,321,946.38H240.28L97.6,803.7a159,159,0,0,1,0-224.87L240.29,436.14H321a91.7,91.7,0,0,1,64.4,26.67L593.54,671a151.15,151.15,0,0,0,25.4,20.46A143.2,143.2,0,0,0,593.5,711.58Zm691.43,92.12L1143,945.63h-64.8a91.62,91.62,0,0,1-64.4-26.69L806.45,711.62A143.19,143.19,0,0,0,781,691.43a151.54,151.54,0,0,0,25.43-20.49L1013.8,463.56a91.63,91.63,0,0,1,64.38-26.67H1143l141.94,141.94a159,159,0,0,1,0,224.87Z"/></svg>