<svg id="Слой_2" data-name="Слой 2" xmlns="http://www.w3.org/2000/svg" viewBox="0 0 1369.58 1372.45"><path d="M943.42,712.83a71.91,71.91,0,0,0-12.54-37.19c4.52-14.22,9.8-45.07-17.45-69.94-18.62-17-49.23-24.57-90.95-22.56a338.42,338.42,0,0,0-52.55,6.68l-.39.07c-1.57.28-3.18.58-4.86.91,1.26-9,4.42-23.57,12-46.47,15.69-47.75,14.33-84.8-4-110.14-20-27.61-51.71-29.76-60.94-29.76a35.46,35.46,0,0,0-27.3,12.47c-13.14,15.27-12.89,40.09-11.26,55C657.18,514.13,620.8,596.33,591.61,619a20.37,20.37,0,0,0-2.76,2.4l-.17.18a119.11,119.11,0,0,0-18.24,25.27,52.45,52.45,0,0,0-16.37-2.57h-64a53,53,0,0,0-52.95,53V867.76a53,53,0,0,0,52.95,53h64a52.59,52.59,0,0,0,27.44-7.65l21.25,2.54c3.26.43,71,9.08,140.77,7.74,13.12,1,24.7,1.46,35.41,1.46,19.47,0,36.54-1.56,50.72-4.61,34.87-7.41,58.87-22.58,71.36-45.09A72.57,72.57,0,0,0,909.77,834c20.58-20.54,24.14-43,23.36-58.48a81.32,81.32,0,0,0-3.24-19C939.53,742.73,944.08,728.05,943.42,712.83Zm-60.78,51.33v0a34.25,34.25,0,0,1,3.69,13.52c.57,10.58-4.67,19.86-16.09,28.43a23.53,23.53,0,0,0-8.06,26.31c.57,2.06,2.69,11.27-2.06,19.77-5.63,10.06-19.53,17.7-40.23,22.1-18,3.87-42.82,4.59-73.8,2.13l-2.31,0h-.1c-67,1.46-134.29-7.28-134.91-7.36l-1.77-.2c0-.36,0-.73,0-1.09V697.14a53.25,53.25,0,0,0-1.63-13A77.62,77.62,0,0,1,621.61,655c47.55-38.39,92.44-158.49,97.52-172.4a22.66,22.66,0,0,0,1.1-11.74,85.18,85.18,0,0,1-.66-18.71c4.87,1.17,10.84,3.74,14.9,9.36,8.78,12.14,7.88,36.26-2.55,67.92-19.22,58.23-19.94,88.3-2.51,103.76,10.07,9,22.83,9.08,31.64,6.11,6.6-1.51,12.23-2.64,17.19-3.45l.81-.17.39-.09.77-.17c37.44-8.15,86.89-8.65,101.59,4.73,11,10.09,3.74,23.6,2,26.46a23.26,23.26,0,0,0,4,30c.71.71,8.36,8.52,8.72,18.1.31,6.7-3.23,13.92-10.51,21.45l0,0A23.4,23.4,0,0,0,882.64,764.16Zm-322.54-67V867.65a6,6,0,0,1-6,6H489a6,6,0,0,1-4.91-5.92V697.14a6,6,0,0,1,6-6h64A6,6,0,0,1,560.1,697.14Z"/><path d="M1033.53,337.48a491.77,491.77,0,1,0,105.68,156.76A491.64,491.64,0,0,0,1033.53,337.48ZM684.79,1124.74C443,1124.74,246.27,928,246.27,686.22S443,247.7,684.79,247.7s438.52,196.72,438.52,438.52S926.59,1124.74,684.79,1124.74Z"/><path d="M1278,729.22a97.32,97.32,0,0,1,0-86l25-51.06A146.1,146.1,0,0,0,1240.2,399L1190,372.31a97.28,97.28,0,0,1-50.55-69.57l-9.82-56A146.08,146.08,0,0,0,965.27,127.35l-56.27,8a97.25,97.25,0,0,1-81.78-26.57L786.37,69.22a146.1,146.1,0,0,0-203.16,0l-40.85,39.52a97.25,97.25,0,0,1-81.78,26.57l-56.27-8A146.08,146.08,0,0,0,240,246.77l-9.82,56a97.28,97.28,0,0,1-50.55,69.57L129.38,399A146.1,146.1,0,0,0,66.6,592.17l25,51.06a97.25,97.25,0,0,1,0,86l-25,51.06a146.1,146.1,0,0,0,62.78,193.21l50.2,26.64a97.3,97.3,0,0,1,50.55,69.57l9.82,56a146.13,146.13,0,0,0,143.67,120.87,147.4,147.4,0,0,0,20.69-1.46l56.27-8a97.26,97.26,0,0,1,81.78,26.58l40.85,39.51a146.08,146.08,0,0,0,203.16,0l40.85-39.51A97.27,97.27,0,0,1,909,1237.13l56.27,8a146.08,146.08,0,0,0,164.36-119.41l9.82-56a97.3,97.3,0,0,1,50.55-69.57l50.2-26.64A146.1,146.1,0,0,0,1303,780.28Zm-60.4,201.7-50.21,26.64A146.06,146.06,0,0,0,1092,1061.37l-9.82,56a97.51,97.51,0,0,1-110.15,80l-56.27-8a146.09,146.09,0,0,0-122,39.65l-40.85,39.52a97.49,97.49,0,0,1-136.14,0l-40.85-39.52a146.44,146.44,0,0,0-122-39.65l-56.27,8a97.51,97.51,0,0,1-110.15-80l-9.82-56a146.06,146.06,0,0,0-75.42-103.81L152,930.92a97.51,97.51,0,0,1-42.07-129.48l25-51.06a146.9,146.9,0,0,0,14.84-64.16,146.93,146.93,0,0,0-14.84-64.16l-25-51.06A97.51,97.51,0,0,1,152,441.52l50.21-26.64a146.06,146.06,0,0,0,75.42-103.81l9.82-56a97.51,97.51,0,0,1,110.15-80l56.27,8a146.06,146.06,0,0,0,122-39.66l40.85-39.51a97.49,97.49,0,0,1,136.14,0l40.85,39.51a146.08,146.08,0,0,0,122,39.66l56.27-8a97.52,97.52,0,0,1,110.15,80l9.82,56a146.06,146.06,0,0,0,75.42,103.81l50.21,26.64A97.51,97.51,0,0,1,1259.69,571l-25,51.06a146.12,146.12,0,0,0,0,128.32l25,51.06A97.51,97.51,0,0,1,1217.62,930.92Z"/></svg>