<svg xmlns="http://www.w3.org/2000/svg" id="Camada_1" data-name="Camada 1" viewBox="0 0 690.36 641"><defs><style>.cls-1{fill:#f47d35;}.cls-2{fill:#595959;}.cls-3{fill:#3d3d3d;}.cls-4{fill:#707070;}.cls-5{fill:#282828;}.cls-6{fill:#161616;}.cls-7{fill:#8dc63f;}.cls-8{fill:#f90606;}.cls-9{fill:#fff;}</style></defs><title>SAT</title><g id="Capa_2" data-name="Capa 2"><circle class="cls-1" cx="352.31" cy="320.5" r="320.5"></circle></g><path class="cls-2" d="M691.34,337.57,447,96.11a27.66,27.66,0,0,0-23.1-7.45L6.32,149.33c-2.13.25-3.89,4.32-1.51,7.11l207.74,237.7a4.73,4.73,0,0,1,1.11,3v22.36a4.66,4.66,0,0,0,4.66,4.66h12.35a4.66,4.66,0,0,0,4.66-4.66v-7.3a4.68,4.68,0,0,1,4.06-4.63l448.77-58.93C693.3,347.82,695.1,341.18,691.34,337.57Z" transform="translate(-3.41)"></path><path class="cls-3" d="M225.53,413.55a11.24,11.24,0,0,0-2.65-7.25L9.22,150.22a3.33,3.33,0,0,0-5.65,2.41L3.49,268.41c0,10.52,2.07,15.48,5.75,19.66L225.53,548.58a10.91,10.91,0,0,0,10.26,3.89l15.59-2.61Z" transform="translate(-3.41)"></path><path class="cls-4" d="M232.61,408.29,683.87,335a8.43,8.43,0,0,1,9.78,8.32V469.88a8.43,8.43,0,0,1-7.06,8.32L235.33,552.51a8.44,8.44,0,0,1-9.8-8.33V416.61A8.43,8.43,0,0,1,232.61,408.29Z" transform="translate(-3.41)"></path><polygon class="cls-5" points="221.83 492.8 221.57 492.48 0 222.31 1.09 221.41 222.4 491.27 690.12 408.75 690.36 410.13 221.83 492.8"></polygon><path class="cls-6" d="M253.61,413.71l412.52-62.22c4.5-.68,8.57,2.56,8.57,6.82V463.64a7.07,7.07,0,0,1-6.17,6.82L256,535c-4.51.7-8.62-2.54-8.62-6.82V420.54A7.09,7.09,0,0,1,253.61,413.71Z" transform="translate(-3.41)"></path><polygon class="cls-7" points="260.78 504.95 259.92 492.21 288.83 487.84 289.69 500.58 260.78 504.95"></polygon><polygon class="cls-7" points="318.6 496.22 317.74 483.47 346.64 479.1 347.51 491.85 318.6 496.22"></polygon><polygon class="cls-8" points="376.42 487.48 375.55 474.73 404.46 470.36 405.33 483.11 376.42 487.48"></polygon><polygon class="cls-7" points="492.14 469.44 491.27 456.69 520.18 452.32 521.05 465.07 492.14 469.44"></polygon><polygon class="cls-8" points="549.71 460.44 548.84 447.7 577.75 443.33 578.62 456.07 549.71 460.44"></polygon><polygon class="cls-8" points="434.24 478.74 433.37 465.99 462.28 461.63 463.15 474.37 434.24 478.74"></polygon><path class="cls-9" d="M264.28,514.75l0-2.13,29-4.56,0,2.13Zm58.07-9.12,0-2.12,29-4.56,0,2.13Zm58.07-9.11,0-2.13,29-4.56,0,2.13Zm58.07-9.11v-2.13l29-4.56,0,2.13Z" transform="translate(-3.41)"></path><path class="cls-9" d="M496.93,479.23v-2.12l28.33-4.28V475Zm56.67-8.56v-2.12l28.34-4.28v2.12Z" transform="translate(-3.41)"></path><path class="cls-3" d="M278,221.18c16.26-1.91,25,1.64,25.86,9.85l.18,1.66-16.32,2.06-.13-2.22c-.22-3.76-3.41-4.79-8.88-4.12s-8.65,2.48-8.61,6.31c.1,11.49,35.28,9.06,37.09,26,1.09,10.18-8.1,17.76-27.4,20.71-19.74,3-29.88-1.81-29.42-12.58l.17-4,18.24-2.57,0,4.56c0,4.66,4,5.79,10.15,4.88s9.9-3.14,9.64-7.72c-.72-12.59-37.06-10-36.37-26.49C252.62,228.88,261.47,223.13,278,221.18Z" transform="translate(-3.41)"></path><path class="cls-3" d="M376.63,248.61c-2.08,3.83-6.72,6.34-13.69,7.17-11.17,1.44-17-2.55-17.15-10.77l-.07-8.18c-.16-7.57,5.11-12.2,15.32-13.25,6.06-.69,10.39.38,13.12,2.93l-.44-4.23,13.53-1.7,3.18,21.9c.16,1.39,1.28,1.9,3.66,1.56,8.3-1.16,8.16-11.12,5.28-18.53-3.37-8.66-13.73-13.4-32.9-11.1-25.24,3-36.88,14.83-33.66,32.54,2.47,13.65,16.42,20.8,42.25,16.9,11.75-1.78,21.2-4.48,30.28-10.65l1.83,8.36c-8.93,5.48-18.94,8.18-30.92,10.05-37.55,5.86-56-5.05-58.49-23-2.7-19.35,12.94-35.82,47.57-39.85,28.46-3.31,40.87,4.12,45.55,15.13,7.72,18.2-7.38,26.54-19.05,28.23C384,253.25,378.42,252.4,376.63,248.61Zm-16-6.05c.19,3.79,3.22,5,8,4.38,4.62-.56,7.38-2.45,7-6.19l-.75-7.46c-.32-3-3.61-3.84-7.55-3.33-4.57.51-7.32,2.17-7.12,5.82Z" transform="translate(-3.41)"></path><path class="cls-3" d="M410.38,206.14,453.67,201l3.62,6.14L442.67,209l23.45,43.24-15.93,2.43L428.43,210.7l-15.18,1.86Z" transform="translate(-3.41)"></path></svg>